<mxfile host="app.diagrams.net" modified="2021-11-22T21:28:00.879Z" agent="5.0 (Windows NT 10.0; Win64; x64) AppleWebKit/537.36 (KHTML, like Gecko) Chrome/96.0.4664.45 Safari/537.36" etag="ZKRodke2OyIqnPxXmi58" version="15.8.3" type="github">
  <diagram id="g_zdpprm4C2qTaXdkXLx" name="Page-1">
    <mxGraphModel dx="1398" dy="3267" grid="1" gridSize="10" guides="1" tooltips="1" connect="1" arrows="1" fold="1" page="1" pageScale="1" pageWidth="3300" pageHeight="2339" math="0" shadow="0">
      <root>
        <mxCell id="0" />
        <mxCell id="1" parent="0" />
        <mxCell id="jUa_gXz1qckVO_bWwLGS-148" value="" style="rounded=0;whiteSpace=wrap;html=1;dashed=1;fontSize=18;strokeColor=#FFB366;strokeWidth=6;" vertex="1" parent="1">
          <mxGeometry x="1944" y="-938.8699999999999" width="402.5" height="150" as="geometry" />
        </mxCell>
        <mxCell id="jUa_gXz1qckVO_bWwLGS-139" value="" style="rounded=0;whiteSpace=wrap;html=1;dashed=1;fontSize=18;strokeColor=#FFB366;strokeWidth=6;" vertex="1" parent="1">
          <mxGeometry x="1949" y="-1133.87" width="402.5" height="150" as="geometry" />
        </mxCell>
        <mxCell id="jUa_gXz1qckVO_bWwLGS-138" value="" style="rounded=0;whiteSpace=wrap;html=1;dashed=1;fontSize=18;strokeColor=#FFB366;strokeWidth=6;" vertex="1" parent="1">
          <mxGeometry x="1949" y="-1328.87" width="402.5" height="150" as="geometry" />
        </mxCell>
        <mxCell id="jUa_gXz1qckVO_bWwLGS-94" value="" style="edgeStyle=orthogonalEdgeStyle;rounded=0;orthogonalLoop=1;jettySize=auto;html=1;fontSize=18;" edge="1" parent="1" source="jUa_gXz1qckVO_bWwLGS-86" target="jUa_gXz1qckVO_bWwLGS-93">
          <mxGeometry relative="1" as="geometry" />
        </mxCell>
        <mxCell id="jUa_gXz1qckVO_bWwLGS-86" value="++" style="rounded=0;whiteSpace=wrap;html=1;dashed=1;strokeColor=#FFB366;strokeWidth=6;" vertex="1" parent="1">
          <mxGeometry x="566.5" y="-1363.87" width="205" height="430" as="geometry" />
        </mxCell>
        <mxCell id="jUa_gXz1qckVO_bWwLGS-1" value="" style="rounded=0;whiteSpace=wrap;html=1;dashed=1;dashPattern=1 2;" vertex="1" parent="1">
          <mxGeometry x="2410" y="-294.12" width="250" height="140" as="geometry" />
        </mxCell>
        <mxCell id="jUa_gXz1qckVO_bWwLGS-2" style="edgeStyle=orthogonalEdgeStyle;rounded=0;orthogonalLoop=1;jettySize=auto;html=1;exitX=1;exitY=0.5;exitDx=0;exitDy=0;entryX=0;entryY=0.5;entryDx=0;entryDy=0;entryPerimeter=0;" edge="1" parent="1" source="jUa_gXz1qckVO_bWwLGS-4" target="jUa_gXz1qckVO_bWwLGS-11">
          <mxGeometry relative="1" as="geometry" />
        </mxCell>
        <mxCell id="jUa_gXz1qckVO_bWwLGS-3" value="++" style="rounded=0;whiteSpace=wrap;html=1;" vertex="1" parent="1">
          <mxGeometry x="1522.5" y="-480.37" width="535" height="395" as="geometry" />
        </mxCell>
        <mxCell id="jUa_gXz1qckVO_bWwLGS-4" value="" style="rounded=0;whiteSpace=wrap;html=1;" vertex="1" parent="1">
          <mxGeometry x="1287.5" y="-428.87" width="110" height="330" as="geometry" />
        </mxCell>
        <mxCell id="jUa_gXz1qckVO_bWwLGS-5" value="" style="shape=image;html=1;verticalAlign=top;verticalLabelPosition=bottom;labelBackgroundColor=#ffffff;imageAspect=0;aspect=fixed;image=https://cdn0.iconfinder.com/data/icons/long-shadow-web-icons/512/angular-128.png" vertex="1" parent="1">
          <mxGeometry x="1312.5" y="-372.37" width="60" height="60" as="geometry" />
        </mxCell>
        <mxCell id="jUa_gXz1qckVO_bWwLGS-6" value="" style="shape=image;html=1;verticalAlign=top;verticalLabelPosition=bottom;labelBackgroundColor=#ffffff;imageAspect=0;aspect=fixed;image=https://cdn0.iconfinder.com/data/icons/long-shadow-web-icons/512/css-128.png" vertex="1" parent="1">
          <mxGeometry x="1312.5" y="-292.37" width="60" height="60" as="geometry" />
        </mxCell>
        <mxCell id="jUa_gXz1qckVO_bWwLGS-7" value="" style="sketch=0;points=[[0,0,0],[0.25,0,0],[0.5,0,0],[0.75,0,0],[1,0,0],[0,1,0],[0.25,1,0],[0.5,1,0],[0.75,1,0],[1,1,0],[0,0.25,0],[0,0.5,0],[0,0.75,0],[1,0.25,0],[1,0.5,0],[1,0.75,0]];outlineConnect=0;fontColor=#232F3E;gradientColor=#F78E04;gradientDirection=north;fillColor=#D05C17;strokeColor=#ffffff;dashed=0;verticalLabelPosition=bottom;verticalAlign=top;align=center;html=1;fontSize=12;fontStyle=0;aspect=fixed;shape=mxgraph.aws4.resourceIcon;resIcon=mxgraph.aws4.auto_scaling2;" vertex="1" parent="1">
          <mxGeometry x="1312.5" y="-202.37" width="60" height="60" as="geometry" />
        </mxCell>
        <mxCell id="jUa_gXz1qckVO_bWwLGS-8" style="edgeStyle=orthogonalEdgeStyle;rounded=0;orthogonalLoop=1;jettySize=auto;html=1;exitX=1;exitY=0.5;exitDx=0;exitDy=0;exitPerimeter=0;entryX=0;entryY=0.5;entryDx=0;entryDy=0;" edge="1" parent="1" source="jUa_gXz1qckVO_bWwLGS-11" target="jUa_gXz1qckVO_bWwLGS-10">
          <mxGeometry relative="1" as="geometry" />
        </mxCell>
        <mxCell id="jUa_gXz1qckVO_bWwLGS-9" style="edgeStyle=orthogonalEdgeStyle;rounded=0;orthogonalLoop=1;jettySize=auto;html=1;exitX=1;exitY=0.5;exitDx=0;exitDy=0;entryX=0;entryY=0.5;entryDx=0;entryDy=0;entryPerimeter=0;" edge="1" parent="1" source="jUa_gXz1qckVO_bWwLGS-10" target="jUa_gXz1qckVO_bWwLGS-20">
          <mxGeometry relative="1" as="geometry" />
        </mxCell>
        <mxCell id="jUa_gXz1qckVO_bWwLGS-10" value="" style="rounded=0;whiteSpace=wrap;html=1;dashed=1;dashPattern=1 2;" vertex="1" parent="1">
          <mxGeometry x="1542.5" y="-375.12" width="120" height="222.5" as="geometry" />
        </mxCell>
        <mxCell id="jUa_gXz1qckVO_bWwLGS-11" value="" style="sketch=0;points=[[0,0,0],[0.25,0,0],[0.5,0,0],[0.75,0,0],[1,0,0],[0,1,0],[0.25,1,0],[0.5,1,0],[0.75,1,0],[1,1,0],[0,0.25,0],[0,0.5,0],[0,0.75,0],[1,0.25,0],[1,0.5,0],[1,0.75,0]];outlineConnect=0;fontColor=#232F3E;gradientColor=#F78E04;gradientDirection=north;fillColor=#D05C17;strokeColor=#ffffff;dashed=0;verticalLabelPosition=bottom;verticalAlign=top;align=center;html=1;fontSize=12;fontStyle=0;aspect=fixed;shape=mxgraph.aws4.resourceIcon;resIcon=mxgraph.aws4.elastic_load_balancing;" vertex="1" parent="1">
          <mxGeometry x="1437.5" y="-294.12" width="60.5" height="60.5" as="geometry" />
        </mxCell>
        <mxCell id="jUa_gXz1qckVO_bWwLGS-12" value="Auto Scaling" style="text;html=1;strokeColor=none;fillColor=none;align=center;verticalAlign=middle;whiteSpace=wrap;rounded=0;" vertex="1" parent="1">
          <mxGeometry x="1307.5" y="-142.37" width="70" height="30" as="geometry" />
        </mxCell>
        <mxCell id="jUa_gXz1qckVO_bWwLGS-13" value="" style="shape=image;html=1;verticalAlign=top;verticalLabelPosition=bottom;labelBackgroundColor=#ffffff;imageAspect=0;aspect=fixed;image=https://cdn0.iconfinder.com/data/icons/long-shadow-web-icons/512/nodejs-128.png;rounded=0;" vertex="1" parent="1">
          <mxGeometry x="1570" y="-332.37" width="65" height="65" as="geometry" />
        </mxCell>
        <mxCell id="jUa_gXz1qckVO_bWwLGS-14" value="" style="sketch=0;points=[[0,0,0],[0.25,0,0],[0.5,0,0],[0.75,0,0],[1,0,0],[0,1,0],[0.25,1,0],[0.5,1,0],[0.75,1,0],[1,1,0],[0,0.25,0],[0,0.5,0],[0,0.75,0],[1,0.25,0],[1,0.5,0],[1,0.75,0]];outlineConnect=0;fontColor=#232F3E;gradientColor=#F78E04;gradientDirection=north;fillColor=#D05C17;strokeColor=#ffffff;dashed=0;verticalLabelPosition=bottom;verticalAlign=top;align=center;html=1;fontSize=12;fontStyle=0;aspect=fixed;shape=mxgraph.aws4.resourceIcon;resIcon=mxgraph.aws4.auto_scaling2;" vertex="1" parent="1">
          <mxGeometry x="1572.5" y="-252.37" width="60" height="60" as="geometry" />
        </mxCell>
        <mxCell id="jUa_gXz1qckVO_bWwLGS-15" style="edgeStyle=orthogonalEdgeStyle;rounded=0;orthogonalLoop=1;jettySize=auto;html=1;exitX=0.75;exitY=0;exitDx=0;exitDy=0;exitPerimeter=0;entryX=0;entryY=0.549;entryDx=0;entryDy=0;entryPerimeter=0;" edge="1" parent="1" source="jUa_gXz1qckVO_bWwLGS-20" target="jUa_gXz1qckVO_bWwLGS-19">
          <mxGeometry relative="1" as="geometry" />
        </mxCell>
        <mxCell id="jUa_gXz1qckVO_bWwLGS-16" style="edgeStyle=orthogonalEdgeStyle;rounded=0;orthogonalLoop=1;jettySize=auto;html=1;exitX=0.75;exitY=1;exitDx=0;exitDy=0;exitPerimeter=0;entryX=0;entryY=0.5;entryDx=0;entryDy=0;" edge="1" parent="1" source="jUa_gXz1qckVO_bWwLGS-20" target="jUa_gXz1qckVO_bWwLGS-25">
          <mxGeometry relative="1" as="geometry" />
        </mxCell>
        <mxCell id="jUa_gXz1qckVO_bWwLGS-17" value="Auto Scaling" style="text;html=1;strokeColor=none;fillColor=none;align=center;verticalAlign=middle;whiteSpace=wrap;rounded=0;" vertex="1" parent="1">
          <mxGeometry x="1567.5" y="-192.37" width="70" height="30" as="geometry" />
        </mxCell>
        <mxCell id="jUa_gXz1qckVO_bWwLGS-18" style="edgeStyle=orthogonalEdgeStyle;rounded=0;orthogonalLoop=1;jettySize=auto;html=1;exitX=1;exitY=0.5;exitDx=0;exitDy=0;entryX=0.5;entryY=0;entryDx=0;entryDy=0;entryPerimeter=0;dashed=1;dashPattern=1 2;" edge="1" parent="1" source="jUa_gXz1qckVO_bWwLGS-19" target="jUa_gXz1qckVO_bWwLGS-33">
          <mxGeometry relative="1" as="geometry" />
        </mxCell>
        <mxCell id="jUa_gXz1qckVO_bWwLGS-19" value="" style="rounded=0;whiteSpace=wrap;html=1;dashed=1;dashPattern=1 2;" vertex="1" parent="1">
          <mxGeometry x="1822.5" y="-448.37" width="200" height="140" as="geometry" />
        </mxCell>
        <mxCell id="jUa_gXz1qckVO_bWwLGS-20" value="" style="sketch=0;points=[[0,0,0],[0.25,0,0],[0.5,0,0],[0.75,0,0],[1,0,0],[0,1,0],[0.25,1,0],[0.5,1,0],[0.75,1,0],[1,1,0],[0,0.25,0],[0,0.5,0],[0,0.75,0],[1,0.25,0],[1,0.5,0],[1,0.75,0]];outlineConnect=0;fontColor=#232F3E;gradientColor=#F78E04;gradientDirection=north;fillColor=#D05C17;strokeColor=#ffffff;dashed=0;verticalLabelPosition=bottom;verticalAlign=top;align=center;html=1;fontSize=12;fontStyle=0;aspect=fixed;shape=mxgraph.aws4.resourceIcon;resIcon=mxgraph.aws4.elastic_load_balancing;" vertex="1" parent="1">
          <mxGeometry x="1707.5" y="-296.37" width="60.5" height="60.5" as="geometry" />
        </mxCell>
        <mxCell id="jUa_gXz1qckVO_bWwLGS-21" value="" style="shape=image;html=1;verticalAlign=top;verticalLabelPosition=bottom;labelBackgroundColor=#ffffff;imageAspect=0;aspect=fixed;image=https://cdn0.iconfinder.com/data/icons/long-shadow-web-icons/512/nodejs-128.png;rounded=0;" vertex="1" parent="1">
          <mxGeometry x="1832.5" y="-438.37" width="65" height="65" as="geometry" />
        </mxCell>
        <mxCell id="jUa_gXz1qckVO_bWwLGS-22" value="Auto Scaling" style="text;html=1;strokeColor=none;fillColor=none;align=center;verticalAlign=middle;whiteSpace=wrap;rounded=0;" vertex="1" parent="1">
          <mxGeometry x="1932.5" y="-343.37" width="70" height="30" as="geometry" />
        </mxCell>
        <mxCell id="jUa_gXz1qckVO_bWwLGS-23" value="" style="sketch=0;points=[[0,0,0],[0.25,0,0],[0.5,0,0],[0.75,0,0],[1,0,0],[0,1,0],[0.25,1,0],[0.5,1,0],[0.75,1,0],[1,1,0],[0,0.25,0],[0,0.5,0],[0,0.75,0],[1,0.25,0],[1,0.5,0],[1,0.75,0]];outlineConnect=0;fontColor=#232F3E;gradientColor=#F78E04;gradientDirection=north;fillColor=#D05C17;strokeColor=#ffffff;dashed=0;verticalLabelPosition=bottom;verticalAlign=top;align=center;html=1;fontSize=12;fontStyle=0;aspect=fixed;shape=mxgraph.aws4.resourceIcon;resIcon=mxgraph.aws4.auto_scaling2;" vertex="1" parent="1">
          <mxGeometry x="1937.5" y="-398.37" width="60" height="60" as="geometry" />
        </mxCell>
        <mxCell id="jUa_gXz1qckVO_bWwLGS-24" style="edgeStyle=orthogonalEdgeStyle;rounded=0;orthogonalLoop=1;jettySize=auto;html=1;exitX=1;exitY=0.5;exitDx=0;exitDy=0;entryX=0.5;entryY=1;entryDx=0;entryDy=0;entryPerimeter=0;dashed=1;dashPattern=1 2;" edge="1" parent="1" source="jUa_gXz1qckVO_bWwLGS-25" target="jUa_gXz1qckVO_bWwLGS-33">
          <mxGeometry relative="1" as="geometry" />
        </mxCell>
        <mxCell id="jUa_gXz1qckVO_bWwLGS-25" value="" style="rounded=0;whiteSpace=wrap;html=1;dashed=1;dashPattern=1 2;" vertex="1" parent="1">
          <mxGeometry x="1822.5" y="-243.37" width="200" height="140" as="geometry" />
        </mxCell>
        <mxCell id="jUa_gXz1qckVO_bWwLGS-26" value="" style="shape=image;html=1;verticalAlign=top;verticalLabelPosition=bottom;labelBackgroundColor=#ffffff;imageAspect=0;aspect=fixed;image=https://cdn0.iconfinder.com/data/icons/long-shadow-web-icons/512/nodejs-128.png;rounded=0;" vertex="1" parent="1">
          <mxGeometry x="1832.5" y="-233.37" width="65" height="65" as="geometry" />
        </mxCell>
        <mxCell id="jUa_gXz1qckVO_bWwLGS-27" value="" style="sketch=0;points=[[0,0,0],[0.25,0,0],[0.5,0,0],[0.75,0,0],[1,0,0],[0,1,0],[0.25,1,0],[0.5,1,0],[0.75,1,0],[1,1,0],[0,0.25,0],[0,0.5,0],[0,0.75,0],[1,0.25,0],[1,0.5,0],[1,0.75,0]];outlineConnect=0;fontColor=#232F3E;gradientColor=#F78E04;gradientDirection=north;fillColor=#D05C17;strokeColor=#ffffff;dashed=0;verticalLabelPosition=bottom;verticalAlign=top;align=center;html=1;fontSize=12;fontStyle=0;aspect=fixed;shape=mxgraph.aws4.resourceIcon;resIcon=mxgraph.aws4.auto_scaling2;" vertex="1" parent="1">
          <mxGeometry x="1937.5" y="-193.37" width="60" height="60" as="geometry" />
        </mxCell>
        <mxCell id="jUa_gXz1qckVO_bWwLGS-28" value="Auto Scaling" style="text;html=1;strokeColor=none;fillColor=none;align=center;verticalAlign=middle;whiteSpace=wrap;rounded=0;" vertex="1" parent="1">
          <mxGeometry x="1932.5" y="-138.37" width="70" height="30" as="geometry" />
        </mxCell>
        <mxCell id="jUa_gXz1qckVO_bWwLGS-29" style="edgeStyle=orthogonalEdgeStyle;rounded=0;orthogonalLoop=1;jettySize=auto;html=1;exitX=0.5;exitY=0;exitDx=0;exitDy=0;exitPerimeter=0;entryX=0;entryY=0.5;entryDx=0;entryDy=0;dashed=1;dashPattern=1 2;" edge="1" parent="1" source="jUa_gXz1qckVO_bWwLGS-31" target="jUa_gXz1qckVO_bWwLGS-37">
          <mxGeometry relative="1" as="geometry" />
        </mxCell>
        <mxCell id="jUa_gXz1qckVO_bWwLGS-30" style="edgeStyle=orthogonalEdgeStyle;rounded=0;orthogonalLoop=1;jettySize=auto;html=1;dashed=1;dashPattern=1 2;entryX=-0.006;entryY=0.556;entryDx=0;entryDy=0;entryPerimeter=0;" edge="1" parent="1" source="jUa_gXz1qckVO_bWwLGS-31" target="jUa_gXz1qckVO_bWwLGS-1">
          <mxGeometry relative="1" as="geometry">
            <Array as="points">
              <mxPoint x="2347" y="-214.37" />
            </Array>
          </mxGeometry>
        </mxCell>
        <mxCell id="jUa_gXz1qckVO_bWwLGS-31" value="" style="sketch=0;points=[[0,0,0],[0.25,0,0],[0.5,0,0],[0.75,0,0],[1,0,0],[0,1,0],[0.25,1,0],[0.5,1,0],[0.75,1,0],[1,1,0],[0,0.25,0],[0,0.5,0],[0,0.75,0],[1,0.25,0],[1,0.5,0],[1,0.75,0]];outlineConnect=0;fontColor=#232F3E;gradientColor=#945DF2;gradientDirection=north;fillColor=#5A30B5;strokeColor=#ffffff;dashed=0;verticalLabelPosition=bottom;verticalAlign=top;align=center;html=1;fontSize=12;fontStyle=0;aspect=fixed;shape=mxgraph.aws4.resourceIcon;resIcon=mxgraph.aws4.managed_streaming_for_kafka;rounded=0;dashPattern=1 2;" vertex="1" parent="1">
          <mxGeometry x="2290" y="-313.87" width="61.5" height="61.5" as="geometry" />
        </mxCell>
        <mxCell id="jUa_gXz1qckVO_bWwLGS-32" style="edgeStyle=orthogonalEdgeStyle;rounded=0;orthogonalLoop=1;jettySize=auto;html=1;exitX=1;exitY=0.5;exitDx=0;exitDy=0;exitPerimeter=0;entryX=0;entryY=0.5;entryDx=0;entryDy=0;entryPerimeter=0;dashed=1;dashPattern=1 2;" edge="1" parent="1" source="jUa_gXz1qckVO_bWwLGS-33" target="jUa_gXz1qckVO_bWwLGS-35">
          <mxGeometry relative="1" as="geometry" />
        </mxCell>
        <mxCell id="jUa_gXz1qckVO_bWwLGS-33" value="" style="sketch=0;points=[[0,0,0],[0.25,0,0],[0.5,0,0],[0.75,0,0],[1,0,0],[0,1,0],[0.25,1,0],[0.5,1,0],[0.75,1,0],[1,1,0],[0,0.25,0],[0,0.5,0],[0,0.75,0],[1,0.25,0],[1,0.5,0],[1,0.75,0]];outlineConnect=0;fontColor=#232F3E;gradientColor=#945DF2;gradientDirection=north;fillColor=#5A30B5;strokeColor=#ffffff;dashed=0;verticalLabelPosition=bottom;verticalAlign=top;align=center;html=1;fontSize=12;fontStyle=0;aspect=fixed;shape=mxgraph.aws4.resourceIcon;resIcon=mxgraph.aws4.api_gateway;rounded=0;dashPattern=1 2;" vertex="1" parent="1">
          <mxGeometry x="2067.5" y="-321.87" width="78" height="78" as="geometry" />
        </mxCell>
        <mxCell id="jUa_gXz1qckVO_bWwLGS-34" style="edgeStyle=orthogonalEdgeStyle;rounded=0;orthogonalLoop=1;jettySize=auto;html=1;exitX=1;exitY=0.5;exitDx=0;exitDy=0;exitPerimeter=0;entryX=0;entryY=0.5;entryDx=0;entryDy=0;entryPerimeter=0;dashed=1;dashPattern=1 2;" edge="1" parent="1" source="jUa_gXz1qckVO_bWwLGS-35" target="jUa_gXz1qckVO_bWwLGS-31">
          <mxGeometry relative="1" as="geometry" />
        </mxCell>
        <mxCell id="jUa_gXz1qckVO_bWwLGS-35" value="" style="outlineConnect=0;dashed=0;verticalLabelPosition=bottom;verticalAlign=top;align=center;html=1;shape=mxgraph.aws3.lambda_function;fillColor=#F58534;gradientColor=none;rounded=0;dashPattern=1 2;" vertex="1" parent="1">
          <mxGeometry x="2187.5" y="-318.87" width="69" height="72" as="geometry" />
        </mxCell>
        <mxCell id="jUa_gXz1qckVO_bWwLGS-36" style="edgeStyle=orthogonalEdgeStyle;rounded=0;orthogonalLoop=1;jettySize=auto;html=1;exitX=0.5;exitY=1;exitDx=0;exitDy=0;dashed=1;dashPattern=1 2;" edge="1" parent="1" source="jUa_gXz1qckVO_bWwLGS-37">
          <mxGeometry relative="1" as="geometry">
            <mxPoint x="2505" y="-300.37" as="targetPoint" />
          </mxGeometry>
        </mxCell>
        <UserObject label="" lucidchartObjectId="ClKtyy_eUIUr" id="jUa_gXz1qckVO_bWwLGS-37">
          <mxCell style="html=1;overflow=block;blockSpacing=1;whiteSpace=wrap;shape=image;whiteSpace=wrap;fontSize=13;spacing=3.8;strokeColor=none;strokeOpacity=100;strokeWidth=0;image=https://images.lucid.app/images/5b973628-9828-4e17-991e-5c9da4e54e64/content;imageAspect=0;" vertex="1" parent="1">
            <mxGeometry x="2437.5" y="-510.37" width="135" height="106" as="geometry" />
          </mxCell>
        </UserObject>
        <mxCell id="jUa_gXz1qckVO_bWwLGS-38" style="edgeStyle=orthogonalEdgeStyle;rounded=0;orthogonalLoop=1;jettySize=auto;html=1;exitX=1;exitY=0.5;exitDx=0;exitDy=0;exitPerimeter=0;entryX=0;entryY=0.444;entryDx=0;entryDy=0;entryPerimeter=0;" edge="1" parent="1" source="jUa_gXz1qckVO_bWwLGS-40" target="jUa_gXz1qckVO_bWwLGS-4">
          <mxGeometry relative="1" as="geometry" />
        </mxCell>
        <mxCell id="jUa_gXz1qckVO_bWwLGS-39" value="" style="sketch=0;points=[[0,0,0],[0.25,0,0],[0.5,0,0],[0.75,0,0],[1,0,0],[0,1,0],[0.25,1,0],[0.5,1,0],[0.75,1,0],[1,1,0],[0,0.25,0],[0,0.5,0],[0,0.75,0],[1,0.25,0],[1,0.5,0],[1,0.75,0]];outlineConnect=0;fontColor=#232F3E;gradientColor=#4D72F3;gradientDirection=north;fillColor=#3334B9;strokeColor=#ffffff;dashed=0;verticalLabelPosition=bottom;verticalAlign=top;align=center;html=1;fontSize=12;fontStyle=0;aspect=fixed;shape=mxgraph.aws4.resourceIcon;resIcon=mxgraph.aws4.dynamodb;rounded=0;dashPattern=1 2;" vertex="1" parent="1">
          <mxGeometry x="2572.5" y="-254.87" width="78" height="78" as="geometry" />
        </mxCell>
        <mxCell id="jUa_gXz1qckVO_bWwLGS-40" value="" style="outlineConnect=0;dashed=0;verticalLabelPosition=bottom;verticalAlign=top;align=center;html=1;shape=mxgraph.aws3.route_53;fillColor=#F58536;gradientColor=none;" vertex="1" parent="1">
          <mxGeometry x="1117.5" y="-325.62" width="70.5" height="85.5" as="geometry" />
        </mxCell>
        <mxCell id="jUa_gXz1qckVO_bWwLGS-41" style="edgeStyle=orthogonalEdgeStyle;rounded=0;orthogonalLoop=1;jettySize=auto;html=1;" edge="1" parent="1" source="jUa_gXz1qckVO_bWwLGS-42" target="jUa_gXz1qckVO_bWwLGS-40">
          <mxGeometry relative="1" as="geometry" />
        </mxCell>
        <mxCell id="jUa_gXz1qckVO_bWwLGS-42" value="" style="verticalLabelPosition=bottom;html=1;verticalAlign=top;align=center;strokeColor=none;fillColor=#00BEF2;shape=mxgraph.azure.mobile;pointerEvents=1;" vertex="1" parent="1">
          <mxGeometry x="1047.5" y="-478.87" width="35" height="50" as="geometry" />
        </mxCell>
        <mxCell id="jUa_gXz1qckVO_bWwLGS-43" style="edgeStyle=orthogonalEdgeStyle;rounded=0;orthogonalLoop=1;jettySize=auto;html=1;exitX=1;exitY=0.5;exitDx=0;exitDy=0;exitPerimeter=0;entryX=0.5;entryY=1;entryDx=0;entryDy=0;entryPerimeter=0;" edge="1" parent="1" source="jUa_gXz1qckVO_bWwLGS-44" target="jUa_gXz1qckVO_bWwLGS-40">
          <mxGeometry relative="1" as="geometry" />
        </mxCell>
        <mxCell id="jUa_gXz1qckVO_bWwLGS-44" value="" style="verticalLabelPosition=bottom;html=1;verticalAlign=top;align=center;strokeColor=none;fillColor=#00BEF2;shape=mxgraph.azure.computer;pointerEvents=1;" vertex="1" parent="1">
          <mxGeometry x="1040" y="-187.37" width="50" height="45" as="geometry" />
        </mxCell>
        <mxCell id="jUa_gXz1qckVO_bWwLGS-45" style="edgeStyle=orthogonalEdgeStyle;rounded=0;orthogonalLoop=1;jettySize=auto;html=1;" edge="1" parent="1" source="jUa_gXz1qckVO_bWwLGS-46" target="jUa_gXz1qckVO_bWwLGS-39">
          <mxGeometry relative="1" as="geometry" />
        </mxCell>
        <mxCell id="jUa_gXz1qckVO_bWwLGS-46" value="" style="shape=image;verticalLabelPosition=bottom;labelBackgroundColor=#ffffff;verticalAlign=top;aspect=fixed;imageAspect=0;image=https://2.bp.blogspot.com/-Z6UOgkPfGV8/Wv4U-1xGDEI/AAAAAAAAOC0/cS502Pkq2BUU-cvQ0IuauAF2B0br6h30wCLcBGAs/s1600/screen-shot-2014-10-25-at-14-29-50.png;" vertex="1" parent="1">
          <mxGeometry x="2430" y="-238.37" width="120.62" height="45" as="geometry" />
        </mxCell>
        <mxCell id="jUa_gXz1qckVO_bWwLGS-47" style="edgeStyle=orthogonalEdgeStyle;rounded=0;orthogonalLoop=1;jettySize=auto;html=1;exitX=1;exitY=0.5;exitDx=0;exitDy=0;entryX=0.4;entryY=0.1;entryDx=0;entryDy=0;entryPerimeter=0;" edge="1" parent="1" source="jUa_gXz1qckVO_bWwLGS-48" target="jUa_gXz1qckVO_bWwLGS-60">
          <mxGeometry relative="1" as="geometry" />
        </mxCell>
        <mxCell id="jUa_gXz1qckVO_bWwLGS-48" value="" style="rounded=0;whiteSpace=wrap;html=1;dashed=1;fillColor=#B8E0FF;" vertex="1" parent="1">
          <mxGeometry x="101.25" y="-2231.13" width="172" height="110" as="geometry" />
        </mxCell>
        <mxCell id="jUa_gXz1qckVO_bWwLGS-49" value="Usuario de América" style="text;html=1;strokeColor=none;fillColor=none;align=center;verticalAlign=middle;whiteSpace=wrap;rounded=0;dashed=1;" vertex="1" parent="1">
          <mxGeometry x="103.25" y="-2151.13" width="170" height="30" as="geometry" />
        </mxCell>
        <mxCell id="jUa_gXz1qckVO_bWwLGS-50" value="" style="shape=umlActor;verticalLabelPosition=bottom;verticalAlign=top;html=1;outlineConnect=0;fillColor=#B8E0FF;" vertex="1" parent="1">
          <mxGeometry x="171" y="-2221.13" width="30" height="60" as="geometry" />
        </mxCell>
        <mxCell id="jUa_gXz1qckVO_bWwLGS-51" style="edgeStyle=orthogonalEdgeStyle;rounded=0;orthogonalLoop=1;jettySize=auto;html=1;entryX=0.066;entryY=0.5;entryDx=0;entryDy=0;entryPerimeter=0;" edge="1" parent="1" source="jUa_gXz1qckVO_bWwLGS-52" target="jUa_gXz1qckVO_bWwLGS-60">
          <mxGeometry relative="1" as="geometry" />
        </mxCell>
        <mxCell id="jUa_gXz1qckVO_bWwLGS-52" value="" style="rounded=0;whiteSpace=wrap;html=1;dashed=1;fillColor=#B8E0FF;" vertex="1" parent="1">
          <mxGeometry x="101.25" y="-2071.13" width="172" height="110" as="geometry" />
        </mxCell>
        <mxCell id="jUa_gXz1qckVO_bWwLGS-53" value="Usuario en Asia" style="text;html=1;strokeColor=none;fillColor=none;align=center;verticalAlign=middle;whiteSpace=wrap;rounded=0;dashed=1;" vertex="1" parent="1">
          <mxGeometry x="103.25" y="-1991.13" width="170" height="30" as="geometry" />
        </mxCell>
        <mxCell id="jUa_gXz1qckVO_bWwLGS-54" value="" style="shape=umlActor;verticalLabelPosition=bottom;verticalAlign=top;html=1;outlineConnect=0;fillColor=#B8E0FF;" vertex="1" parent="1">
          <mxGeometry x="171" y="-2061.13" width="30" height="60" as="geometry" />
        </mxCell>
        <mxCell id="jUa_gXz1qckVO_bWwLGS-55" style="edgeStyle=orthogonalEdgeStyle;rounded=0;orthogonalLoop=1;jettySize=auto;html=1;exitX=1;exitY=0.5;exitDx=0;exitDy=0;entryX=0.457;entryY=0.956;entryDx=0;entryDy=0;entryPerimeter=0;" edge="1" parent="1" source="jUa_gXz1qckVO_bWwLGS-56" target="jUa_gXz1qckVO_bWwLGS-60">
          <mxGeometry relative="1" as="geometry" />
        </mxCell>
        <mxCell id="jUa_gXz1qckVO_bWwLGS-56" value="" style="rounded=0;whiteSpace=wrap;html=1;dashed=1;fillColor=#B8E0FF;" vertex="1" parent="1">
          <mxGeometry x="100" y="-1911.13" width="172" height="110" as="geometry" />
        </mxCell>
        <mxCell id="jUa_gXz1qckVO_bWwLGS-57" value="Usuario en Europa" style="text;html=1;strokeColor=none;fillColor=none;align=center;verticalAlign=middle;whiteSpace=wrap;rounded=0;dashed=1;" vertex="1" parent="1">
          <mxGeometry x="102" y="-1831.13" width="170" height="30" as="geometry" />
        </mxCell>
        <mxCell id="jUa_gXz1qckVO_bWwLGS-58" value="" style="shape=umlActor;verticalLabelPosition=bottom;verticalAlign=top;html=1;outlineConnect=0;fillColor=#B8E0FF;" vertex="1" parent="1">
          <mxGeometry x="169.75" y="-1901.13" width="30" height="60" as="geometry" />
        </mxCell>
        <mxCell id="jUa_gXz1qckVO_bWwLGS-59" style="edgeStyle=orthogonalEdgeStyle;rounded=0;orthogonalLoop=1;jettySize=auto;html=1;" edge="1" parent="1" source="jUa_gXz1qckVO_bWwLGS-60" target="jUa_gXz1qckVO_bWwLGS-62">
          <mxGeometry relative="1" as="geometry" />
        </mxCell>
        <mxCell id="jUa_gXz1qckVO_bWwLGS-60" value="INTERNET" style="ellipse;shape=cloud;whiteSpace=wrap;html=1;fillColor=#B8E0FF;" vertex="1" parent="1">
          <mxGeometry x="333.25" y="-2064.88" width="165" height="97.5" as="geometry" />
        </mxCell>
        <mxCell id="jUa_gXz1qckVO_bWwLGS-61" value="" style="rounded=0;whiteSpace=wrap;html=1;dashed=1;fillColor=#FFFFFF;" vertex="1" parent="1">
          <mxGeometry x="615.75" y="-2230" width="284.25" height="470" as="geometry" />
        </mxCell>
        <mxCell id="jUa_gXz1qckVO_bWwLGS-62" value="" style="outlineConnect=0;dashed=0;verticalLabelPosition=bottom;verticalAlign=top;align=center;html=1;shape=mxgraph.aws3.route_53;fillColor=#F58536;gradientColor=none;" vertex="1" parent="1">
          <mxGeometry x="575.75" y="-2061.13" width="70.5" height="85.5" as="geometry" />
        </mxCell>
        <mxCell id="jUa_gXz1qckVO_bWwLGS-63" value="" style="rounded=0;whiteSpace=wrap;html=1;dashed=1;fillColor=#B8E0FF;" vertex="1" parent="1">
          <mxGeometry x="653.25" y="-2211.13" width="216.75" height="130" as="geometry" />
        </mxCell>
        <mxCell id="jUa_gXz1qckVO_bWwLGS-64" style="edgeStyle=orthogonalEdgeStyle;rounded=0;orthogonalLoop=1;jettySize=auto;html=1;exitX=1;exitY=0.5;exitDx=0;exitDy=0;exitPerimeter=0;entryX=0;entryY=0.5;entryDx=0;entryDy=0;entryPerimeter=0;" edge="1" parent="1" source="jUa_gXz1qckVO_bWwLGS-65" target="jUa_gXz1qckVO_bWwLGS-66">
          <mxGeometry relative="1" as="geometry" />
        </mxCell>
        <mxCell id="jUa_gXz1qckVO_bWwLGS-65" value="" style="sketch=0;points=[[0,0,0],[0.25,0,0],[0.5,0,0],[0.75,0,0],[1,0,0],[0,1,0],[0.25,1,0],[0.5,1,0],[0.75,1,0],[1,1,0],[0,0.25,0],[0,0.5,0],[0,0.75,0],[1,0.25,0],[1,0.5,0],[1,0.75,0]];outlineConnect=0;fontColor=#232F3E;gradientColor=#F78E04;gradientDirection=north;fillColor=#D05C17;strokeColor=#ffffff;dashed=0;verticalLabelPosition=bottom;verticalAlign=top;align=center;html=1;fontSize=12;fontStyle=0;aspect=fixed;shape=mxgraph.aws4.resourceIcon;resIcon=mxgraph.aws4.elastic_load_balancing;" vertex="1" parent="1">
          <mxGeometry x="665.75" y="-2183.75" width="55.25" height="55.25" as="geometry" />
        </mxCell>
        <mxCell id="jUa_gXz1qckVO_bWwLGS-66" value="" style="outlineConnect=0;dashed=0;verticalLabelPosition=bottom;verticalAlign=top;align=center;html=1;shape=mxgraph.aws3.instances;fillColor=#F58534;gradientColor=none;" vertex="1" parent="1">
          <mxGeometry x="773.25" y="-2191.5" width="60" height="63" as="geometry" />
        </mxCell>
        <mxCell id="jUa_gXz1qckVO_bWwLGS-67" value="Servicios" style="text;html=1;strokeColor=none;fillColor=none;align=center;verticalAlign=middle;whiteSpace=wrap;rounded=0;" vertex="1" parent="1">
          <mxGeometry x="783.25" y="-2131.13" width="60" height="30" as="geometry" />
        </mxCell>
        <mxCell id="jUa_gXz1qckVO_bWwLGS-68" value="América" style="text;html=1;strokeColor=none;fillColor=none;align=center;verticalAlign=middle;whiteSpace=wrap;rounded=0;" vertex="1" parent="1">
          <mxGeometry x="728.25" y="-2108.63" width="60" height="30" as="geometry" />
        </mxCell>
        <mxCell id="jUa_gXz1qckVO_bWwLGS-69" value="" style="rounded=0;whiteSpace=wrap;html=1;dashed=1;fillColor=#B8E0FF;" vertex="1" parent="1">
          <mxGeometry x="655.75" y="-2061.13" width="210" height="130" as="geometry" />
        </mxCell>
        <mxCell id="jUa_gXz1qckVO_bWwLGS-70" style="edgeStyle=orthogonalEdgeStyle;rounded=0;orthogonalLoop=1;jettySize=auto;html=1;exitX=1;exitY=0.5;exitDx=0;exitDy=0;exitPerimeter=0;entryX=0;entryY=0.5;entryDx=0;entryDy=0;entryPerimeter=0;" edge="1" parent="1" source="jUa_gXz1qckVO_bWwLGS-71" target="jUa_gXz1qckVO_bWwLGS-72">
          <mxGeometry relative="1" as="geometry" />
        </mxCell>
        <mxCell id="jUa_gXz1qckVO_bWwLGS-71" value="" style="sketch=0;points=[[0,0,0],[0.25,0,0],[0.5,0,0],[0.75,0,0],[1,0,0],[0,1,0],[0.25,1,0],[0.5,1,0],[0.75,1,0],[1,1,0],[0,0.25,0],[0,0.5,0],[0,0.75,0],[1,0.25,0],[1,0.5,0],[1,0.75,0]];outlineConnect=0;fontColor=#232F3E;gradientColor=#F78E04;gradientDirection=north;fillColor=#D05C17;strokeColor=#ffffff;dashed=0;verticalLabelPosition=bottom;verticalAlign=top;align=center;html=1;fontSize=12;fontStyle=0;aspect=fixed;shape=mxgraph.aws4.resourceIcon;resIcon=mxgraph.aws4.elastic_load_balancing;" vertex="1" parent="1">
          <mxGeometry x="668.25" y="-2033.75" width="55.25" height="55.25" as="geometry" />
        </mxCell>
        <mxCell id="jUa_gXz1qckVO_bWwLGS-72" value="" style="outlineConnect=0;dashed=0;verticalLabelPosition=bottom;verticalAlign=top;align=center;html=1;shape=mxgraph.aws3.instances;fillColor=#F58534;gradientColor=none;" vertex="1" parent="1">
          <mxGeometry x="775.75" y="-2041.5" width="60" height="63" as="geometry" />
        </mxCell>
        <mxCell id="jUa_gXz1qckVO_bWwLGS-73" value="Servicios" style="text;html=1;strokeColor=none;fillColor=none;align=center;verticalAlign=middle;whiteSpace=wrap;rounded=0;" vertex="1" parent="1">
          <mxGeometry x="785.75" y="-1981.13" width="60" height="30" as="geometry" />
        </mxCell>
        <mxCell id="jUa_gXz1qckVO_bWwLGS-74" value="Asia" style="text;html=1;strokeColor=none;fillColor=none;align=center;verticalAlign=middle;whiteSpace=wrap;rounded=0;" vertex="1" parent="1">
          <mxGeometry x="653.25" y="-1958.63" width="210" height="30" as="geometry" />
        </mxCell>
        <mxCell id="jUa_gXz1qckVO_bWwLGS-75" value="" style="rounded=0;whiteSpace=wrap;html=1;dashed=1;fillColor=#B8E0FF;" vertex="1" parent="1">
          <mxGeometry x="655.75" y="-1911.13" width="210" height="130" as="geometry" />
        </mxCell>
        <mxCell id="jUa_gXz1qckVO_bWwLGS-76" style="edgeStyle=orthogonalEdgeStyle;rounded=0;orthogonalLoop=1;jettySize=auto;html=1;exitX=1;exitY=0.5;exitDx=0;exitDy=0;exitPerimeter=0;entryX=0;entryY=0.5;entryDx=0;entryDy=0;entryPerimeter=0;" edge="1" parent="1" source="jUa_gXz1qckVO_bWwLGS-77" target="jUa_gXz1qckVO_bWwLGS-78">
          <mxGeometry relative="1" as="geometry" />
        </mxCell>
        <mxCell id="jUa_gXz1qckVO_bWwLGS-77" value="" style="sketch=0;points=[[0,0,0],[0.25,0,0],[0.5,0,0],[0.75,0,0],[1,0,0],[0,1,0],[0.25,1,0],[0.5,1,0],[0.75,1,0],[1,1,0],[0,0.25,0],[0,0.5,0],[0,0.75,0],[1,0.25,0],[1,0.5,0],[1,0.75,0]];outlineConnect=0;fontColor=#232F3E;gradientColor=#F78E04;gradientDirection=north;fillColor=#D05C17;strokeColor=#ffffff;dashed=0;verticalLabelPosition=bottom;verticalAlign=top;align=center;html=1;fontSize=12;fontStyle=0;aspect=fixed;shape=mxgraph.aws4.resourceIcon;resIcon=mxgraph.aws4.elastic_load_balancing;" vertex="1" parent="1">
          <mxGeometry x="668.25" y="-1883.75" width="55.25" height="55.25" as="geometry" />
        </mxCell>
        <mxCell id="jUa_gXz1qckVO_bWwLGS-78" value="" style="outlineConnect=0;dashed=0;verticalLabelPosition=bottom;verticalAlign=top;align=center;html=1;shape=mxgraph.aws3.instances;fillColor=#F58534;gradientColor=none;" vertex="1" parent="1">
          <mxGeometry x="775.75" y="-1891.5" width="60" height="63" as="geometry" />
        </mxCell>
        <mxCell id="jUa_gXz1qckVO_bWwLGS-79" value="Servicios" style="text;html=1;strokeColor=none;fillColor=none;align=center;verticalAlign=middle;whiteSpace=wrap;rounded=0;" vertex="1" parent="1">
          <mxGeometry x="785.75" y="-1831.13" width="60" height="30" as="geometry" />
        </mxCell>
        <mxCell id="jUa_gXz1qckVO_bWwLGS-80" value="Europa" style="text;html=1;strokeColor=none;fillColor=none;align=center;verticalAlign=middle;whiteSpace=wrap;rounded=0;" vertex="1" parent="1">
          <mxGeometry x="653.25" y="-1808.63" width="210" height="30" as="geometry" />
        </mxCell>
        <mxCell id="jUa_gXz1qckVO_bWwLGS-87" style="edgeStyle=orthogonalEdgeStyle;rounded=0;orthogonalLoop=1;jettySize=auto;html=1;" edge="1" parent="1" source="jUa_gXz1qckVO_bWwLGS-81" target="jUa_gXz1qckVO_bWwLGS-86">
          <mxGeometry relative="1" as="geometry" />
        </mxCell>
        <mxCell id="jUa_gXz1qckVO_bWwLGS-81" value="" style="outlineConnect=0;dashed=0;verticalLabelPosition=bottom;verticalAlign=top;align=center;html=1;shape=mxgraph.aws3.route_53;fillColor=#F58536;gradientColor=none;" vertex="1" parent="1">
          <mxGeometry x="370" y="-1191.62" width="70.5" height="85.5" as="geometry" />
        </mxCell>
        <mxCell id="jUa_gXz1qckVO_bWwLGS-85" style="edgeStyle=orthogonalEdgeStyle;rounded=0;orthogonalLoop=1;jettySize=auto;html=1;exitX=1;exitY=0.5;exitDx=0;exitDy=0;" edge="1" parent="1" source="jUa_gXz1qckVO_bWwLGS-82" target="jUa_gXz1qckVO_bWwLGS-81">
          <mxGeometry relative="1" as="geometry" />
        </mxCell>
        <mxCell id="jUa_gXz1qckVO_bWwLGS-82" value="" style="rounded=0;whiteSpace=wrap;html=1;dashed=1;fillColor=#B8E0FF;" vertex="1" parent="1">
          <mxGeometry x="91.5" y="-1203.87" width="172" height="110" as="geometry" />
        </mxCell>
        <mxCell id="jUa_gXz1qckVO_bWwLGS-83" value="Usuario de América" style="text;html=1;strokeColor=none;fillColor=none;align=center;verticalAlign=middle;whiteSpace=wrap;rounded=0;dashed=1;" vertex="1" parent="1">
          <mxGeometry x="93.5" y="-1123.87" width="170" height="30" as="geometry" />
        </mxCell>
        <mxCell id="jUa_gXz1qckVO_bWwLGS-84" value="" style="shape=umlActor;verticalLabelPosition=bottom;verticalAlign=top;html=1;outlineConnect=0;fillColor=#B8E0FF;" vertex="1" parent="1">
          <mxGeometry x="161.25" y="-1193.87" width="30" height="60" as="geometry" />
        </mxCell>
        <mxCell id="jUa_gXz1qckVO_bWwLGS-88" value="" style="shape=image;html=1;verticalAlign=top;verticalLabelPosition=bottom;labelBackgroundColor=#ffffff;imageAspect=0;aspect=fixed;image=https://cdn0.iconfinder.com/data/icons/font-awesome-brands-vol-2/576/unity-128.png;dashed=1;strokeColor=#FFB366;strokeWidth=6;" vertex="1" parent="1">
          <mxGeometry x="614" y="-1318.87" width="110" height="110" as="geometry" />
        </mxCell>
        <mxCell id="jUa_gXz1qckVO_bWwLGS-89" value="" style="shape=image;verticalLabelPosition=bottom;labelBackgroundColor=#ffffff;verticalAlign=top;aspect=fixed;imageAspect=0;image=https://www.fixedbuffer.com/wp-content/uploads/2019/06/reflexion.png;" vertex="1" parent="1">
          <mxGeometry x="629" y="-1178.87" width="80" height="80" as="geometry" />
        </mxCell>
        <mxCell id="jUa_gXz1qckVO_bWwLGS-90" value="" style="sketch=0;points=[[0,0,0],[0.25,0,0],[0.5,0,0],[0.75,0,0],[1,0,0],[0,1,0],[0.25,1,0],[0.5,1,0],[0.75,1,0],[1,1,0],[0,0.25,0],[0,0.5,0],[0,0.75,0],[1,0.25,0],[1,0.5,0],[1,0.75,0]];outlineConnect=0;fontColor=#232F3E;gradientColor=#F78E04;gradientDirection=north;fillColor=#D05C17;strokeColor=#ffffff;dashed=0;verticalLabelPosition=bottom;verticalAlign=top;align=center;html=1;fontSize=12;fontStyle=0;aspect=fixed;shape=mxgraph.aws4.resourceIcon;resIcon=mxgraph.aws4.auto_scaling2;" vertex="1" parent="1">
          <mxGeometry x="624" y="-1068.87" width="90" height="90" as="geometry" />
        </mxCell>
        <mxCell id="jUa_gXz1qckVO_bWwLGS-91" value="&lt;font style=&quot;font-size: 18px&quot;&gt;&lt;b&gt;Front&lt;/b&gt;&lt;/font&gt;" style="text;html=1;strokeColor=none;fillColor=none;align=center;verticalAlign=middle;whiteSpace=wrap;rounded=0;dashed=1;" vertex="1" parent="1">
          <mxGeometry x="571.5" y="-1348.87" width="200" height="30" as="geometry" />
        </mxCell>
        <mxCell id="jUa_gXz1qckVO_bWwLGS-92" value="Auto - Scaling" style="text;html=1;strokeColor=none;fillColor=none;align=center;verticalAlign=middle;whiteSpace=wrap;rounded=0;dashed=1;fontSize=18;" vertex="1" parent="1">
          <mxGeometry x="601.5" y="-968.8699999999999" width="140" height="30" as="geometry" />
        </mxCell>
        <mxCell id="jUa_gXz1qckVO_bWwLGS-96" style="edgeStyle=orthogonalEdgeStyle;rounded=0;orthogonalLoop=1;jettySize=auto;html=1;entryX=0;entryY=0.5;entryDx=0;entryDy=0;fontSize=18;" edge="1" parent="1" source="jUa_gXz1qckVO_bWwLGS-93" target="jUa_gXz1qckVO_bWwLGS-95">
          <mxGeometry relative="1" as="geometry" />
        </mxCell>
        <mxCell id="jUa_gXz1qckVO_bWwLGS-93" value="" style="sketch=0;points=[[0,0,0],[0.25,0,0],[0.5,0,0],[0.75,0,0],[1,0,0],[0,1,0],[0.25,1,0],[0.5,1,0],[0.75,1,0],[1,1,0],[0,0.25,0],[0,0.5,0],[0,0.75,0],[1,0.25,0],[1,0.5,0],[1,0.75,0]];outlineConnect=0;fontColor=#232F3E;gradientColor=#F78E04;gradientDirection=north;fillColor=#D05C17;strokeColor=#ffffff;dashed=0;verticalLabelPosition=bottom;verticalAlign=top;align=center;html=1;fontSize=12;fontStyle=0;aspect=fixed;shape=mxgraph.aws4.resourceIcon;resIcon=mxgraph.aws4.elastic_load_balancing;" vertex="1" parent="1">
          <mxGeometry x="831.5" y="-1194" width="90.25" height="90.25" as="geometry" />
        </mxCell>
        <mxCell id="jUa_gXz1qckVO_bWwLGS-95" value="" style="rounded=0;whiteSpace=wrap;html=1;dashed=1;fillColor=#FFFFFF;" vertex="1" parent="1">
          <mxGeometry x="961.5" y="-1446.37" width="450" height="595" as="geometry" />
        </mxCell>
        <mxCell id="jUa_gXz1qckVO_bWwLGS-97" value="" style="sketch=0;points=[[0,0,0],[0.25,0,0],[0.5,0,0],[0.75,0,0],[1,0,0],[0,1,0],[0.25,1,0],[0.5,1,0],[0.75,1,0],[1,1,0],[0,0.25,0],[0,0.5,0],[0,0.75,0],[1,0.25,0],[1,0.5,0],[1,0.75,0]];outlineConnect=0;fontColor=#232F3E;gradientColor=#F78E04;gradientDirection=north;fillColor=#D05C17;strokeColor=#ffffff;dashed=0;verticalLabelPosition=bottom;verticalAlign=top;align=center;html=1;fontSize=12;fontStyle=0;aspect=fixed;shape=mxgraph.aws4.resourceIcon;resIcon=mxgraph.aws4.fargate;" vertex="1" parent="1">
          <mxGeometry x="921.75" y="-1446.37" width="78" height="78" as="geometry" />
        </mxCell>
        <mxCell id="jUa_gXz1qckVO_bWwLGS-98" value="&lt;font style=&quot;font-size: 18px&quot;&gt;&lt;b&gt;AWS Fargate&lt;/b&gt;&lt;/font&gt;" style="text;html=1;strokeColor=none;fillColor=none;align=center;verticalAlign=middle;whiteSpace=wrap;rounded=0;dashed=1;" vertex="1" parent="1">
          <mxGeometry x="897.75" y="-1476.37" width="126" height="30" as="geometry" />
        </mxCell>
        <mxCell id="jUa_gXz1qckVO_bWwLGS-99" value="&lt;font style=&quot;font-size: 18px&quot;&gt;&lt;b&gt;ELB&lt;/b&gt;&lt;/font&gt;" style="text;html=1;strokeColor=none;fillColor=none;align=center;verticalAlign=middle;whiteSpace=wrap;rounded=0;dashed=1;" vertex="1" parent="1">
          <mxGeometry x="837.56" y="-1093.87" width="78.12" height="30" as="geometry" />
        </mxCell>
        <mxCell id="jUa_gXz1qckVO_bWwLGS-115" style="edgeStyle=orthogonalEdgeStyle;rounded=0;orthogonalLoop=1;jettySize=auto;html=1;exitX=1;exitY=0.5;exitDx=0;exitDy=0;fontSize=18;" edge="1" parent="1" source="jUa_gXz1qckVO_bWwLGS-100" target="jUa_gXz1qckVO_bWwLGS-114">
          <mxGeometry relative="1" as="geometry" />
        </mxCell>
        <mxCell id="jUa_gXz1qckVO_bWwLGS-100" value="" style="rounded=0;whiteSpace=wrap;html=1;dashed=1;fillColor=#FFFFFF;" vertex="1" parent="1">
          <mxGeometry x="1036" y="-1396.37" width="315.5" height="217.5" as="geometry" />
        </mxCell>
        <mxCell id="jUa_gXz1qckVO_bWwLGS-116" style="edgeStyle=orthogonalEdgeStyle;rounded=0;orthogonalLoop=1;jettySize=auto;html=1;exitX=1;exitY=0.5;exitDx=0;exitDy=0;entryX=0.5;entryY=1;entryDx=0;entryDy=0;entryPerimeter=0;fontSize=18;" edge="1" parent="1" source="jUa_gXz1qckVO_bWwLGS-101" target="jUa_gXz1qckVO_bWwLGS-114">
          <mxGeometry relative="1" as="geometry" />
        </mxCell>
        <mxCell id="jUa_gXz1qckVO_bWwLGS-101" value="" style="rounded=0;whiteSpace=wrap;html=1;dashed=1;fillColor=#FFFFFF;" vertex="1" parent="1">
          <mxGeometry x="1036" y="-1108.87" width="315.5" height="217.5" as="geometry" />
        </mxCell>
        <mxCell id="jUa_gXz1qckVO_bWwLGS-102" value="" style="outlineConnect=0;dashed=0;verticalLabelPosition=bottom;verticalAlign=top;align=center;html=1;shape=mxgraph.aws3.ecs;fillColor=#F58534;gradientColor=none;fontSize=18;strokeColor=#FFB366;strokeWidth=6;" vertex="1" parent="1">
          <mxGeometry x="1023.75" y="-1416.37" width="72" height="67.5" as="geometry" />
        </mxCell>
        <mxCell id="jUa_gXz1qckVO_bWwLGS-103" value="" style="outlineConnect=0;dashed=0;verticalLabelPosition=bottom;verticalAlign=top;align=center;html=1;shape=mxgraph.aws3.ecs;fillColor=#F58534;gradientColor=none;fontSize=18;strokeColor=#FFB366;strokeWidth=6;" vertex="1" parent="1">
          <mxGeometry x="1022" y="-1142.62" width="72" height="67.5" as="geometry" />
        </mxCell>
        <mxCell id="jUa_gXz1qckVO_bWwLGS-104" value="&lt;font style=&quot;font-size: 18px&quot;&gt;&lt;b&gt;AWS ECS&lt;/b&gt;&lt;/font&gt;" style="text;html=1;strokeColor=none;fillColor=none;align=center;verticalAlign=middle;whiteSpace=wrap;rounded=0;dashed=1;" vertex="1" parent="1">
          <mxGeometry x="996.75" y="-1446.37" width="126" height="30" as="geometry" />
        </mxCell>
        <mxCell id="jUa_gXz1qckVO_bWwLGS-105" value="&lt;font style=&quot;font-size: 18px&quot;&gt;&lt;b&gt;AWS ECS&lt;/b&gt;&lt;/font&gt;" style="text;html=1;strokeColor=none;fillColor=none;align=center;verticalAlign=middle;whiteSpace=wrap;rounded=0;dashed=1;" vertex="1" parent="1">
          <mxGeometry x="996.75" y="-1172.62" width="126" height="30" as="geometry" />
        </mxCell>
        <mxCell id="jUa_gXz1qckVO_bWwLGS-106" value="" style="outlineConnect=0;dashed=0;verticalLabelPosition=bottom;verticalAlign=top;align=center;html=1;shape=mxgraph.aws3.instances;fillColor=#F58534;gradientColor=none;" vertex="1" parent="1">
          <mxGeometry x="1111.5" y="-1350.12" width="70" height="81.25" as="geometry" />
        </mxCell>
        <mxCell id="jUa_gXz1qckVO_bWwLGS-107" value="" style="outlineConnect=0;dashed=0;verticalLabelPosition=bottom;verticalAlign=top;align=center;html=1;shape=mxgraph.aws3.instances;fillColor=#F58534;gradientColor=none;" vertex="1" parent="1">
          <mxGeometry x="1111.5" y="-1063.87" width="80" height="95" as="geometry" />
        </mxCell>
        <mxCell id="jUa_gXz1qckVO_bWwLGS-108" value="&lt;font style=&quot;font-size: 18px&quot;&gt;&lt;b&gt;Instancias EC2&lt;/b&gt;&lt;/font&gt;" style="text;html=1;strokeColor=none;fillColor=none;align=center;verticalAlign=middle;whiteSpace=wrap;rounded=0;dashed=1;" vertex="1" parent="1">
          <mxGeometry x="1081.63" y="-1257.12" width="154.25" height="30" as="geometry" />
        </mxCell>
        <mxCell id="jUa_gXz1qckVO_bWwLGS-109" value="&lt;font style=&quot;font-size: 18px&quot;&gt;&lt;b&gt;Instancias EC2&lt;/b&gt;&lt;/font&gt;" style="text;html=1;strokeColor=none;fillColor=none;align=center;verticalAlign=middle;whiteSpace=wrap;rounded=0;dashed=1;" vertex="1" parent="1">
          <mxGeometry x="1081.63" y="-963.87" width="136.63" height="30" as="geometry" />
        </mxCell>
        <mxCell id="jUa_gXz1qckVO_bWwLGS-110" value="" style="sketch=0;points=[[0,0,0],[0.25,0,0],[0.5,0,0],[0.75,0,0],[1,0,0],[0,1,0],[0.25,1,0],[0.5,1,0],[0.75,1,0],[1,1,0],[0,0.25,0],[0,0.5,0],[0,0.75,0],[1,0.25,0],[1,0.5,0],[1,0.75,0]];outlineConnect=0;fontColor=#232F3E;gradientColor=#F78E04;gradientDirection=north;fillColor=#D05C17;strokeColor=#ffffff;dashed=0;verticalLabelPosition=bottom;verticalAlign=top;align=center;html=1;fontSize=12;fontStyle=0;aspect=fixed;shape=mxgraph.aws4.resourceIcon;resIcon=mxgraph.aws4.auto_scaling2;" vertex="1" parent="1">
          <mxGeometry x="1239.13" y="-1272.62" width="65" height="65" as="geometry" />
        </mxCell>
        <mxCell id="jUa_gXz1qckVO_bWwLGS-111" value="Auto - Scaling" style="text;html=1;strokeColor=none;fillColor=none;align=center;verticalAlign=middle;whiteSpace=wrap;rounded=0;dashed=1;fontSize=18;" vertex="1" parent="1">
          <mxGeometry x="1201.63" y="-1208.87" width="140" height="30" as="geometry" />
        </mxCell>
        <mxCell id="jUa_gXz1qckVO_bWwLGS-112" value="" style="sketch=0;points=[[0,0,0],[0.25,0,0],[0.5,0,0],[0.75,0,0],[1,0,0],[0,1,0],[0.25,1,0],[0.5,1,0],[0.75,1,0],[1,1,0],[0,0.25,0],[0,0.5,0],[0,0.75,0],[1,0.25,0],[1,0.5,0],[1,0.75,0]];outlineConnect=0;fontColor=#232F3E;gradientColor=#F78E04;gradientDirection=north;fillColor=#D05C17;strokeColor=#ffffff;dashed=0;verticalLabelPosition=bottom;verticalAlign=top;align=center;html=1;fontSize=12;fontStyle=0;aspect=fixed;shape=mxgraph.aws4.resourceIcon;resIcon=mxgraph.aws4.auto_scaling2;" vertex="1" parent="1">
          <mxGeometry x="1239.13" y="-985.1199999999999" width="65" height="65" as="geometry" />
        </mxCell>
        <mxCell id="jUa_gXz1qckVO_bWwLGS-113" value="Auto - Scaling" style="text;html=1;strokeColor=none;fillColor=none;align=center;verticalAlign=middle;whiteSpace=wrap;rounded=0;dashed=1;fontSize=18;" vertex="1" parent="1">
          <mxGeometry x="1201.63" y="-921.3699999999999" width="140" height="30" as="geometry" />
        </mxCell>
        <mxCell id="jUa_gXz1qckVO_bWwLGS-123" style="edgeStyle=orthogonalEdgeStyle;rounded=0;orthogonalLoop=1;jettySize=auto;html=1;exitX=1;exitY=0.5;exitDx=0;exitDy=0;exitPerimeter=0;fontSize=18;" edge="1" parent="1" source="jUa_gXz1qckVO_bWwLGS-114" target="jUa_gXz1qckVO_bWwLGS-121">
          <mxGeometry relative="1" as="geometry" />
        </mxCell>
        <mxCell id="jUa_gXz1qckVO_bWwLGS-114" value="" style="sketch=0;points=[[0,0,0],[0.25,0,0],[0.5,0,0],[0.75,0,0],[1,0,0],[0,1,0],[0.25,1,0],[0.5,1,0],[0.75,1,0],[1,1,0],[0,0.25,0],[0,0.5,0],[0,0.75,0],[1,0.25,0],[1,0.5,0],[1,0.75,0]];outlineConnect=0;fontColor=#232F3E;gradientColor=#945DF2;gradientDirection=north;fillColor=#5A30B5;strokeColor=#ffffff;dashed=0;verticalLabelPosition=bottom;verticalAlign=top;align=center;html=1;fontSize=12;fontStyle=0;aspect=fixed;shape=mxgraph.aws4.resourceIcon;resIcon=mxgraph.aws4.api_gateway;rounded=0;dashPattern=1 2;" vertex="1" parent="1">
          <mxGeometry x="1491.5" y="-1177.87" width="78" height="78" as="geometry" />
        </mxCell>
        <mxCell id="jUa_gXz1qckVO_bWwLGS-117" value="Amazon API Gateway" style="text;html=1;strokeColor=none;fillColor=none;align=center;verticalAlign=middle;whiteSpace=wrap;rounded=0;dashed=1;fontSize=18;" vertex="1" parent="1">
          <mxGeometry x="1460.5" y="-1075.12" width="140" height="30" as="geometry" />
        </mxCell>
        <mxCell id="jUa_gXz1qckVO_bWwLGS-125" style="edgeStyle=orthogonalEdgeStyle;rounded=0;orthogonalLoop=1;jettySize=auto;html=1;entryX=0;entryY=0.5;entryDx=0;entryDy=0;entryPerimeter=0;fontSize=18;" edge="1" parent="1" source="jUa_gXz1qckVO_bWwLGS-121" target="jUa_gXz1qckVO_bWwLGS-124">
          <mxGeometry relative="1" as="geometry" />
        </mxCell>
        <mxCell id="jUa_gXz1qckVO_bWwLGS-144" style="edgeStyle=orthogonalEdgeStyle;rounded=0;orthogonalLoop=1;jettySize=auto;html=1;entryX=0;entryY=0.5;entryDx=0;entryDy=0;entryPerimeter=0;fontSize=18;" edge="1" parent="1" source="jUa_gXz1qckVO_bWwLGS-121" target="jUa_gXz1qckVO_bWwLGS-142">
          <mxGeometry relative="1" as="geometry">
            <Array as="points">
              <mxPoint x="1660" y="-1544" />
            </Array>
          </mxGeometry>
        </mxCell>
        <mxCell id="jUa_gXz1qckVO_bWwLGS-121" value="" style="sketch=0;outlineConnect=0;fontColor=#232F3E;gradientColor=none;fillColor=#D45B07;strokeColor=none;dashed=0;verticalLabelPosition=bottom;verticalAlign=top;align=center;html=1;fontSize=12;fontStyle=0;aspect=fixed;pointerEvents=1;shape=mxgraph.aws4.lambda_function;" vertex="1" parent="1">
          <mxGeometry x="1631.5" y="-1178.87" width="80" height="80" as="geometry" />
        </mxCell>
        <mxCell id="jUa_gXz1qckVO_bWwLGS-122" value="Lambda function" style="text;html=1;strokeColor=none;fillColor=none;align=center;verticalAlign=middle;whiteSpace=wrap;rounded=0;dashed=1;fontSize=18;" vertex="1" parent="1">
          <mxGeometry x="1629" y="-1088.87" width="90" height="30" as="geometry" />
        </mxCell>
        <mxCell id="jUa_gXz1qckVO_bWwLGS-140" style="edgeStyle=orthogonalEdgeStyle;rounded=0;orthogonalLoop=1;jettySize=auto;html=1;exitX=0.5;exitY=0;exitDx=0;exitDy=0;exitPerimeter=0;entryX=0;entryY=0.5;entryDx=0;entryDy=0;fontSize=18;" edge="1" parent="1" source="jUa_gXz1qckVO_bWwLGS-124" target="jUa_gXz1qckVO_bWwLGS-129">
          <mxGeometry relative="1" as="geometry" />
        </mxCell>
        <mxCell id="jUa_gXz1qckVO_bWwLGS-124" value="" style="sketch=0;points=[[0,0,0],[0.25,0,0],[0.5,0,0],[0.75,0,0],[1,0,0],[0,1,0],[0.25,1,0],[0.5,1,0],[0.75,1,0],[1,1,0],[0,0.25,0],[0,0.5,0],[0,0.75,0],[1,0.25,0],[1,0.5,0],[1,0.75,0]];outlineConnect=0;fontColor=#232F3E;gradientColor=#945DF2;gradientDirection=north;fillColor=#5A30B5;strokeColor=#ffffff;dashed=0;verticalLabelPosition=bottom;verticalAlign=top;align=center;html=1;fontSize=12;fontStyle=0;aspect=fixed;shape=mxgraph.aws4.resourceIcon;resIcon=mxgraph.aws4.managed_streaming_for_kafka;rounded=0;dashPattern=1 2;" vertex="1" parent="1">
          <mxGeometry x="1779.5" y="-1178.87" width="75.12" height="75.12" as="geometry" />
        </mxCell>
        <mxCell id="jUa_gXz1qckVO_bWwLGS-155" style="edgeStyle=orthogonalEdgeStyle;rounded=0;orthogonalLoop=1;jettySize=auto;html=1;exitX=0.5;exitY=1;exitDx=0;exitDy=0;entryX=0;entryY=0.5;entryDx=0;entryDy=0;fontSize=18;" edge="1" parent="1" source="jUa_gXz1qckVO_bWwLGS-126" target="jUa_gXz1qckVO_bWwLGS-153">
          <mxGeometry relative="1" as="geometry" />
        </mxCell>
        <mxCell id="jUa_gXz1qckVO_bWwLGS-126" value="Kafka" style="text;html=1;strokeColor=none;fillColor=none;align=center;verticalAlign=middle;whiteSpace=wrap;rounded=0;dashed=1;fontSize=18;" vertex="1" parent="1">
          <mxGeometry x="1772.06" y="-1088.87" width="90" height="30" as="geometry" />
        </mxCell>
        <mxCell id="jUa_gXz1qckVO_bWwLGS-133" style="edgeStyle=orthogonalEdgeStyle;rounded=0;orthogonalLoop=1;jettySize=auto;html=1;exitX=0.5;exitY=1;exitDx=0;exitDy=0;fontSize=18;" edge="1" parent="1" source="jUa_gXz1qckVO_bWwLGS-129" target="jUa_gXz1qckVO_bWwLGS-132">
          <mxGeometry relative="1" as="geometry" />
        </mxCell>
        <mxCell id="jUa_gXz1qckVO_bWwLGS-156" style="edgeStyle=orthogonalEdgeStyle;rounded=0;orthogonalLoop=1;jettySize=auto;html=1;exitX=1;exitY=0.5;exitDx=0;exitDy=0;entryX=0;entryY=0.5;entryDx=0;entryDy=0;fontSize=18;" edge="1" parent="1" source="jUa_gXz1qckVO_bWwLGS-129" target="jUa_gXz1qckVO_bWwLGS-134">
          <mxGeometry relative="1" as="geometry" />
        </mxCell>
        <UserObject label="" lucidchartObjectId="ClKtyy_eUIUr" id="jUa_gXz1qckVO_bWwLGS-129">
          <mxCell style="html=1;overflow=block;blockSpacing=1;whiteSpace=wrap;shape=image;whiteSpace=wrap;fontSize=13;spacing=3.8;strokeColor=none;strokeOpacity=100;strokeWidth=0;image=https://images.lucid.app/images/5b973628-9828-4e17-991e-5c9da4e54e64/content;imageAspect=0;" vertex="1" parent="1">
            <mxGeometry x="1989" y="-1295.12" width="135" height="106" as="geometry" />
          </mxCell>
        </UserObject>
        <mxCell id="jUa_gXz1qckVO_bWwLGS-158" style="edgeStyle=orthogonalEdgeStyle;rounded=0;orthogonalLoop=1;jettySize=auto;html=1;exitX=1;exitY=0.5;exitDx=0;exitDy=0;exitPerimeter=0;fontSize=18;" edge="1" parent="1" source="jUa_gXz1qckVO_bWwLGS-130" target="jUa_gXz1qckVO_bWwLGS-157">
          <mxGeometry relative="1" as="geometry" />
        </mxCell>
        <mxCell id="jUa_gXz1qckVO_bWwLGS-130" value="" style="sketch=0;points=[[0,0,0],[0.25,0,0],[0.5,0,0],[0.75,0,0],[1,0,0],[0,1,0],[0.25,1,0],[0.5,1,0],[0.75,1,0],[1,1,0],[0,0.25,0],[0,0.5,0],[0,0.75,0],[1,0.25,0],[1,0.5,0],[1,0.75,0]];outlineConnect=0;fontColor=#232F3E;gradientColor=#4D72F3;gradientDirection=north;fillColor=#3334B9;strokeColor=#ffffff;dashed=0;verticalLabelPosition=bottom;verticalAlign=top;align=center;html=1;fontSize=12;fontStyle=0;aspect=fixed;shape=mxgraph.aws4.resourceIcon;resIcon=mxgraph.aws4.dynamodb;rounded=0;dashPattern=1 2;" vertex="1" parent="1">
          <mxGeometry x="2157" y="-1106.12" width="78" height="78" as="geometry" />
        </mxCell>
        <mxCell id="jUa_gXz1qckVO_bWwLGS-131" style="edgeStyle=orthogonalEdgeStyle;rounded=0;orthogonalLoop=1;jettySize=auto;html=1;" edge="1" parent="1" source="jUa_gXz1qckVO_bWwLGS-132" target="jUa_gXz1qckVO_bWwLGS-130">
          <mxGeometry relative="1" as="geometry" />
        </mxCell>
        <mxCell id="jUa_gXz1qckVO_bWwLGS-132" value="" style="shape=image;verticalLabelPosition=bottom;labelBackgroundColor=#ffffff;verticalAlign=top;aspect=fixed;imageAspect=0;image=https://2.bp.blogspot.com/-Z6UOgkPfGV8/Wv4U-1xGDEI/AAAAAAAAOC0/cS502Pkq2BUU-cvQ0IuauAF2B0br6h30wCLcBGAs/s1600/screen-shot-2014-10-25-at-14-29-50.png;" vertex="1" parent="1">
          <mxGeometry x="1996.19" y="-1088.87" width="120.62" height="45" as="geometry" />
        </mxCell>
        <mxCell id="jUa_gXz1qckVO_bWwLGS-134" value="" style="shape=image;verticalLabelPosition=bottom;labelBackgroundColor=#ffffff;verticalAlign=top;aspect=fixed;imageAspect=0;image=https://upload.wikimedia.org/wikipedia/commons/thumb/f/f3/Apache_Spark_logo.svg/1200px-Apache_Spark_logo.svg.png;" vertex="1" parent="1">
          <mxGeometry x="2181.5" y="-1273.25" width="127.6" height="66.25" as="geometry" />
        </mxCell>
        <mxCell id="jUa_gXz1qckVO_bWwLGS-141" value="Dynamo DB" style="text;html=1;strokeColor=none;fillColor=none;align=center;verticalAlign=middle;whiteSpace=wrap;rounded=0;dashed=1;fontSize=18;" vertex="1" parent="1">
          <mxGeometry x="2145.75" y="-1028.12" width="100.5" height="30" as="geometry" />
        </mxCell>
        <mxCell id="jUa_gXz1qckVO_bWwLGS-142" value="" style="sketch=0;points=[[0,0,0],[0.25,0,0],[0.5,0,0],[0.75,0,0],[1,0,0],[0,1,0],[0.25,1,0],[0.5,1,0],[0.75,1,0],[1,1,0],[0,0.25,0],[0,0.5,0],[0,0.75,0],[1,0.25,0],[1,0.5,0],[1,0.75,0]];points=[[0,0,0],[0.25,0,0],[0.5,0,0],[0.75,0,0],[1,0,0],[0,1,0],[0.25,1,0],[0.5,1,0],[0.75,1,0],[1,1,0],[0,0.25,0],[0,0.5,0],[0,0.75,0],[1,0.25,0],[1,0.5,0],[1,0.75,0]];outlineConnect=0;fontColor=#232F3E;gradientColor=#F34482;gradientDirection=north;fillColor=#BC1356;strokeColor=#ffffff;dashed=0;verticalLabelPosition=bottom;verticalAlign=top;align=center;html=1;fontSize=12;fontStyle=0;aspect=fixed;shape=mxgraph.aws4.resourceIcon;resIcon=mxgraph.aws4.cloudwatch_2;" vertex="1" parent="1">
          <mxGeometry x="1949" y="-1600" width="111.13" height="111.13" as="geometry" />
        </mxCell>
        <mxCell id="jUa_gXz1qckVO_bWwLGS-143" value="Amazon Cloudwach Logs" style="text;html=1;strokeColor=none;fillColor=none;align=center;verticalAlign=middle;whiteSpace=wrap;rounded=0;dashed=1;fontSize=18;" vertex="1" parent="1">
          <mxGeometry x="1900.97" y="-1476.37" width="207.19" height="30" as="geometry" />
        </mxCell>
        <mxCell id="jUa_gXz1qckVO_bWwLGS-145" value="" style="shape=image;verticalLabelPosition=bottom;labelBackgroundColor=#ffffff;verticalAlign=top;aspect=fixed;imageAspect=0;image=data:image/png,iVBORw0KGgoAAAANSUhEUgAAAIQAAACECAYAAABRRIOnAAAAAXNSR0IArs4c6QAAAARnQU1BAACxjwv8YQUAAAAJcEhZcwAADsMAAA7DAcdvqGQAAHzKSURBVHhe3b33nxzVmbe9f8m7BhRGk3Oe6Znu6Z7QPd2T84yk0UhIQiLnHIQAIUROBpskMGCSEEGgSA4mCGxj7LW9ttdee51tHHC83+t7TlV3z2iE8dr77vO8P3w/VV1VXR3uq+5wzqlT/7Kivtec6lJWUJu05ahA6/8N6b2hdK6Cuh6nFfVJK2xIueWK+h7Wc6/D/f5Y3luTtGU1PUdoebhe3W1L0ZLKTvd6aVU3n8f+2i7UzTaWqKCa5RHq9Kryy2UsQxUE71lWmbAlFR22lOWyqoRbLq2Iu/XFtLQyzvFxO668I7uUtE+fqXPqmGPLom6/znVsWcx9hj82Nl/s03Ydc0xJu1vqvVqG2z/DdumY0mgg1rPbPln+vW1H1f8nQBQ19lpxU5r1bquNj7AuGAJYgmNCZQ2fJ20Lv5uAERDHAURpcz/nzvA+7RMYgWTcIySjIxldxpShA60AKBmrqD5lhfoOwOIhYMl+Gc+DswAItw8gAsN6I8uAMbev2J0v6bbJGDKojtH+8H3he7Nyhvfn8O/hWI7R99F3C/cdCwih8g3+t/S/BMR8I8sblLX2WUP3uG06b7slhtfxWobszvMOXv4qPxIInXdZde51YUPaBlafaRPrL7Cm7mn3vlAFNdICEGoSwZJtQLFCx+rq5Y/WsioyaLMnXWYzJ1xkFa397qr2wMgDdAQeZQEQyB/njwk9gN7XkJiwsbXnWO/EZgeFO87tkxeJuXX/ngWeQkDI4HleQcC29a6y1SdeYnUdo+5zvXHbnGfwxs7zFp+g/zUPsbyWbaiQcy/DQAIgs/JE++LeN2zdGZdYbceg+6EravAWHLdCn+tcv4yqZQBBnuQJnGep7bSKll678Krb7LZ7d9nQqpOdwQoEgwMihMHLhQknrQuEQAo3VV1WyPdrio/bHTufsZs//5i14MWWlUdtOcZb5owtQyrU8H7kvAVGX460f1lVTgUCBcMOTp9sN9/1pF2w9TarxEMurVDI8F5ExvYABDAIilACxkES5dyAU95ulS0pW7XxbLvvsb2WHj/eiuv4TmUR5x0+UxRAkQUjz/iB5m373wFC671OOrfieklL2obnTrP9b3/DNp93hdUnhgMgOMYpHwivZZzHCRCkMAcpqE1YVWvKtt10jz305H6bPv4sZ/AVGFaaB4SDIADCGTQEIScB0ZIYtwefOGT3PfScRbvGbDmGKKgkVAiIcg/EsuD4eUBkYVDeEWMbS/74ybmz7P7HDtpVN9xnleRMyyragUEgBFe+E3Bw7mMFSaAcEO18BlCUR6y6NWnrT73Q9rz4to2s2mSl9XwGQCzhHMcUt9mxGFlamEP8HwmEvISMW9Lca0Nzp9i+tz60zef/Y0Asr4lbJX/S9lvusy/uPmjT6/9xIJrjY/bQrhds5xefzwEhQ4dAVJBP4FWU1C4EYikw6OqXsZfqykbT6wDi8RwQyzHuEqDQMdkQ8YlAcB6Ol+GrmnscEHtfOWyjqzdbaV0OiBCG/0M9hAw5Hwh/vh4rbU3byLpT7cA7/xgQyjuWVXc4D3HNbTvt4d0H8BBn/gNAkE9wTDNh4uEnX7T7BUT36BFALKkgXwAGp3kJpryHh+HYMrwAWlbWZjPHn20P7nrRrr7pfqtoIPfJA8LlDg4KYFgAhINC+/EmSwUEHqKqxXuIfa++Z2OzJ+Eh+D6lrXacksr/24AIt5cQB4fmTrZ9b38VILb+94GoZx8eoirSa9fcGgLxKT1EvgIYVIKu4HVLYtR5iPseVsgYtQIMIiCU/B3nNB+IpUoonXyoOBaAjgMGxfxlSB7iAULQ1TfhIRr5LZU+ZIR5xNE8xDwgOI8HwnuI/a8JiBNdyBAQ8hBLSjlPCcnkPwsIZev/LCB8Usf7SRQLMHJBDefWku1lADE8d5Ltf+sr5BCfFgiycyeuMIDwlYg+I2HVeUBM4SHkxlU5fHogtD0EIgEQ+SEj5yGWykhczccCxBJgkJbyvqWcQ/KVhnfxivseiDYH6ReeOBgAofYN9gGOAyIvZDgvkQeDB0LHBR6irDUbMva/9r6Nr5GH8EDIQ4Re4v9IILxBZGTWnZE9EDJ8GW5vZO5EgHgfIC4HiKFPBwTb5wOBEfEQRwKh9oS/A4hQIRCdY4SMF1zIaF8AhDdaAATnX8J5l1LCSgLxCCCI79PrzgyAuNcBsfzTAME2v65jAg/xfy8QuPRa4vGiQMhDAMTazVQZ79mm87ZYXRwgZLxq3vt3AOFaJOeFjIP/FCBaAyB2fvE5gBjJhgyXQ5A8qiFsCefyULAEBmkZ51gIhIw4te50QsYBgLgHIPicowDhvY/XMWyTBEb+uSoB4vhTLnAh4/8nQHQBRA9AbAKIw1kgXAOSgHDC2LxWiRrKwXAUIOQhdpBUfvEpqox/BhB4hYefPAQQewBiOAvEcpcnYHxCzHGcK9QnASFjTa07DSD2UxrfDRCqSI4ORAjCQiCWEHqW5AGhpFJAlFBlHFfa8n8TECEM+UB0A8QJHohzAaJjMDAY7/3vANEWAnHIxetPD4T6GOa/LsSwLZ0j9tCTB7NAKGSoTUFAKCyEQBwrcfxxnwhEi02uPY2ycy9A3AUQgPV/CxArGjAYQDij/k0gdFy+tE3He2PJ5RdgQB8CMgEQas/vtvLWHhtdh4d4613bfC45RAcegj93RTXHV+FRqnmPA0Pv13mAgPMsrU3bUj5L1UaYQ6yo9SFjx233eyDUDqErHRhUQjq5dXkgoGCfpGNchxPG9UqguBXVKGSo7JSHIGSwvoIMvgBj6X3LeM+xHHscgB0HkNIStFTA6ZxqySwj5qvKoOSUm/dA7HNAVDTxOWpkIiwoJ3FAqGHKgZEXMpwEBaWkYKho47hWqxAQp15EyPgyQJxoJbVUKyXNrrpQlXFs8fzSU0b3fRzRAIg2J2/0yFH1rwKiACCc6vnDjwLEcvYtd+uCQJ1UXvIqK+QZQhiQmqELVG4KBhkZQAoxYnlrt40SMg7gITafs8Ua1HTN1SmjFXJcUXUaw0is854igFDZuqwug9LB99L5O60QIGqyHuKgzQCEDKMGpkKMV4ihirTO0sHBPifBwOetAAb3mvxgBVd3MR4n0knI2HWIpNKXnUVl7JNkcLzAsYCzhM+WlqJleIflaAX5RQFALAOIZa4NImJLuXoVMpyHuPluB8QKDL0c4y8LtAQvIDlPwT5JyeSxhCrBcGxFxANR3pIF4sDrX7Hx2c1WVgd8pQCBsVV6aum9hUAIoVCTNufhe+WAOBKCfM0HQgbPA8IbOwAiWK4AiBVcsU6sF2L8Qo5XL5zkjYUhAKNQIHDFF7FezPZKgBibO8EOvnXYTiRkNMYH2MfVyZVWxDmKOZeX1vUejAds/rP1nTAk51mB8YpqOqwOIK659R7XUjmz/kwHVxEGkvuXwnUPXb78tkJUVM25qjuspDrmKosv4iHuf/g5i7FezNVaiLEKAWEFHmQpxy3ls5eh5byvIFChoOLYAkJGAVd2QXkEKJptau0pdv9jz9nVN99lVS18F+UkHLNcx2F4tWa68JInhYnjgOE4B0Mr3gS4KlqsCu+64bSgyli9ySoagKqsBSjkjQQD7wl0DIY9VstAMvSnDRdZIBbLIXSly+Duig+B4IotBIZCt/T7ZUxndAxWXBtDcSvFI5QAhlRWn3QtdXWRJH/SZnvhS+/ZKedvseZEH7EwZmUNXWTN5Bj1lKZOeg9iezHLIrYVsSzmnDp3MTAUVUethiR1xy33clXvt1Xrzwg+N8Fnxjkvy2C9uJbj9Z5A7hxs07KEZSnfubw+jlcYsUcA4oFHnrdEcsLKiPfFFe1WXBVz71tREwsEKDoXgBRLeJgSHUtIKJGq2gGp2WbXn2YPPfG87QCI2pYE+zkX5ytChRxXyLIAD1DA9lDKM5ZVAlRVhHUEFAWVLVbXnrITz7zEDr522KbXnmjVTXwfQFE/h3svsC1Hx+GdjilpIXxo6XUsRg6BcMoLLYtB8i8r6rnaJYUDwYBCGEL53kiteyCcW9dr3HoRRhcMZRi1qjlhY6s321kXbbct2++0K3bcZVuuvtO2XXe3bb/hLrv7gV324b//kFi917bf/Hm7bPstdtnVt9mWa+6wy6/5HLozkF5/1i5jecn2O+xSdNn2z9ol226zS9Fl6Iodd9jzL7xjbx7+lt370NO2lddbr+V9Oz7r11lq/fJrbuf8edrO50msa9/lrF965c12w20P2Jfe+3d77e1/s+tv2WlXbOPzr7yV76f3sL79druUdclt28Z7patut61ueRuv0VW32MVbrrf7Htxtb777ddt78E3bdq323WpXXM1303k5Vr/h0qtudbokXxx38dVo28128ZU32cVX3WRXXn+n7XzkWfvyN75vdz3whF3J+S5l/yUcdxGfd+GVt9gZF11jI6tOwvPFgaDVQ1GsZa7zazEdQ/6hDjLpM6wDBMmfpLwAIwuIfBjyVQQQTgBR7JYeiBKAqGjssURm1O7c+Zjtf+Ww7XvpsO05+LY9u+8te+7A2/b8obftINtff+dD9r9jTx94zZ7a/6o9te91e+bAl+yZ/YG0fuBN9Ab732R/Trv3vm67n3/dnt73hj2z9w174bWv2ktvfGDPce6n9nE+tHuvX3q9nrfOPmnvq/Yk0rrbzvG7n3uV7/iWvfzmh5zva/Ys3+NpPucpfRafo897iqU+W3rqudfsafTMc6zv8etPs67lU3tecdp36Ev2Ar/34Etv2+49L9izvG/PXn4X59F5d3Os9OQevg+fv4ulk9affw29ak/sedkef/ZFe+K5l/lv3uC7fYWl3vcyx73stj+uY/i8Zw6+ZXfcv9u6B2dJNPEMxXgKgDjOeYnFYXDKA+KY4mgABImbgFBIcFXBojDMVy7eKzR0WWVTj02vO9H2Yeyn+NI3fPYLdh1X2jU33od3uIflPc5LXMnVuw3ir0JXXncH0vJz6POBtK5teJhrP7eortRyBx6FK1dXmK62LVzB+XJXP15mvrQv8BCB3HHuiueq5cq9FK9wCVfcpWgLr7V9iz5DYpt06RUs0RZ06dabnS674lbbwnsv3XoTXoJzXH6DnX/Jdrvg0h0cfyP7OF4eh/dcwvEXXX6jXSht8bpgyw05aTvn0f7zLrvOzuUc0nmX5HSulpftsPO3XOeO+cIT+23vy+/ZjDr6lIcAhJegIM84io5V93moIgFR1w8MfRhdZaKAyOUHR5MDgkSvmESyiNiu5LC8scvWnnyOPXPoDdtx6702tupEG57a5NQ/vt76x9bb0MRGG1+52QYmeD1+vNPAhLQebQikda++seOtbxTxXifWM6PrLDU8Z8lAqZG1lmZb7/DaBZqz3iH254urp2dglfX0r7SuzLR19U1bd/8MS0nr7BtY7Zbd7F+orvSUV++UdfZOOsWTk+QcvE5NWyI1Ze2JUZePdPSM83oiq7bEiJO61tupaNoCqbqJsD1Ua3zY6WivWyjXG6P9Vt+WRinUS46SJLzcjFd+z2Y3nAMQEUBQWeqhWIKXOJqOK5aApohlCEThIkDke4OFQPj9Yf4gIBJW2thpqzefZU+/8JZdd8eDNjl3mg1MbrT+iRNYbrKh6RNtdOXJALKZbRutb3yDUyZYLqbM2EavUa/0KFBwvjT7UsCRHFln3Rg6ObQWY6+z5MDao6t/LSCsse4+QbHGegbnrJtlV/9qNIurBQRg6AIGp8xK60zP5JQBGrblK8G2OPvi6ZVZJTKrLAYc7T0TTrHUpEVJUt064GhftGfS2rqBBEW6xtFYTp0IqCIJLceAQRAMoxFrjgXqGHWjutoSwEL53hwdwEvebntfet9mN57jEtalJc0YXBIQrUdVzpOgIuUQdQMAARS1fcBA2FgAhNbDEjQ/2SzCQxSqZKzrBAoB0WWzJ51rT7/0ru347IM2TILTN3kC2oQEwSbAkHdg2zjbpLFgOa5tC8S+DEqPnmC9I8Cg1xybBIruEWAY2+CWXUDRM8zrwfULdDyGD8UxqBsouvsFglcX611A0tknENDArFt29gkIr06MHCohSNiXQHHWO1A8zTrq6OV1r1+29wiIKYumZgBgBsNPWiQUMETYp/VWgGjtQp3jWUWcAAW1JibcwJ3mDq+m2Jg1tI9Qcg9ZfWTAmtoHrCU6aI2RPkLcbXiIL9vcpvMcEMtKKUsdDIJicRikRYDoo6zDQ5BHFIZtCxi/yImSErleyazUHtDlYFC7gLxDEeVbGUCs2nyOPUXmv+OzD9ngzEnWj1fIAEHflF9mgCMDJOmJzejEPG12g1G9NgXabKlxBAhJCRi0rWt0AxAABZ6jk2VC68N4jKGcktKgtB5PgAIwulFX3xxG9RIgPXiWbjyIhwP1AUgGMDKAESgRGD0OIB3yACgKDO1AEu1d7ZWedWpLrsTgMxZh2Z5aZW0S6y1A0tw95dQCEJJ/PWnNXYGAoMXBACxOHBcXFDk1CoroKGAMWxMwNMeGrCGSdrnNgRfftbUbzrQVpc22vLjRlqGlaElJk9NxxV7HBlJYOVYq0rqAcGUnhm+glGygamjstdKmtNVEh93o3vr4qNXFWI8OOdXwBWpwTzXEsJq2Pqtp77fa9j6r5Qs1dQzYprO32B4Sm2tuf9AGACItAAgRodLkE+lpDAsoqemT5gtokkdos/UAkhOQdEt4j65xYBAQSEB0DeMRQhACORCQIMhpHQbH+JLzFvIabAvFdgdLBijSAmE1IKy2DhQDiBhwtLMUCG1OGFsQpNdYhGWkd9ZaU6vRqiPUDCTNgiJPTVK3NOXU6KAAhIQ0FWjSWqQ4+wBCXkJqxD4NhJIG7FHXmiRhvcleoqo58aRzrLY+ZjUNHVZdH7eqhrjrXKtgKZWxTSOu1B9S0aTmAjy82mZqOsg9YgICD4DcUPmWPmuF5hPP225nbbnFztl6m517Bbr8Zqez0VmX35TV2VtusnMuu9HOuUSZ7g12+85dduitrzsPMbH2TBcq+ibxDoIBONLyDhKve6c/QdqPUrxHSvKeJKFG6gGGbsJFF0lmF+Gjk7DROcSVT4hYTJ1AkBUQyAM4KXTkeYWsdwg8xDwgCAVRQoEkGHISHLOBVlsbnkLD5fUftiZn5kkeIisgCL1FVl1AISAwvgwvz7DQOzR3jOcBgbhgm7hQ5SG2brvV3n3/m/b5ux+28y640s6RLtpm51y83c52utrO4vWZF11tZ6DTLtjGcrudfsHVdvqF2239qZdYfftQCAShAFVE+jHeifa5h/faE/vftV0HD9uTB9+13QeppdGTedp18B178gAlJnqG4/a88J4deP0De+fD/7Qdt5FDzJzsYr6AEBhhuPDSurYtIrxAOlAv3iBfKTyClCRsJPEMUjf5Q9cQVzeufzF1Eg5yCoy/AAgHQbBdywRAKDn0+YFygxlgyKmtdzqrdkGSyqkN40cwer5aMXgECCJdObUCgEJCqBY8gzyB8wJxDO+W4fo4xkdA0BAqhgfHkzeQR9Q2Jylnb7KvfeP79vqXvmJ7979uzzz/sj39/Cu2+zkUtL24tg2n12zX3tfssT2v2CPPvmSP7HnZPnv/k1Rvx+eA0FjF4sak1ZPhjsydYSs3XWCrT7wQXWCrNp3D61Dnem0+z1adcJ6tRqs2nmdzmy+07TfdZ6++8y278Y4v2hBgqSLox8g5UYKyXDSJnCeqEAyfwRNkMH6odChA6MUz9CqZBIZuqoxOqo1FRTWRGMTIqNNVFUocJSoO91oQKJHEKwRK8DqsGjqoImICQdWBA2CBACBfbQDgk0qAcZoiqURAME9AEAkVhAZJEDRg/HzVA8ARCoFoG7D61l7bctUt9sZbX7Orr7nNVs5utvGZDTa95iSbQhOB1HU+vuZkp4m5U/Dip9rY3Mk2Mqsc73irbE7nAUH5qBtg1FWt/oPSppSVNqespBFQiD3FjVICEXOcuty+skaOBabqlrRtPOVS2/fyV+yG2x8GCADAuK6yyOpEp34M3o/Bj64NTn0Y30ttEF4ZYEgDQxoY0sPrKDfJBTD6YjAkhgBBCoBIuCoiJw+EIBAQXoLBe4cACGDIAqF2hnw5INgeKKwuFhUQtHfmCQja8kWOEEFNhIXQ6HVZkctJQODk1qk2cPGNeIgm8jg1jR8goZ87/lRbUVJvS4vqrKCsyZY5tfjOMKdmvyz3WoKOY9txbDuGquNfsmMZAEFQCIicqCQoKwtqoyxjqAN44l6UmlIhVYZ6DivIQebwKs8eOGzX3faQjRIyBvEIaoPwngFRJTgtCkGofBA8DIIglAfBw9CLZ0iqhFwUiDwQAnUGQHQ6IIAhBCIPCucd8oEIoQAI14aABENb0qs9X874k3iFPFFFSO2EiCiGFwihBIEUrkc6CBHzgBjNQbBQeIf6tkE8RL/LIdQSeuDFd2wWIAqBYGlRvS0rCSoMSlAnNVS5cRTNdgxVxmeoQI5hv/QZ97pFQITdy+QRQTe2lwfCC6OTjUorGiRAYem2yatUd1oFFcq6zRfZc4feA4gHbXQlZecEV7rChlPY5gAYi4Lg1ZcHRD4I84EQDN47hEB0AcE8CYBQGF7ewRteIcLLQaFl3jZJieR8D+FhcEDMAwBjOgiAJPAOLjw4YWCSxFBt5AjzRXmZkMbxDOPWGh+zFiBoctXDCCHhaKLqc5XfIEkgMFDtKWSo7DxI2Tm34QwrLG+l3MQzaKj+wpZJdCzbnQSIG5vp19UZBhDBWAg1PKGw4SkHhrqfJQBBKxq8CqV6tUdofEGnlQPEWvKIPYfetx23fsFGVhKXxtWyiHEnyAeAQklmZlw5hFoqF5FyhkBqlcyXyxkCpQBCrZNha6MDAjgWSkmklBAQGD/hcgQZ3S/zQfCJ5KyDQVWFb2zyDU0xkkU1MElHhAeMHwIRwpAPQlZAkN/gJOn2wRZgaAEGgdDEld+I0RucyA8WSl5BIlTUESrqCRWuCVtl51U328GXDrt2iMJyjF8cNki1sd7u5PounNQDqk4vwcF6mbrI/WuA0OgnQaExEfn9GGqJRGqRFChqoAKMnHwD1YpgEEo5OcfazRc7IK7FQwgIDwMGnvRApAEiDRAZcosjpdbIUBusFw+RAoQUXmGhkniJHoDoUtXgpDxigdTYJCBURTgYvNTGkFA7Q14DlV47peUdZoEgV256GLyiJI1OGF8SDDmPEOgIEAIIkBqdvIAgUDNQNAFEI17BCRgaMfpCCQYHBDB4CYiM789o7fFAvOwbpgrL1C/B1V+sTi5AKIqy9Dq2RAqhQABxTAgE64GHyAERjn3IKvAckg8tocg5AKJAw9SAory51+ZOvNieIWTsuJ2y0wGBh5gEiDwPkR7bHIAhQPI0JnkgekcpLwXESK68zJeaqrtVVgZGd0AskNuX37YQKuMBOAKGTwtEAEOUMlJARARBGCoAYKFCIARCswAIQQj1KYAIYWgIYSB3EBANDoheq3NA3OSB2HimFTkPoXxBhgeARYEIlB08Izjawxzik+XGVAaavy9MSKk0mjO2BiCeBgi1VA6vImSot1JewnVWqYwEilHCxqiWvF5EaQkQepHzBgEAoeQdkkNqdcTwYVuCPEGgBK8VHuQVwvwglAeCcBHIhQmXLwRyIWI+BE6hZwiAcCEiAKGVXML3TXgg2gWCcgRCgvIEKfQOIQwuVCDfT0GocOFixMmFjHwIFsIQAKFys1FzbpBDaDTaZdtutgMvU2VsON1KqByWu34MPAVGngcAyo6eCvSZQFr/B4DwIEi6qcYDcdGRQCiPyAIhGI4OhIMBCYYQiJSapUMQAhjC/oejASEYZPwQhO5ADopFgMhCcRQgjggVeUA4GPKAcMrPFwIY8sNEax4QDoYAiE+C4UggBq0p4pPKWjyEgDiYBaIVIHz+oJHZfwuIUBqp/XcBMX97AEQtqhEQaQ/EC4ftmtu+4EKGgHCJpYBwFQRVhoPCAxECkK8sDICQFRCEOhoQWel1nkIYQiAEwafxEFkIAoWJY1YCAAkE3xIZwIB85xQwdAECauqaD8LRYJgHRABBCMInAaHxpZdu8yFjbv0ZANEGEKoqlEjGgCAMFTkds4g+NRBHKlemqvdTeURZU5oc4kJyiHdtB0C4KiMPCF9WUn66sJEHBMbP1zwYBMEgEABAqCwMeUB8okIglDeEEOQphEEg5MOQb/ysV5AwfqgcEEAQABEmkyEMzQEQyhVUTYTKhyEfiHlgBCDkgzEPiFYBkbHq5i675MobCRl5QJBQLgGG40o6AEBQzNcxi+m/B0QOBrVVqNLQ3E1lzSmAON+ePfQOQDyQBUIhw7c8zgci6xXyQDjCOwBDakADXyQ/0KUngMFd/WhRr5CnMGx0hUBgfO8Z/HqcBNKBkMzLFZzxVU6GWvjay4WMPCCyVYUDYtID0R0AIRAAwInyUiXmPBAAIB+IbDLZngMjBKJOQER8DlEfyVhVU6ddfOUNduCld2zt+jNzQBR7II7TEh0rYfijQ/Epc4j5ovx0MHgg1NytCb3KmpM2d9K59uwLbwPE/QBBeQkQORhC5QERwJAFAgikhR7CQzEfhlAud8g3fJ58ZZHzBg4GAFBPpuvNBIQ4IHQ4zTjFeiQBoEanT5ZaIgXDfCCCpaAADiWSAkLeIDviKVAWCMGQD0TwemH4yAdCA2QERF1r2gHhPcQ7tm7jWVYMEMs0LM61PcQcGA6OBUAcAcan9xD5jVdql/AwFLpmbc3uFgeIHoA4GyDesmtv3+mA0JjII4FQcnlkuFgUiDwPIRgcEIO+pHQJ5OCcxbVcBAjX9oDiAOEUhIccDAEQKULFPBj+TiBQi6AIIMhWGUFimU0kO8asFa8gyUM0y0NEZfz5ieRCGEIIsgKGxYAIPcS6jWdYcVkrQARVBlf9EspNaX7pGUqJpl/qHo1PAYRgUONV2B4RAqEm7U5CRsJ080pZU7etPfls2/OiB2JUQIzOB2IgkPKH/BAhhRDkA6FhcC5vCDyDgwF1IgcD6kBhmZkv1zKJ4nlyLZUhDIAgGEIg8mH4+4CYCoDwVYVAaE+wT2Unck3TUh4QUg6IwPgytgAIX4fb8iDIVw6IXg/EFdcDxFu2duNpVqQOLTdKSm0RVBsufHi5xipVH6oqwsap4LW7UedIABYqD4iwBTMAQh1frp/DAaFR1wLiS3bdIkA4GABBUhd2vkeY5xXyFFYULpEMYRgSDGs9DENzFtPSGXtxCLQv1j9rUWDQiCcBkIPBh4uFMPw9QLRI+UAAQRS1x6Vxa+9ALCOxPCCiHojmfA/hgPBaLEQ4AUEoD0S/1bb0uhFRAmL/S1+ytRtOscIydWw12JLSJgzdDAhqqMrJA6H7MPzNPLnb/wIPkd8aqXkliwIV56tBy5SVOPW42+yK67uspEGDbONW2dxtx596ju156U08xH0AoRJTQ+hVcvqyM/QUAkKtkGE7gzN+nnzzdNAgBRTdbgAMuYLrtPIeQkDEWUZRjLDRARAKDfICLkQAQUffakBYbW2ZVdaq4W4CoHvG5Q1Z76CqAhjma9oZ2wsjZ+W3hVVGVINcCBFKHqVWcoU2wkMbHkFSp1UEINrUeQUALRg/lGDwXmLUQ0Hy6GBwQAiQIFwEMNQCQL7qWwesIQCiqtF7CAGx7oRTySEarKCswZaX+67uZRjbyd2M7OXvVEflfrmE/f9a5PoyUlbcmAEADI3Ra9v4InyB5vYRqB6B5kHiXz8aIPZJ/U7N0T629bGeZr2X2Nlvp55/mT338lt2zW332NDKjdY3hXEnyAOoNJKUnsmJjW4IXA9AdGP07hGMHahnFABQN9LQOCk+ss5iIxh8hCt9eCUwrLRk/ypLYvBuNTsPbLD2/o3WNrCeJVDgATQ8Pol6+mZIKDHuwGqLsK8lsxYgKD+7ySG68RJJqguACIfFtfbOH/IWSVFBJMkDejBqN1d3j6QKgjI0AUxRwk/bGovGp51naO7GsMlBa+zBeN1DVs3rKiqMasCpBZb6BN4gPmRNkobO8982R6k+osDUzpL/u5n/WkPimvAYkoCQ8WswfA3hwamlz6oDab2mOW01TT128eU32H4S+s2nnG81jR1WVd/BssuqURXeu4qQXk2eJ6ndorY1ZRVczH6f7q1N2JKyIKksatQgWw7gA9TP8Lmde+zRJ1+1XU+9Zk8++7o98ezL6JU8veq37XnF3Wr22DOH0EF78a2v2OGvf5eQcZ8NA0TP0GrrHfdApAQEMCTxEBoC17MAiC5eCwIHxNh662SpKZATbjQUhhxYZSlgSGP0dHqN9fYSRjIbSRZPAIbjLTIANAIFGHoxbm96xoGhMQ6xzJy19a7FwHNc/YSO3jXW3huMheQ9Ec7ZSoLZircIFQGYSM9Ka+vWCCc8g5JGV0kQTjoJM3GgiJGLdBBqACLSTdWQ5MpN9VlVT79V9AxZJRBVd49bTeeY1SaGrS7BFZ8g/qOGOIAQRgRFSzslaRueo02DXdgXeojAMzggAgBCGKqaKTeBobq5F6N3OyDe/+B75BFv22O799uDjz5nDz+x376466Cb9+KLuw/Zo0+9aI8+7fXY0y8F9nvZvb79nicIy8cLCHICPENhfdLK+RC56etv/6Lddf+zdje654Fn7a4vPBXoabvrAekZt373g8+gp9Buu/uh3e5ezS995Vt2zS132+D0ekuPzVnv2Dqg8ED4MZHqsJoPRBfqxBsktBQI5B4do4QJQoXGOyTJA1IYLk1CmMGQmd45S6dIOHs3WlevB6J1kCu+H8/QO2l9XMmDUmrSMskpSxIiujFwJ4onMaSEd0gQRhLAEAMGjYeMOBgEBoAkAah7DSAQdjrxNJ2+aVrtDm5cJNva8A6J2LTFSRijnXjS7rQ1plJW19Nrdd0Za+jCwEDQjFfQJGu1nUPAMYhYx2PUu4YpQkk7eQWeuQUAGlF+7iAYQgjmw6AGKdSUssp6QgZAvPfV79pTe16yu3c+YXfc/ajdee8TaJfded+TdufOJ+3z9z9ln38gEOvaFu7T8EcNSv4X16aAdxAQxSyr2/qJw6vJ7te6EUmpQYwxNBtI63m3xg3zepjtw1y5o7N2ziVX24FXD9uOW+4hZ1hLeRncZkcuoe5s36XtezBDIBwMABDHGzgBRocLE77MTHN1pzNrvJxnQGm+V5pz9HKO3g2AMGftg9OEi3Hr7x62Ca7A1fzpa7lq16BVXKnTaJKrdQz3PRwftSEMMtg5av3E/RTbujC0Ess2YGlNzlpLEq/TvRZvgEdJkHskCBUa/8hxGiXdSP7QSEURjU0QPoYBo9cS8S5LdMWts7PLeuJJSxFOe6P9lmzvBx6MDRTyEtV4ixoBgZdQW0QL3sADQf4ABBoa58LFQiACEJyaMoQLAUEO0dDlgHjxtS/buRdts570pHXwezuSE4h1Low4ITDe65Xo1W2M5E78H+2Ew5jyo64xq+Lz8BABEMiNc6j1d2NpjoeyQH4uBY3l70Qkkk7BeP5azZ/QbmUNHbaB+PX8i2/jYe63kekTqDI8EGkM7ge5+MoiTBjdiGmkofQhCB0jVA7SqDzDnGUwvtRLDtCDdO9Eoh9vgldI8LqbUNCTmQGYERtLDtnxiX47E13SPWBXpoZse/+IXTM0ZtsGx+zK/jHb2jtuFwPMmW29dlIkZevbMjbTPmCDGKaH6iDWpZtsVltzas55iGgniWeCRBRvEOvUaOlpaySM1LGsAQg1OMUxel97j01EE7Ym0WEbE112ckevncr2EwkDc5r4nc+IxvAWHRi6Y9hJ91U0xQYBgtyMUNGkO7IEAutSDe+tDoGQ8bMwKFQIBtYbUw6IiwBiLznEmg1nWEGpbtChynA36qjKaHLLUOFrDaI5rrDRjllR7+7yKiaPdDmEphPSXFN6sIk8hmZ10QwupTWa+KMTQBJegiUUQBRpH1AUatINauG5zWfbcy+8Y9fdChAzapHMwZAPhCoHhYPOQN47UDUgARFC0QMQaYyeypAv9K+3jsH11sbxEZWbGjMJCCmIn8YLnBzP2GUkc3f1TdszY2vslcm19sbkrL05NWNvrUSrtFxl78yssTfZvn942h7Do9zeM2IXAMXaSL8N4767FBqoRJpShAWqjQ4Mn8A7dMpDJFRVrASIVSSKq6yKXELuP9GesrlYCtgG7N7xSXtifJXt4WJ4bmSjPTG62W7JzNo6ksZ0y5B1RIBA+QEJZCNJehPJuQbJNgJAPdtrAaJGnkEwBEBULQKEPES1bqoih6gkObx46w2278V3bG6jRkz5IXT+vs4W1qk0SlqdllJm5l5H3Pry0ogVV3HB4xT+ZbnaGTRhiGajAwrX8FQrKCgtdTNvaHy8QlFdd6CwYarLN0zpVj7KztlNZ9uzh962HQAxPLMJCPK9gwdCJab3DMAgYeAEBnYiBMUJQU4jsw4IwdDTR15BJdEGSM2AEhkmHxicsoHUiK3sGbUtZPSP4BZfJLx9jc/7Pp/7E97/s6Ep++nQqP10ZMR+MjpsPx0dsZ+NTNiPRyY5Zsa+PjFrr0zM2U6S1fMTozaFIXrwFO2EkObeMYAgNyCkxEkaEwoPGiqPl2gEinqAqAWIRrzRUISkLpGxpyZW2tszq+0bE6vtewDxvdFN9sHUKbarf7Wd2jJoww0D1t2k8EC4AIiGGDBQoTXhrTTgpQZoqgGiKoQBSKuoLAREVctCIPASDoi0yyHkIUIgVgBEbghd0P4g42s9eL20RA1Vfn051UVxDd4f+//L8voMQPRZQYOWfjidhyKYKggoNJ7SS2Mr2Y7C5ms/Kts3Xa8GiKcBYjtADAJEij9Fd2k7ERZcqJB3CIBwUDgv4dsY3EhpKpNQPf1rqRSoOgCiAyBaeV8rsHSQLwz2jthGErTLUxP2FPHw27z3J3zGR0DxMZ7jj4SGP2VG7Y99w/Zx/5D9bmDAftc/aL/n9W/7R+2XQ5P2o4k19iHV0F7C2zY8zWx0gLg/CBCjhIxhgNDt+6PWQZXQ0Um8VTN0YtyaAET5QyMhJtGWso2t3XZPcsQ+mJmzH0xO2i+Gx/msKfvt4Jz9aHKT7c9M2tlNfTZa12/djcoVxqyO8FEfy1hjNAkQSSoKvABAVBI2KgHBq88qAaISGBYCoXAhzQfiXYA4CyBkaI2uDhqhFtEStVSq9bJEUxIR+rFnSSNAFNT3A4IEFMCxPBhjGbZKutv+HQg5GHJQqLfTA1HanHQ39Dx16B27GiD6+ZN7uJp1y77Ug7Fc3gAA82FQC6QanNagWbQarUIrLUm+kCR57MoocdzgwkWU8jOdHre1XYO2nURoN17k68Dw0eCM/WFgxv5MlfFnvMafMNAfAeL3A2P268FR+wX65cCo/aZvzH4zMGG/GJq2H46vsW+s3GQHV262azJTNhcfsF6Sv3ZAaE5yJROKNKttrFPSfA4kgCSEzailU7fiD9h4U49tw/W/yPf90eQq++Uo0PX32V96B+1PfZP2MyqtQ6yfzZ89DBCdTUOECEpRcom6DqqSaA9A9Lhey2o8hwcCCEJ9AhBKKhUyKuoTbgKSfS8eBoizAUJXv5qtNXBWTdNqpl6g0qhpOqGl5Zozq9t5hxLOCxADARAeCg+En01Gg23dpGKLwJADQt3fCSttStrqzefZ0y+864Dom6IkpDLpGSbpExAA4FsccyCojUF9Ehoqr6lwugUDBu8aoEzsnwEGAbHBugEiDhAx3ZuZnrEJXPn5ZMe7B9bZh8Ob7KcDq+236SH7fXrY/pAGAiSj/3IEo49O27dHpuzf0LeHp+z7XLk/BJ4fkrR+Z/J4e3/lCfbM5Aa7DAhWdmSsK97nPIMamjS7rSb10AQf7QDQ1jUECP2EjX6LECKi7Uk7GaM8RgX0zYkN9gvC0W9G0vbHwZT9NZPGQw0DxEo72Jex0/l/+vl/Y82AECOjpxStifcSNroBotsaAKImMuqAqDgCiCNDhocBr0KVUUF+d9GWG20vQKw5wQPh7uYOgFg4MiorwNBzP1yjZGPaPRcNIDLkDv1OBVLgKQrqgx5ODvbiNRQtJ/FYrifEAEkBywItNYSOL6bb+5564bBtu/UB09wQamb21YRKTN3Gv4G8gXyAsJEADPVJ+F5LcgeA6ACION6hEyg0i0smRchJrbcYQMT6TrB43xqbxH1fgGt/ECi+xbl+PrTRfk+I+HNmEAgG7CdTo/atlZP22vg4sXvE7kz22/XJtF3dm7Ir0xlCw4jdgcEfSY7bM3zGHoB4cMPpdhZX8mAPpWfnDAafpUxcbU1ds+QLa6y5c7XpTuxmvEVDkkSwJ2MdHSkboUq5FY9ymPL4VyS8f8pM22+H+uzj4R77U3+XfTyYsf+cnrInRvpsc2uPdXE11+NNKjpG3I02unO7MYqXaAcMAcE25RCu1ASErBYCgSqd2I4RVQleuOVmPMR7AHGum41fo6g/U9Zm/0p+8JnSGOrwKukABK8l5Z14h14rxSmUkt+UNKrszAIx4KEIQwcA5I+llJZJgkEPBMkC4QfMlBHLdM/n03ypq295wI2y1j2X3eqLwHCdwwEMKM429UM47xAA0QEQMTUuAUQiAKIvtQYg1gEDUCBN4LEWd30dmf2hoVX2Y5LVXxEy/tg7Y3+h9v4Ij/DvMyvtwMgYRu+zi/ijT4xmbDaetomupI30JG2yq9c2UCKe09plW6gOriA0XDAyY7PkJakeJY4z1paYtfb4KgdCYxdgkDw2U2XoIXL1qUE8SK9lOrptE1A8TVj4D37Px1RDf6W+/90QuYoDots+HuizHwqI4X7bFOmxRGuv1RKWBERDu/owSCypMurb0w6I6ugQYcO3PYQtk9nWSQBYCESFgGDpgbiJsvM9m914LmEAIMoAorzd/rU8Zv8KEP8KDJKHIm6fKdasuuSFtRkHQykwOCD8LHTeQ7hl6CFcL6d6O4FBCoEAAMGwXCAg13ZB6BAQMwDx7EseiPTExgAItTgeT4jAKwx5GDrwDg4IwbAYEMCghpO+1Kz19q61jj68CflEiuTsJJWW6TF7d3KN/XyE3IHj/tiL0quoJObsdYx7R9eAnRPptTWtAzbSMWHdmqqHnKIFYya4uvsx5BSVwerWTlsFHKNdGUuTRMYJE+qpVP+Ebq9Tx5WfyGPSmnhdR/XRBECdnUmbicZsK4C9OzxjPx9YY3/qXU2YwEMMk8AOES76UvZHktgfT8zYM4BxIolnojVldQBRGQKBN6gHiDqAqNdQOIBQhXEEDCgEwQmv4IBQO4QDojMA4rCt3nA2QEQcEJoi+TPlUUCQQjACb4GHWFalVKAPGARE4CH8LHR9VggMktb9rHQCQle/FHqJJBIMuXAhGFR+lrfgITaHQNxvmgdKQIRd1r689DDMA6KfysKFixwQcU0KhqHVTJ3qnSNUzFkPcXqAUvB8DPckucC/zczaR8PTXIVT9oe+GRLHWfvG6Gq7v3vAzoskbZY/dgjDdnWttSY8TWVmtVX2TQPFqMVx/anEkPWSFPZQNnb0DFhbcsjaSEajVBKx+Dj5wrhFyCE0KZgqi8b4FGWm+jKGbSDWZadH2+yh/pT9gNzk9+kp+3NqiopmihA2bL8ZJqHM9KMRSt2VtjfTZye1dAFEkkSSUjI2bI1tfhaYunYMr7JTHqJ9kFIzB8QRMABCqEpgEBCVLmR0upnrnqfKWL3hTIBotWPLEJ5CYeP/KcNT5EGhEHJMWYfpGajFDR6IEqmpX03X8hAhFMDg1nNA+Lu0tAQAQZAv3b0VtEdUAMQqeQgSm6tv2QkQ5A2uevBQSAmgyPcQ8eAWu/hAHhAklCEQ6V5CBomlxjr04gHGe4Zte9+4vTI1az+YWkk2TzXRP26/GRqz/5ycslcmJmxrvNPWkqgNUxGkulZaR9ectSbnrA6gGtOzeIFZSxAG4p2rMD75Ah6gMTlpDZSvTckxl0gqiVTvZhvgtCdGLBLX5Bwcw/EJjLm2vdtuTfbYezMkr1Qvf+odtY+pfH6WGbPvD4/ar8bGgJQqB0/2s+FVdqB3wAERb+khoZQnIH8ggawngaxux9CUrnURKgdgqMar5cOQSyQXAiH14il6vYe4HA/x0mFCxlnkECSUpS1UEq0YPwIEAiKnz5BX6MnIGupQQjlc0tzvVMx64CGoKhwEwToHaqohBwJQuCfeBlA4AcMK8gjnHYKWSwGhKkMeYtvN91l6TGMZNMppDoVAAAFa6CHmAZHnIXpTeAZyiM70nPWnV9vKzgG7E4/w5em19rNxyky8xR8xwi/JGT6cHLEvDmXspHiHDRMWuig/27sxevdaYj4w4G2a8RQdeIwYamN7c/ec1festtqeGatPkjS67m28AiA0CQgS2CgwtBN2WjqmLRKbtMGWfruIRPD5wRH7r5XkDINq4xi1/wKAL3el7IOREfsZcP6e8vaPhLifjax2QJzY0mkdLd0kk/IEeIhWP3lYFR6i0k0tCBAumVzQmbXAO3gQ8gQQ5fXkEHiIvS/hITaeARDNVBdNANFCctkCBEouveQxjtGc2xQC6q5QZVFKLlLCZ3ggXENUCERQcmqbg0FGVwOUSky9FhDyGFLgHQIglAWvVsiQh7gZD+GAwKALgeD1pwaC/CHZS1IKEEPJlbahc9AeGlpp355c68LFn3uG7E9chT8fmbTDVBWfTRO2Ej3WSWhp6ZslVKy1VgEBWE14hybifFvPHK8VRtaSIK6xOoBo6PaTgkU0VSBAqP2hITWOt9CoJ8AChPYouUhkyNaTK32esPFVQsGvx6cJVcP2E4B8L5W2pyKt9trwgP1oasZ+iyf7ODNlPx1bY/sBYlNL3GJAUUuiW815mlpG8QpDVgkQFW1pgAAUYPPKAyHQPAgaKTVDNaUAAg+x9QaAeAcgTgcIjZRqsiVl8hLNPsFU1RF4jOMqolzgPQDQ68VvEhTFeCGA4OoHBsnPZisgNHoqAEIk1Wrp1+UVHAxIoUIwqHm7CsJnT9So63cB4j7LjKtlMgQiGOkEEH4s5Kf1ECSSANGTXmMj3ZN2GiHj6ZFV9oOxWXKHCfsrCeaf8BC/wDjvkkxe39Vn4ySUEaqRuoH1hIj1DoAoRo+kpq01hWGTGD41Qy4xY82sa2qfKLlBnGRSLZJRYGihLK0lBKhXM6IEMzppCa7qkZakXY7L30+u8KPRNfbbgWkMPmVfHx2z3R1Ru7W2wvaN9Nv3J6ftN/0T9jHH/Rgg9qUH7ITWDosCRS3hoaZ10BqbR622dcgqAKIcD1HD/+dDhQciC8MCEObBwBVe0ZgEiIRdsPV6e/6ltwHiNFte0WRLyxpNs/LrUQ3HKsEUDCV+XU8MLsHDl+JddIOVV8Y3TLnGJ8JGkaCYN9M9QAiA4JkT7kEkNRpyr4G1Xu4xBCyLiWHVLb0AcZ49c+ht98TdtMZBqAs7C4SH4u8BIsUVnEQ9VBFjxPXzeodt/xjlJsZXszQnJpEjZAyvtPcGV9qOWJ9NaIQTOUc9ZWobMCUJG2mSwhTeJQksWnYTerpZ9rjEcsj6yO4zqDsxaLHkoDWnh62a8zdqAG18xnVxqwt7XSRuOzHu1/j8Xw+txuCr7fvTa+xgX7/d3FhrW6qL7fmpEfvuxCRhZIIqY9r+i0R3X2bQNkZi1t4aANEyYI1NI4AxbOWctwyvoQvKdWdnQfgErxDAUOmkJwgk7LzLr8M7v2krN5xqKyoabXk5QKjXk9ChRqpjihVGNGtMG/aMu+GPuqBLGlOuQpSyQBSTTEoeCMEwHwg9nMRBcQQQeAhBUZPAdZHZ4yH2EMeuIanUDToZtVAGQIRe4u/yEMT9ZGoVYWPKxjuH7KL0oL0wNkOiNmV/yQwBRB9uedh+MThp7/dP2o62pE1TKcTckLhZjD5jk7FRmyOzXxtP2ZoY3zGSsplID2Vnj81giNVcoasjeBaWvfEM+UbGatIYo3/Y5xWcI0YO0deRtgt6u23fxLB9f3zSfk/y+3FmjtAxYzvbonZJRaldVF9uz5Fofpf9H/dN2J+pan4yOuuA2BDpyAJR2zxgTY14IQdE36JAzIMBzYMhD4gKXL+AOHfLtfbMC2/YzPpT7NiiaiCoBQbfBX5MYYOT5qT0QHRYCUAICsn1R2FH11LpOrJc2EhCS681cDX1z5xso2tOt7G5M2x87ek2zro0MeelaYulKWntaTaNVm88201YfvDV923bDZ+3NC41PUbI4EpSH4Wap9UyKSA0dL4DGPw9FQIirx1igAogO5PsSuvUPNO944SMAbskOWAvCghyhr/09ttfe9Ikb/320+Fxe3tw2i6jrBvtnrYoVUVH9xob7Zyy8wDlVrL+naP9JJ2IBPA+qpJ7RsZtJ+d5gFzkPjzMTSR/m1Mj1t2dsdoUmT75RHOCErWd8hXvp3aEB/sG7esTVBNjE/Zz3vO94fX2RUrL85rabEN1g53V0GbPAsj3OO8f+kfsL1RBPyXE7U2P4iHi1q6QESGHIKFsaRi3pqZRqyJ8FJNolrQBYiPlJomdb3QCAoFAjC+XsE05V7NUBghlDbxuyKCkldXG7fxLrrGXXn/frtx+m42v3GijqzbY2OwJNrIazWxy98mMrjrRxmc12Rh2XHuGTW0426Y3novOs5E1Z1gDOZOfdIxcoUD3ZxJTNGXwDXc9bnc/ss/ue+yA7Xw8p/t5ff9j+9E+pwce329fCPTwkwft4Cvv2Xtf+w+7+obPES5WWy9XR88QhuWq78TggiEHhAdhPhB4CgcEEGVWA8MqSs4Z6yKeD+HKL8FQL02stJ+PTtpfU332l2Sv/a6/z/4L476G11D7Q5/mbUiSxCZmbZYr++ahGTu4aqV9ZWbMvjUxat8CqK9OrqRSYRul61cnV9t708fb3pUn2KUkkoN4k2byiDqNk+wgxOB11rR22dVUFm8Oz7ic4dcY/IcY+u3h421ros9WNcVtoi5uJ+O+nwb8741N28dD5DdUID8enbY9QLM+0mltLXoALUbWmIgGEl+8RA1lZhFAFFJ+CojaAAjNCJcFIg+GHBBpYCD/YL2cz774suvsy1/9jh049I499Di2e+RZu/+JPbZTenSvtxnb73/igD2gR0ntesG+8NTLdv/ul2znky/bzfc9bZmZkwSEEkgB0en6IzQaeuuN99l1n3vUbrr7Cbvlnift5nt2Od1yt8S2ux+3m+96zC1vAZ5bPv+o3Xb3Y7Zrz8t2+IPv2vYb77Je6u8k6ia2CwjN8SSPEN5c82mA6O5dQ8mp2/CmKTtH7GLCxMsY85cYxJJ99tdkmuRtwL4/Om6HgOT0WI91JcdIGtdYKr7KNreNcVWvtg8pU3+KG1ev50fE9V9Quv5saMJ+NjhuPx0kQRxba29PbbZrEpM2SaKn1sq67lFr6+i1/raEO+/DJIjfHV9rvxuato94z7eHV9tucpsTIhkbwHgDjWnbhEGfHl5n/05J/NuRQfs9FccPxifsqX5CVqTLIi09lJgkcJEBa2ik0mjqtxoAKY6SxxE2QiDmhYy8EBFKEMhDCAo9fai0JmoXEzLe/8p3bNfuQ3bb5x6x625/wK670+v6Ox62G9l2EzZydrx3t92y8ym79f5n7Kb7nrLr7n7SLr1hpxsRDxC+xFQHlXKGcsofJRgVrZRDrbgufrC2SRVIXbGVbK/SLWRqXdM6nqWB5GjDSefb84fesmtvudf6x/X4Ag+EOqviMnQAgWD4NEAkk+usK7XOzS+dwv2e3z9oL3FV/3pkyqynzwwv8euBIfsuLnwvBj+5q8eiJJ4t6VWW6Zi2M5rH7Kmkrth1zogfs+9PPWP2ZzzAX3sGOAdKDtsfMjP24fAGuzE2ZSubxizWPgkQgxaNxm060m47utP21vg6chUSSUranw1M2pcof6+LDdpA0wDl5Ij1YOCN6LmxE+zbeIhfjwzYb0b77HuTI/bEQMrmIt0W0V1WhIZSVM//2NhCgtnWbSVRYnl7yqobAQRIPh0QKSuVKDlLqiN24aXX2AvkbyeQ2FeSE+hxUwVVbbZcqoy65F83ZFe2ARxhsFw9qRqMExuxChLqCtbL29RS6YBQW0QAhR5vyDI70ZgrM9X+QK6BwgnR/agpjgtKT7m4dZvOdY89uoYqo3dE3dmEi4EZjK7WRwyN8XUn1acFItWzwbqTGy2a0TSCY3b2ADnENBm+PAQJpZFH/HqIrH58iupjys7oSVm8d8giGoYfm7aTWibsnp5Z8o419s7EhH19ZMx+hPE/0pgJPI7eD2n2R0LS10iAr4tPkmxOWCw2Y/U9vdbbFrFzYzHbTT7wXbzIRxnCBVXNt4Yn7DGS2ZMb45bCeAmSw776fjutrt/29c3Zf4xO4SEGUB8J6JA93ddtG5q7LM6FU08OUaGmatQADDVtcSuLJoAkRWUxYNWfEohSbKGbpTRvdXFVKznENtv/wpfcdACFZboxR7PHUF2UtdpxAKGbsos19yggllLWFrMsopIpau5zKmTdJ5UhEK5l0rc/+IYoPwbCTzYW7gvl9zsBj1QuIDZrkO1h266yc4SScRhD4h3kIRIYOtFP2Pg7gOh1QGyydv7kDoA4A29wEA/xi6HxLBC/Gh4hZEzbyyR5F+M1UlzZmlG2m5Ax0zZtZ8Yn7EKMfnEmYdcm4/ZUtM++np6yn1OZ/HFg2P7aN+CamT/Ao23vHLPxVqoUPERDQh1fEbsrlbavUmb+glzoN3iGn1BSvjqQseuAZa6m0YbrOmyITH11VcK2VHbZGykqi5EJcog+8puU/XR02F7o7bGzMVw/YTmKERtaU8CQAo4uqwaIcsJSGa8rmoHh0wJBMqm2hLKGhBVXt9j5l26zfS+8CRBnWoEbJqfpBtXr2W7HVnW4fqcizlcCDCUt/R4EIBAIKwItACKnQoyv5mo9IkHrR+5XW0UOHDVa6Z6OtZsvsL0vvgcQ91JlKGTgJTBwF+oMgBAARwcirDJ8QpnsWU9OsNHaKO86+sfttP4he35yxn7CFWo9XN0CYmjYfkSl8A5l4DVd/TbUkbEOqot4p/KIWevrHLfO7m5rS7XYcGeLXU0cfxlv9YPxWVw6pSGJ3x/6hu1r46tte9ewTbQMWXfrmLXhGc5JJOwgeYaan3+fIQcBxP9cOWH7B7ptR2u9ndXcauc0cVxjh11WE7N7KL8/JCR9NDxmf+zP2B/SSfsN5/8yUN3C556GYWe4MrsIty2Ej3oql+rWTqsEjHIgKcdY6tKWt81PKhcmlmG4KGmkwtCswgBxwWVXOw+hWegK8A4aK+kmFNNzPaspKzm+CBsVA4OU7xlyQGQs95jGBSqsy2nRfWqrWAjEJoB46X1300fviNoeFDKQHkriYFgcCHdDLklnDBhiCi2UnZ3kAd1UC4nk8e4Oqzhu/SSqjN0uw5+yv/YOUnoqhxhwCeLXqPlvJ+OfoSro0g22nRpGv84aU6usmOOWDyQIJXE7K5KyvSR+351eb78izPxpcNj+gvv/cGyVXdM5aDNcof3Nw5aOdti15Cjvj6y03wHbH0lWf0VS+r3JQXtzNEWi2G2PDAzasxnEd9nfM2jvJKgqUmP2+8ER+zNA/EWjpihVf9hHMtw7YQ/xu67G8820D1uUP7+eEFLTkrRqVIHKgMXlasAgj1sOEK7kDFQGFFIpUHggtK62oNYcEBvPcqOodZe3hsnpUdJLlAbo7jwAWAhE6CV8yOjTIFvftZ27y3uhcuMiJNfUHTZe5YUO3Qa4dtOF9vxLX3ZN13oWlvMOGtuAkcMphOcBIe/QR5hgu2CIcqykJFJ3VXVRZcR758ghWOePPiGesYczo/ZdSsw/UnH8OZ2hyuizX2KAbw2M230kf+vbukgoNTh2jTXhYWp6j7dycoby3gGLkxec3pEGiOPtO5Pr7FdUJn/hCrb0oH2DcvSazn5byR832jhILtFpn0sN2ddJjH9HlfOn5Lj9YXDCfkFu8JNJDL9qyv5zZtZ+DlQ/par4GSX2R0o6M4QLIPvTEB5skLBGSPotoenHY6vtazOb7MmJzXYqyWt3/SCl56DVKpHkM5WYl+I5Slt8q6GaABaTKkHNQy4YSqgyBERxTcQu2LLdDrz4lq3beLYD4lg8hB4nvaQy4Z6bLoN7IIL8gc9YKA8EBndD8ReFQcoBMQ8GFzKUQxCbkIZzaUb8514EiJt2eiAIAwuB0NwNiwEhENoFBFeRHl2UoKTTJGBRKb3SenDF68nE70+N2LdHZ9zo6b9Qzv2OK/Ejav7vjozbo319dmKsy/rjQxbrnLWWzg3W2LXe2jp1D+aYDUXTdmq8x/bhvb4zOWe/JmT8ZXAQow0RMmZsG3nJFH+6gFhd32Gf56r/GrnJrwkXf0kpER21P6X7UC/rfSSjJKZAo/6UP+Ch/sz3/gvl6ceEjD+MDtqfySP+ksmQq1CC4sX+k7L14OhGO799ylI1lJ11w1bTgBoHXL5Q2oKx0WIghMoBQT7ggOgGiLY8IPAQJa0OCD1jXA+r11AFHy6kHBDq1FLe4CUPQZXhDf63lAMiVD4QqjbU/T276TyAeM+2kUPoyXnyEJ0Y2U8sjndAuaTSg6AbdKMs2wHByz+1xoFAteCeS5GeJnSM28r2Pruxa8zeGlpjPxueIXEbtt8P9OKi++2nAPESCebWrm6bjqVIKkkOgSIaB8woZWhkkoQxY6fF4vbC4Fr70ch6+5gKyADLKGe/PDVhl6ZSNkRy19c8ZNNUEDcAwCuTlK0Y8pdDc/bRAOK7fkTV9FE/FQf6aABRWn8E/B/x/X+HR/kNYe13fJePByk9CWk/Hxu1X+CN/n1qjT2LZzo9Omy9NQMWqRmz+rpxq26g9MMg5c1KznWPLcZXiAgUQuBB8LmDbrvUNA0lDQoZbXb+lmtsnyYMOQEPQZWhofYaQOsKAOApFhDyEIGXECAOEgdCKAdELhx8OpFHsMyFDN/rWU5NrfsynqMW3nbjPQ6IHuUODgauUBR6Aw+DzxdibNccDg4E4msbJWZbejXxXo8vmrYIFUFL7xSVw4SNUC+f3zZsT7LvO5SBvxoZtd8P9+LK+zDChP0bFcDD/QN2XkJD3NLWj1dIUX6mqRoybWM2SuJ2Znu7vTyw1n4ydAJhZxXhgqt8oN8Oz4zahVQDaYDoJIfoI2ScNzBmO6dn7eD0Wnt7dJ29P7TRDg9ttndZvj281t4CytfwVm+PrLIvky99je/6Q0KHhvj/jqpI4yR+Njpm354atw8oj1+iHL2L0LQ2RmJZl7FI7ag1AEQVQJRjkMqmLsAgHwMAnzOQQCpfCCAI5ZoE+O+l4npN2BKx8y+/xva+/JbNYYPlFZrvod09+L4YL6JQoIEwWnog8nKIPLmQsbjRjyZ5Cz9eIhc2QiB6PRAvvmtXAUSSq7g7AMI9gwJlgWC7yxt4LSAcFMCQfUwRiaDUnp6xCLV/K2Bo9vn+jlHbxBe/nRzhfa7an+DyfzfSb38YHrTfsf5fk9N2eGzaHk4N2+VtGduISxxv7bPBWL/1dvTZaHvcLmhvtVdHZu0/MfBHlJF/zAzYnwTE9Chla9IyZP+xllGLdKRsgirmtHS/bUn22bVUMDdQll7bNWHX9IyjYdvek7GLe3vxSj12U7TLHmzrtsP9E/YTvIbLJfpYB4J3hgbs0UjUbmjtsDM4bxowWzBUfYPaHQbwCH0uHFQ2kVziBRYHQvN4yDPkA6FKMO6B2IqHeOVtdztlgR7TSP6woronB4RGRf1zgPAQ5EtjJnI9ox4KjakUEHscEHd7IHChehiJeyAJBu/g6ncQAIPChDyDQHBQsFSY0JPspGiSJeEigndoTc24benulbYyypXcPmhPc0V+e2IliSFZPZ7it8Oj9tHIGFfklH04NGnP4e5v6eqzszt6bF0sYVPRGAlni90Ui3B1T9v3R1faL3nP7/Eu8jBfnhyzy7t7bRCAopFxq0xkrCWRsgQQ9ba0U3nECCVdrCct2dqDOi0ZiVmc8rSnqcUmqmrt7Op629M/Yt/Hc/xeuQS5h0rig5SdV5TX2tqSWsvURq0ew7uyUqUmpWcp5yqlLK1opOxsJHQsBCIIFcUNahvyIVrh2kMRArHD9AjtEIhlFboBR8f/rwCBm/ubQChZDLwBMLRLDohVAQwrLZrKSfNGtqWAASA0b4Nmf+nsmbXBzilbHxuyG3pG7M2JNfYj4vJv8Qq/xyX/kez+D+QVPx8dIXyMEf8n7ImJcfvC+Jg9oPs0RkftDRLQ/xietJ9o7COVwG+HMm7o/FcIN1d2pm2YhEtA1FBCNsT7rJV8pD2atPZYrzW3Z9wTbOqjmole80ynrCmStGhzAkO32Kb6ZnscT/VNwoJyjN/h3f6L6uIAnubcqlYbqWizdgxaikFK2/AKVETlbVHW260EMMpJZsupOhYCURYA4VuP84Dgv1fIKFKVQchwHgIbrKjEO1QlAGj+mMm/BUTRPCAwbnbJB2lducInAeFnzPfjJgTE7KZzAOKdLBBdRwMCtRM2skCQRGrCDvfgU00ChjQzXBuZfQhEJLnG2pJUKV3TNhofsVOjGbu/d9wOT6yzH6mRaYiykPLuT5Shuup/Njpg/zE1at+cnrRvTc3Y9yZWEd9X2k/J9j8ivv+KzF9A/JqQ80sAendyxq7o7AOItLVHiO0xTQjm787W9Em6U7uWHKY6NmpVeKnKthE3FK65ecA6yNIztR22sb7NHqEM/cY4lUk/eQTlqkZW7UsN2qnVMeut6rJGjTshaS2J9FtFWyeKAEbEAVHWOAwQhBAHA4lk0AClkOFDhUAIpOpOHqA27srOMIdYs+ksK6ySd9Dgl0wOhoVAsL4YFB4IARBoucQH+dcBIA6KnPxtfixrgMH1fajrXEmlgMjPIfKBIGS4nEGhwk/l44EAEgHhPMSMFzBoVtmIAwI5IGZNE3m09cxYklg+RY5wQaTXHqTUe3tkjf1gZKX9HGPrpt6PKUV/P5C231J9/HZwxP7UN055iJJj9nFaJeK4/XpAd4IP24/xIN+bmLJDAHNJ1wAhI22RtkFratc9mNKgv1WfyqC2fdSq26kK2kgEW1m2jFlT04h1cFX3Ud5tqovZYyPTeIhZ+1X/jP2G7/aDsXW2p3fENlcnrLs6Rd4waEUtw24MY1VLp1W3thM62lzIKAWIsiwQAQyAUOw8g7/hOh8IFxIAzQFB2bn3pS/ZmhPOYltw866rHLyHcEuqCLeOBERJy4CDIGyjyALhWiCdN/hkZVsqUTGxKawyNHpKd3+vcWMq5SF8laGQsViVEe1bAwwoswYgeA0U/nGHyhU0i4uSSN1DodvyBYSfxKOFvEJPzY13jlsfRlrFH3dWZMDu7B63Q0Mz9jVKxP+aXGW/Ihz8tm/Q/pAesj8lh+2vXVQSiRH7a/cYpeEUJeRK++HYSsrAVfbBzKy9PDFrd/dP2kl4nRRJZbOeY6Un5saGnadwwivUtY8hwomAiExYZesEy1FrIvYncdGbieePj6zGQ6yzn1Gm/mxorX1zaoM91jdqG3H7CS6mWo4txquUcvVWkxPUUt5WNenueXmCQUQoCUOFg2I+EFkpZABEIUAUEY7Ou/Rq2/uiB6KkNuFhkkdYRDK8pn+Qp3BN16w7j4HcIFv/ZF8MrHkiMLaMv4wPW0rZsgwP4Ga9x/g6NgRCCY1rh6DC0MPYND/Eqo1nuTGVaqnUeEo9QF3Pyl4IRAwYBEU0D4g2gGhTu4OMr8k6yB+aewXEBECQS2hArOaP7J4GiEnriY1ZumXQBqH+eBK0S2N99jni9tO469cmZuyrJJzfAZDvT87ZD8g1/gOjfxt9dXrO3kEvjK+2XYNT9vnUiF1GLrCZBG+Ykq8DD6FQURPXTC8j7sbc+ui4NQBCA6VrA1DUsF7BtlJJ+1sHLEHYnGvstjsB4sVVG+396Q32Hjq0coPdNjhuUy1d1lwfJ7Tyn5E/OCAoPesIwdUa2+AamnDxrGdDBTBoCkg3J8dCIBQysE9hVRS12rmXbrPn1bm1+Rzep3KTEMM51QZRxGcVBjZ264KA7bpdU0u9VheG2iX+RSEi30PojaW4kpxIgEi09NRfv97POokP25Q3lHNFlZN513B1rTv5Atv7yvsOiDCHWMxDCAgHRQCE2h8iacICQLjpAQGghXAhGJoEhUJHUjO9jVusSyOkJy3RMWEdGCSGgTJtwzaDEY/v7LfTu1OUiSm7NdNn95NTfBE9NDjEer/dnUnbrZ3ddm2827a0d9k5VA2bMeJKsv4Rqose4nobnqcuNmjV8WGrocytFQxtfA+8QXNkzN1xVUPoKIuNW1GHwGBb65B11KdsgHi+qb3bzqf62NrYalc0tNqFVCgbmlutu76VErPdiqIJW0aiqoai6jo+q3bYLcswVGm2n0IgeBjk+gVENlQE8kDIS3S4lsrzL9tu+19+2zadcQmhjfwEe1VoagE8W5XmnQgV1fgHrzLdaa5t5EWlEUKZB8InjwJDBDXhkmc2XWzHn3GVbTj7att4Djr7KqcNedp49pXoCjvh7K22CZ18/lV2/R0P2MvvfJ2QcRchY9blEG4YHAbPlZ3A4EAIYEirIYpQEADhoAiAaJGXCNYFRBtARDtzM8WGz7qMoa74mHUnBixJnT8Y77JptLaj2zbGum1DrMuOj3XaXCRuq+pjNlEXteGGuPU1dVtPS8o6+ANjGF+zzTZh6DpUqyWeoB4YGqk6mskXmltJNCPKJfwfW4qqAKSebS244TauzERjzJJ1zZapqrNMRY2lquoJFc1W29xuxXx+ASAub6dqwD1X1w9aTe2QVdUNAIRaIxX3kYAIvEOxM77kx51khecuxotr7q/i6lZyiKvt9cMf2i2ff8hOPf9q23TWVbYZ+20+d4dtPu/aQNd5nX+dbeL1Cedei313OM2estWaSObdrXwKFQKiDNfXt/JU++xDz9sXn/+SPX7gXXvy0Pu268Bh92jnJ/K065D2vWO70dNoz4uH7Y0vf9Pe/cb37Kob7rTeYQAgB+jE0JqF3j9QPQgXLkx4GNrVEKVWySBk6J4Jdw+FQgSKSHoMgdRN6AAIPYikVbPEhnI35vrb8po7R9GQtQBHJN5PudhvUUrFDq6AOMlcR/O4tbcS9/EqNXiC8jhJXIKrFNhqKWlrO6atLjqN4acoKSdZ4gEiI6wPsyTB5KrSLXiaIU633lWxr1L3V3BFymNWEnqqIlIP6ua1V0F70pa244kjhAbg0XjISiqOKv57jXEoJeQWk2QWA2m2VTIAQve9lFA1uDm/qiV1eQsI8guAWF7eYOdtucq+8s3/sFff/tAOvPIVwsf79uzB9+yZg+/bkwe/jJ2kr2T19Isf2FOHPrAn9n/ZHt/7nn3u4UM2MneegAjyBoDQjLZ6Qv34+vNsZvNFtuqki221dKKWF/I6p5UnXeC2+UdBn2tzJ52PZ7jTXnjrA9t2k8ZUakqglabR0/IQHgiU7xmyMOAhsrmDVwiEnmmVlYDomnA337Y4EEIwpqwtAVCAoX3NJJBNncNOmiPSPYqAq1mTg0a40lswYiNXuab1qY4PWhXH1XSOkDeQH8g7KF9Q6enuvxxBfhJRzQNVr5DCei1w6IYbjaCu4Xw1lKDVGpYGFBXqj8Cw5STaAqSS10WEVsGgfoQyNUA5GDJWhVfWGIdigChsTeC2jw6EUwBEiQPCh4yCikbKzm326rsf2LW33mMnnHaJrcV+60661I4/ZYutOXmLzbH0uhxtdVp7yhVuuebkrTa5/kI3d5avMlw5qYSRBBPXVQ75FWTaTvqRLL34Ie0ZtpM/uNHDGatkWanBHh39dsIZF9reVw/bNkJGz4B6LCcDD7EKINTeoDIz5x3+FhAtQJAvQaGJxvWUGvfIAeCV2jRDXBwg4ryHUKKn5msq4Vq8RbUEJNWEmVryjiZyDlUMepi6e2AquUIdHqJOS00XCDi17R6AWt2aTzipbsd4UY1FxM3zWtvdnNMktTUCohUPw3oVuZV6fXVnthv1JLl1PALrZayrNdJ7Bg9EhRJKwkQRSeeKSMIKyWsULsKE0oUMQCgO5GHwQJSQQ5QARGFlC0Bst4OvH7ZTztlikS7/lL8G5UD8zmp+b6gawqKDnvzHr4caJ0IMA4SSSgeFkko1SKmikFRdaDxlWEmg+i4rcOp0co97xmWtqCF75mqY3XyWPf+yOrfusqRGWqenEGUioSCmdgaFBbU5AEbYbxFJCQZNFnokEMofvFSCChC2AUVzCAVLKdI5DQyEDDyFHqZeDxA1AoE/pgKVc2wZx1VQneiP0COU690fprJyiD9PJaZmhdN8DeE8kWT/0TQgAD4qd8LAgoKLIwtE85CT+iTc8LdGoGjQcsAqA1U1AQvbqoGguq7PapAqDIULDYcrwZsUEi6Wt/JfNhEO+M/DpNLlD4LBhYl8AUQV4r8vqgKILSSVr75rG0+/CGDxQpTkuhNL4amI8KTqQlIUcKWnXgdVh9+mpXo7FwDhRmADhB9Y6+EQDB6EfAGEFDxApRzKZzcFQBAyNPOtZkxNpKetg6UanNQa6XMFeYU8IEhmwhARwhAC0eQEDJzDwQEQTT2T1qRHFwXKTeqhScY1rzQwEAIqu0aBAZEfCIhyjqskxNTIgwBFY2yYJFIhhSUgNDogMDJeoCaaBIYkMKSsDJUChKQ7reQtdZe2bsmrwdhSdaOE8RukQaBAbKtsHMYL4HlIHOtq+6zWSRUGnpVQXYYnKAKIgmaqj5YOykCMzX+e7x3c3XFAIAkGt6wCEoAordGYSt9Suf+1w7bh9IsJXWqhJDwJBiCVoYvV/hEKIEIosjBoTAT78voyPAxZZT0Fou7N1/I8L1EQeAkHxOazbc9LbzsP4YAAhs7AQ2hsgxqf2gghuTAhqRUyBEJhIQTCewcPRCDBkMTwANHYQ2gIVK+EEE+gEFEDDDWEAOUEgqLKacwqQyl8AEQdHsIBAQjN7XrKvs8RVLIpRFQDQSVAlKMyqoJSPEYp4bKcq0+TgWn+SN2UW6OR0oDgYGikzGtCDSSZQFAhGJokvpOAqMmHIe3GRpY04oEb+T8bE7a8KU7ZLyDIDwSDqyaQg4D8IoDBKQCijGPKqJwuuOI62//6e7YeIDTM3nmGZjU8qZVyIE++1XK+QigcEDnDLwaEv/Vf24CBsiqUhwLpvkCAUEulA+LFdwDi7iwQoYeIOSA04MUDMR8G3H0WiJxyISOAQ0A4GOYDUdeDkbuJg3gDhQpNLF4XzxcAoFokGNS+4ICICggvPbDE9VXgIaqiGJjwIFUqZwIQgRDODqdlRSv7SCCr+BOlSv7oCqCoAIhywCh3zdAIILRUziAQfFWhRNK3ORQHQOgB+4UNmhEOQwNDCaFCOcNCGEIPUSggyCHKsE85MF145Q0A8b4df9qleDAMr+bp5gGAYB1P5bUYFLrrWx4lAGIeBPlyQGiZ21bQwLY8KMIZZPTcLT2ETTPZqi9jHhDAEMdLxFAUuRFQnxIIJZJZIFg/AgbChVRHKKiRKEnrCAn15Al69EBTVpp1Xh6BJDKQ77zSxF+EDxLJOqRZ4KqAohIoNL2Pn2IYqYJQvkCIqCJU6EalilaMiir4IyUNcCnjjy5rHrRSQkiJxHoJRpEB1BJZrlZIQdCkEdBIS6oJtTwW8z+6OcQFAlJFkQMiB4NUiHTzdRFVRnmTRlh12oXbbrR9DohLSPo9EMV8fhHfowhIvbQ+gILOLUkgSBped3QglFMol/C5hdtGrPNTCeVBEQKhp/IRMnz3tzxELmSEQHQQKkIgHAiBWgMgWnoWwKBb8UMgBMPCUAEImhWuoQsAOqcAYQYQpjH0NFc8742ScLaTeEYpUaOUmqgZ42ueaXkED4MqDkKNsm9UBRS+JQ8wKEtrKDnrVHq2ABFXeh1/sKAQEGURjBshv9AYSDyF5lfwM7HIXcsg/PFUHYWElUL92c2anCPFFct/ycWzooX/lWWhgJBHqKFMxcClrsHpSBj8XfZeWSDI//QQfgFxwVU32POvvWdrT70ELyYg9R1CEPIlKPK7v4OhdEcCIcOHUlO2L0V9ORrCEAIRaB4QeIgTzrE9L+AhbsBDDPqkMu4kIHIeIguEgyEEgsTRQeFzCA9EWFkgXjeRGIZy3oHqQUA0JKaoGGaAYQZjz2B4jg+g0BNrvPT0GqDA0P7hZ5SdvK5HgkElmevWFhBqiQSGmjZCSxaIIavjz6zB0JpMtEwNTIKCklsjpf2kGwIi6F0EBP3Rhexbwb4igJBXWEFoLUArWoCB1x4IlY+4/xoqC7UvBBDI8E6CAEA0W496lt2cHYCje2bUKeaBuNGef1VAXMz380CUAETxETAEQCzqIdR0rUoCQ2dBcMpg6HD8g+ar9DPPLVQIxAq+sGLi3Mbzbe+h923bdfdat/otMGSMCkGKonaudg16WegdWntCID5B3Rg5eFZFU5ek0tM/s6KB6kLTGOSrXqEjjsHz1TFG7iAph/A1eo1CBV7DLZGbfJwrrJKyMlRFq0SOsEDl6tfhz1xMpfy5pWTu+VLHlW6AcgNkJdbdDVFccGFnoZqkQ6/gQMB7aNaeAl147NfcUArneuhNkT4DICtau+0ihQyAWH/KJa49pESVBcYXEMXkNF4KXz6Ezcsh+L4+h0gLiOC+DAeCWi1RFoYQiPxpCUMBBF/MTTEEtWptm9t4LkC8BxD3LAKEh0Fd2383DFIARAhDKE1AvhCGTwZiAQyEBw+ElyYEq1Kn0N+AocJ18OEp8iDI12JAaASTnxY6DwTJwcBF6cY4+FCR9Qy64PiPBUIodxzncq2eaiD8JwHhxkPkbtJRmMjB4OaacsqFDjdrbRg6WHek8mXlynT/oQfisG27/h7r6Z+1eACD5LwDuYADIoTBhYqjAbFgewgEHkFewS2PAoMkILw3yJcHwct7hBCEEAb/eILFgZBHEAghDH8PEG4uabxCCIEfS5IvLi6MfQQQChELgeBYdW2X6ju1eSBcUvkPewiVnXiGnDfIweDHTIZAyPg+l/BTEiL3o/hifFnVypozcW7jOQ6Iq6+/2w3BD4GQd9CoacEghTB477AYEIvAEgDhHksQKDT8osrzBvlewTVNA8PfDUQeBE5cTWVOnxYIDSoiZ8gDwI16koL1xYEIQ0YOCOUO6i0tI7SFQCip3PvK4X8IiBI1TGXnpsxTCIOXPEcAgIDQEiDc1ACEDQHhZqEDiLUklXsPUWUICN202zsFEFMWBYYQCD2lRiB8kndw+8N9gOBhQEHO0Bg8r6JhHgQLQ0MeEIAg+TAR9Fc4GPKAcDAsAGIeDIsBgfH5QxfTJwMRAuCVW8fYqh6qFgLhw/MyYBEQal0sowwuoyRWn1J5S5ddcOX19vwr7/43geA76rc0BEAUkkSG0uRjmpEuJ1wdP8SNwKGyKAzkhoQ7GDrJkBOmp8OtP/F823PgLXKIz7ueTj34SzDMB4JK4m8AEcpBoEQyyBsEQjaBnAdBHhSLeobFPcJ8GIayQKhsC2HIB2F+qPBA5Bv9k+TzB0JGAISMv5iyQFQRKlj3Y1ZDIPjv8eilVDHlVBIOiDYMSZVx3tbrXLfBupMvch1suto/LRBKJtXvoR7YfymQByCR1JiIIvIIjZX0Egw+CVJioxa0wjxp5jI9h6sEabaSGmrqjadcgId4Gw/xeevKTLsnwkWTE0jzQ/4DQOQlk4sDkdM8z/BPBiKrvFCxmPEX098HBP/xQiBqSeSR+h/KKH0dEC5k/POA0BgNgCA3ID9wM9Hxgd6lBSURX9zlCBi8ULeMSeq7qIvzJTusqDZmJSxLamJW1dBpG046z00pdOW1dzog4ql/EhAOhsBLHA2IhWHifwqIvFCxWCWxmFxCqf9TYTYLxOJQFFbzf+cBocngCgIglNi7cAEQChmaq0ohwwFxxT8OhMZp/IsSxhAGfWH9aI1XcA9O79P8DbOW0ITkqKN/xmJSH1d/3yT7J60zM2Wd6UlLsv3sC6+yAy8ftit23OG2J9j+qYEI84R8ZUHwMKiyWNRDfAIM0j8LiGwS+XfCoPwh5x08EEeDQo87mgcEgOi2iHDsq4zogRhwQKjsFBDnA8Recoj/LhBemjDEfTm+JDDox2qmuC037LRr73jUbrxrF3ocPeJ0w11ftOudHub1Q3YTy1vQreizdz9ij+7eb19675t4iDuAYdwNoRMQ7fOAyFUZ+UCEoUEQhPJ5Q1BiBsmkAwIYHBBAsCgMQRKZSyYXSSIDeQhyQPiEchAYFgDhYPDyMBwFCpWDecoHIh+GsKpYFAhAEBCaMDYEQp68qIHPC2BY6CGOBEJGXwiEXodQ5AHhWlLJIZEbde2bp1NWxh+QnNhk135+l93x8D67+/FDdu+uF+1eljt3vWD3PXHQ7nl8v9392F6794m9vH7edj7xnN3/+B57kOXzB9+wt7/8bYC4nZAxbtGeEUAYA4QJ7xmSaq5ehYdY6bzEQiCcJwgM742P4RNjgbQuryAQpAmM7QfECgg9JVdSL2YIgIcg9AJqhRyxKgyfr0ogqGwbtgqnIauIDBGfkeL0J6iMxM53ZnmvITj8nA29DoB5yjZIAUI9RicMuyboPLkGKJbhbMGaSnoZMCyrJpmsxkbkehrXUAIIJS1DVtoyDBR8ZzWjNyfs/Cuvtb2vvmvHn3KRqzJ0w09p0zCfP8L7hj0QABI2XxfyG6QV/I4CgJcKWffD8AMgNHyugsxVz7TQc7i7xza4B7Rnn9w/oqfpzVmXZpjTpKSjqy05ovkoV1r/+Bo3Nd6+F9+yK665lTAyZu3dwwAxmgXCewffKOX6KdjmRj+pf0IhoUsg5CDQyCcpB4SHJAfFQiDkIQQEpWUQJrKK+pKzqn3Q3JNrnNS7KSAAI4QCIBwU8gzK5heRg4CrSxCEMHhvgNGyQITewcsD4WEIjR9OEe2VB0OgZYKiCg8BEGoPKhIQQQ9qKWAIXPW6ljXHAyDewUNc6KaOLOXYUiAoaRrhfcNOWU/hoNBdW4KiHwkGvAq/aR4QruFJX5wf5MdBiGgSS36IpMrCDZtzCSZJZV3UiqXadqtqSth6Pdn34JvkELcBhJ4rPRQAMQ4MkwEQXiEMDoKucZbSRN5ScIzlaTyARUDkYPHhAhg6hp3qBAPGrsXQOQkIvIW8QqTf9JBUPedacHhPQc4g7xBIY0rDvGG+dC9KCIEHoIylpHsq9GTco8nfqOs9QaH+x3kwAEBtgtAQxzOQsFcnWPKakLGskn16FJLKf/IC3Y5XKmFMVRq6L6a0KR+IC9w4Dd0BpjvB5B2K8BRS1lMEocM9RUeQAYK77xOwgyF0anzKAaG8IlS2eRq5wTABEKo09IhnVRpFNVGA6LTjN5/rqowrdtzucoi2Lk0RKCD0zKsJwsQkUuhQYqkubnkHDYFDWi5c79YjCsaAIwdGQ0Ig+PDgAAhgaNC4SFQPEHUA4RQLloQFyT1GGSD0GGWndkljHwBEUDgwyB3a8AT8qUeIWJub2gdDN6r7mdfBzTVePXnrOWmS8aL6TgeDq9TcE5FVrXkV1HTgCTqAoYNKowMI2FYJFBUAo7GT2Eh3e0nyTi5kuRyHz84CoRwi9BDyYOr1VC/nfCD0bC09Vqmsgfc7AbvuGnNAOBA8EOF6mFM4IADEZcTOY2gMBK4u+GGam6BI5Sc/prKp201cqqfLXnXdnVQZVBg9ChkjADECEP6xRa09Ch9erRhcapHhMbruqWhKjFBaDltjHCNL+cYOluF6vQwe051WA6gf47NEGgbnxkVi2ND4emyyhsnXtGaycrPw4nIrNdDFDXjRXWgS+VQTSfYC+cEomtCD18BQ1tiTXer2Oc0wn51lnv9nvvy2IkAoDLSC/20FJfs8VevWPAkwgKIQD6Hh9mXYRYNs3EAbDOeSXPIH3TVX2tRBUnmt7Xv1cC6HcJ5EQCg8hEB47yAgyhrwMICQvR2gnv/AtUMEIBxd8iA5j+G6vB0UeA3A0A8srkkARNI1XT936B27giqji5LU5xAklilBMQoUAoIk0wnPIUC6hrPLls4ha04MOjXFB62xYwBpfWiewu0NgODVb3q6nVuPst6uJ931mUYf1wJBThmrxeC1GF6qCVQFAFKl1KoJRDWTiyZS08QeXtnXLMsbu/lDu9y0wlqWB+tqpDtScUJqPLsMpYtInrWwun2eVlS22YqKCNKy3YoJIWVclOo8zE5m6sKUxmGo1RIIG6OuHWLfq+/b+lMuBXy8AIYu5up3I7fII7L5g4AgXAgYeYVKVINqUV3dwCcB4XtAvRaEkTC/cNQjEqJK3ObshrPdxKXX3/6Aja48wc133TexxjIknJmJOUuPr7Xe0TVO6TG/DNf961lLjazOKjkszSI/K25ySNMlr/Yz7A+sZD2U5tRe5R7F4B7HoLkxkZ8WcXUw8ZmkG4e83I3ImWnTxOr+doEpi6OO9KR19E5YjJK5o3fS4khLSducyImiQNzuRGiUCG0R9zTgEcAettbOEaeWQK14vZz0WneXDbo7zFoS/dYcl/qsqQPFMkjLfnd8O6E1lppxipJ/qStAPcctfKe2NJ42OWyXkbftfeXLALEFcKlC8ADKEdT2UOLCRC6ZVLmpwTzKfTSORc/dqEKV9YtOOhZCEPZ+al3bBQVSjuGAkOfoxj32QD9XDSFmaHKT7drzuj2x51W76c6H7Lrbd9q1t99rO9C1t99n1372PrvprgftujvuZ137dtp1n2U9XLptHOfk9197+/224zZ/zI7bdtr2W+61q2+5x66++W67/s777QY32/sDdi37vDj+Vo5F1972AEu9fsCuueV+u+bmneg+r5uke5123HyP7bjpHrsRkK/n/dfceLd75se2G+6yq28MdXfeek6aYO2qG+7Oauu1n7PLd3zOrW/nc67m/Nq2Zfsddvk1d9rWaz5HjvU5u/K6zyMt70Sfxat+luNut60Ydis52Fa93nGHXcFxV91wL+e6367/7MN83n12Ja+33nCPbeGzL+c7bLn+Trv/if32+J43bHrdeRgZL1CP4YFCQPiHtAoEP3RO7Q2FGtJH+NMz2zX8UWEwaJhaCMP8rvAcEKngga5+gIwLJbXKfnV/IXEMtZL1b7n6Tnto10F7cu9rtmvvK/bE3pecdu172fa/fti+/aNf2Svvft2eOfSm7d7/mj25zx/35L5XF+g1273vdfQG66/bUwfeQK+7fY/teckt3/nwu/bBd35kL731gT21n2P3vmpP6T17F4pzPC+9brue5zOfQyx3o6dYf+q5V+z5A2/aN779Y/vaN35oezjHE3xGvnY99zLiez7/Cud7NSudJ9Su5/huz7xkjz79oh187Sv2lW/+2N7+6vfcvkefeskee/plp8efeTn4Dno/68/ze9Cu51700jqfs4v/8Ml9b9ozB9+xl9/+pn3rh7+zA69/zXYfeMseZ/tj+1nuf9N2oQeffMEuvupzeLl1bvh/aQMeQVA4IHwloSFzgmEFoWZZCyE/gv1ayX1aushHqCTJhf4bQHjptZsDESjcXciolNpZDySVO4ySM3RQacR6lT8M4rYn7KRzL7WX3v7ALth6rfWNqXt8FPc7jPvVE/lR94Bb6rXXCPtH3TLeO2YdqVH2U8qyLzk0bbfgbR575qCdfM5lbp+qGiWyUT2QFXcexYW36wn/Tnqv8hbt89uj5C3RLj0fY9Amp9fbrt0H7JHHnrOxyXXW3jlobbhzJ9bD11rOE+dp4zwRhYA47h/J3Z945mVA8KLdfOfD5FOU2iTBEfKfVvIfKXcOrfd7dfVxvn7CD8d0seS3xEnOB6Y22Plbb7b9b3zN3WnfM7LG2glt7YTATsKpuhTaCSG6B7WKqqKyaYzkc4SqhvISL6E+ClUdao1cQbW0IoJN2yiFo9ivDTBayQOb41ZbGf80SeXR5UrVQGqW1T2J7nEJyiuUaTeQdFKiljR2UdplbGztabbv9Q/s5Auupqog0WGfVKKbU5Sg8p6wzUN1u7rc1c1eTNLmJujUowDq9byoGNVEihByjz20e59NrTvdSgQmKtH3QKV4sVIXzvzwdp/l67vxWdT9Uim5TznLcpLiGDnAw7v22/2P7iFWj1oRCV5RVYSkLlRrsGyz4irtk6KIsrEC8WdqKp9Swqhmop+cO9O+8MSLdsUN97nPL6iIcpzUbsvLIk4Fev4VrwsrJV9dFLFeRGKpDsNKrthyqpcWqq9Tzt9uB770DZveeA4l95CrijRZbFj2qvKoICSoeighOSytH2I98BTyDoQKAaFmak1iVsV/28j/Fanssq6qpI21jti62Mw/BkS+nLcI2it8q1vCNbaoElFjlsq54dlTbe8bH9rm87ZZHT9KtbduA/Q1uRpnutwgEC812/r15drH+VS/u2n4amOUlSn+7Dvs/sefs8l1Z1qh5ruqJtHFU7m5l9yS71LN56OCKj1QJG7LVN/LiLwu0kxt1PrFlHjtlL0PPXnAdgKErsxl5a1WUNmKkcj4q7Te7NYLqzCiKgEMJwMXAMOyct2S32HLK9WGkHCThk4AxH2PHbKt19/n2iGWlLXZ0jJgqIhxfJRj/Otl5V5L9fhEPecCFbC9mPO4aQK4OJriI3biudtsP0BMkrjXUmr7KYh8Y5ifaCRoe1DeUEeIwDsIBtc4FYSLEAjdG1KBneqruy1S0WVpksn1ybW2ZeyUfx4QLuEkZPgm2bBZ1l/xMnoJpdrgqpOh/N/ygFCDjMCRwTtteR4MyzFoCISDQoZ158SYXD2ag+Hy6wTE8zZ9/NmUv3gpQQD1uaWA8FC4lj+0jKt4uVoDBQVX9YoKyr/KGOFl3B7ZfcgeePQ5F1KWlXMFy/gqBbUUDK5M5CrnSl5Rpan/1IDEedWAxLmWB7AJjIm1Z9m9jx4E2p2uoUjPrlgiAABiaXnMrS8pi7KOgECAeGiifHaH83bu7i4M3tQ55oDY9yYe4oTzrJaSu8Q1jPlxFr6TTR1akk8mSyRg8A96z7VE+onO1XLajXfsshr+2zZg0nSPJ6WD6QD+GQrDhiBwnoIPzLXZExbIYgXEobe/ZZv5cXXEVAdD0G6vfn8PhOa18t292XmuUIEgwaCuaRfPUtWaotK4l5BxyCYBQt334WOidGzYe6htbkyBA67TlvFdJAcv5yuUqweIGEA8uvtF+8IjzwPHiC2VaycsLMMbLKvgqq32DUdaLgcEGV0QaD7pZUCxVOsBEDLyxFo8xOMAQVWgDN4ZPlA+DEvQcehYLfE4S+RxqhQy1TTuO8zU0bf53O22741/s5kTLnAeopir3F35DVz1GNz3XKqvQ9VETmqaDnMIAaH7RAqUR7RgL6oL3VtajqpZb6/ryAOCP1RGcL2fUrj9U8oD4a/MXD+/9xKCo6I1YyNrTreDb307AGLYGUXG8wYDAiQIsgp6+qTl/EkFCgmcW8+P0h3O2ykjBcTE8WfxHfw9C6EcCOFrBxriuywFBknbdMOLXHwRxo12jdtjAuKLeIjOYQdEAV5gGUu3DogCWN5FAGQFEEvREjzNUs4jHcuVru903xMKGfdwlXexHwjwDjL+cYSI4/ASx+lZFrxPy2P0mvUleMXlQUeWejdl8Eau3s3nXuOAmD7hfNfU7p7bjfHVrlDIcZK707vFK7wzS6Dkkso+QMhYAflHAYnlitZeEkrs1kL+5Vo8e3XnljqygkoiBCLP0J9WDgje6/r8Ayiyff9qp+CL6NmQB770Ldt0zlW4vSF3xTog5AFkdBmfXCAHhdapaqr5DPZJPkfocndfb7/lfnv4qRfwEAEQbM+HYjkASGHY8UB46XXoJZRLtCVG7TFKtwcBIgYQcu3e/QOFvIE6mvJBQEsDLcE7OGMGBtdjlSeOP9N2PnHAtt5wN8bgM0katX8JXsBD4QEIdazeL7j4zQX1lIe4emdgDNoAECecc43tf/NbJJUXWE10yHVA6t5NLw/G/Fv0ckD4cOF7NFdI2MJVG6iI3E7tEbrVUN4k94glGfYfAELSOdwI7QXS4JtyDDgMEPve/KYHIgYQiu0YWFd+AUZfXk19DAA5KDwgHgivFUChkUTql1BjkwNivYBQqJkPRBYEJ73ungeEACrgO8hLRADi0SwQIy75U57hcgPlCFW8p9L3Pi4FDgdCoOMcEKGx2z0Q684AiP3kEHdxhep9hAgXEkIPwVIABTDoHEv5Lss0pFEDnR0QuHyM3NA5bSec7YGY2iAg1J1N/pAFYhDjLw6EE9vDLu5QSjD9Q1MITWoGV6ulG3X9TwRicWFAgFDP3NCaM20vP2oTIaNWIQPD+iuf46rTGD5NeAihyHmJ5bpq8oHAOOqsygFxJp8TGBgQ8kOFl9YXB8IlqwDRmhizR558ESCeB4hRSsKYyy9URSyvIOeo5P2UaFI+EFrOB0KPNmqh8jnDtR5eCRAVALHc5SKEH/Z7IBRCAijwQDqHvpP+s0IM4wbDSBizMQTijW97INpH3Owv8gyhjg6EYPDjHsJtPt+Q5/A9nK4HVZ1m5CX/ZCDmN2SFCkdj5QOhbuvQMxRU8Z6qzFGA8LmFg6GG73kEEAdtCiCUq7gQAAgaqZzLTQSd90IeCg+D5K7IAIgWMvkvPvkSOcRe5yFWcAWHQBQEQCwPgPBewsOg0KFEMAwHSzD4EoCYPv4M+wIhQ83flQBRQGK6vILSkurFHeMEGIKCsCS4BHERtnDlY54ExKazd+Ah/h0gLgKIUQ9EkC9kcwaM7EPHfAmIcH3+eMoFInT8DwAxHwp/ft0274HY96Uwqfw0QPirejEg1LW9/Zb7FgCh9gyfLHoglJt4GI4EAqMGQKgkFRCP7AaIRwTEqAOiCCDU6CQgViwAwucRPsF0QOBRfNXggZgBiAfxEB4IAdWaBWJpWSvHAQaQOIgEk6onNaSpJxPjZofkuSqDpPKca8m/vmPTWSCoLj4lEFKu8vBA6PhcTuHl+jL+uUAIhDwYUDFfvACXrwEdg6uVVH7HTjxvmxvzoPitfcur+MwqQHJhIx+IMMlkP9t0rBqfHBB4iKtv3smfftBmNpzD5ykE8McLjHkhwwPl5YFwoUXi81U+qmpRj+JDhIx7H36OfGLYNTqtUDJZDhAAsDwIGYJiOa81eGWFcgslgnL3wKEcQSFD1ck0SeUDj+23q2+8x6qb+ezyVltWJhiQYGB5HNWIcglVKfrvC2VkjFZKTqCJR8oIGbqbqiUxbSefDRCvk1Suv8ANBtZw/EKO1fjKXNgQGKG80efJgaDcIdT8vEKz6f6P5hA6p+rpEIjh1WfZwS9910489yqr7xjkStYVzZ8lIABhIRBLWS7FK2i5PABCFYluc9O0f9fc8qA9+PgLNnX82XweVy6GFQghEDlvEIYfD4lgUGOVu12OK1zjOdq6J3DxB+0egGjrGiNckFQKCHkIAFTZGwJRoFFMeA0NXlF+oVLTAcHSXfEqO+dOdw/O33bDPVZB2amm6+Uyvhqh5EVYqjxVtaF2B3fXXIOuZhl4CA/hZ8Yvq+8H0JV2KkAcfO2brjezpk3d2TLwIECQYLqkUsoHIWyEWqj5QGQFLMoj/seTSj1kRc/U0Ejlkdmz7blX/g33d5Ub5eQbpuTWOdYB0XtUILyXkIfgeK4oTee3/eYHuaL32eia0/msPCCCNolPAkJG1l1SmpxD4SFCUvng4wft3oeetzbCR5FGLCmH0NW7AIich/DLpaoSFC5w/WqnOI6rf2z2FAfXFdd+3srrAA9YBJhrpnZAtAOEkkugw+v5dgeNV5AEhPoiAKKuz1rjM3bymTts7wsf2vTa86yubZj9HA84Dgg3TE7vWwjE0ZQHQiiA0EDh/3Eg/DM11OjRZz0jm2z77Y/bGBl4ZZtCiRp6ME4ARA6GEAjfDiEY1GKpElXtELpfQZ06J519tV2w9TbrGT2e7y0YPBChFgNCr/WZAsvfNofBy2LuuRhbr/6cXcL5GglHxVzxatZWUrmCz9NnZtsigMA3V7PO/qXo2DK1P1BJAJI8QHJ4nV2y7bO4+iustIaQomZrvIFv14g6GCTlH7rnwt1EAxCFEsbNB6I+MmZTs+faTZ990gYnTrbaVkAgvKitorh5ARCEkUUN/imk/OV/HgjOJyDkKSpaB62jb51raVPPpmtODkpPtTVIiwGhcOGB0HkUNjR0r8vcxGHxUcKR5urmXFyJfwuIpXymg0JGxqButhY8QQnrbfExxPlIMosFCgYsAIowVxAUPpkME0qEQfXAVF3pvsHJJ5bqlGpNjFpTFEORUyhcCAjXl0H4CMPFUryM/n8Na1PbwwokIJQblAmM+j4352VLbMoSqTnWec02DZBdATACyC31/qwW5BALXy8qlaAAET4j438OCJYBEHpEtHP7qgRcVSAYMA7bZPQcDPlAaB9LVyUEzeIY1s2zhOFcayJLHy4+BRB8rtsWAoFxZfwiDFssMLTOslAQBEB4L6HPYhtapiTSNWH7Ris9MFVXupLLpXgAGXwZUmKqfpJClgXyDILBASNw5B0IF3wnVzHoCg88hPIBB4QSS+cl+q2ifoDQw1VMCC2vy1gpQMhDOI+i98wDIoAiq7zXiyacCiNq1xAQ1LP/n3gI1gWE4rBL6gIgFNO9sbzxc8rfFhrUVwphx5V6F2UgD0QIxacDwnkmoChExYHcbfgYWBIsyx0MXhoBrZbLAvKAEELlCy6pdIllCIS8hs8VliPBsELrDgbKy9CLKJ9Q/kJJ7oa2OZfvXb9aHnWHlq80NLaBagOVCw4tkXoxPQi59x0JxWI6OhBFzRn7fwEPCgOe9hLIhgAAAABJRU5ErkJggg==;" vertex="1" parent="1">
          <mxGeometry x="1231.88" y="-1368.37" width="79.5" height="79.5" as="geometry" />
        </mxCell>
        <mxCell id="jUa_gXz1qckVO_bWwLGS-147" value="" style="shape=image;verticalLabelPosition=bottom;labelBackgroundColor=#ffffff;verticalAlign=top;aspect=fixed;imageAspect=0;image=data:image/png,iVBORw0KGgoAAAANSUhEUgAAAIQAAACECAYAAABRRIOnAAAAAXNSR0IArs4c6QAAAARnQU1BAACxjwv8YQUAAAAJcEhZcwAADsMAAA7DAcdvqGQAAHzKSURBVHhe3b33nxzVmbe9f8m7BhRGk3Oe6Znu6Z7QPd2T84yk0UhIQiLnHIQAIUROBpskMGCSEEGgSA4mCGxj7LW9ttdee51tHHC83+t7TlV3z2iE8dr77vO8P3w/VV1VXR3uq+5wzqlT/7Kivtec6lJWUJu05ahA6/8N6b2hdK6Cuh6nFfVJK2xIueWK+h7Wc6/D/f5Y3luTtGU1PUdoebhe3W1L0ZLKTvd6aVU3n8f+2i7UzTaWqKCa5RHq9Kryy2UsQxUE71lWmbAlFR22lOWyqoRbLq2Iu/XFtLQyzvFxO668I7uUtE+fqXPqmGPLom6/znVsWcx9hj82Nl/s03Ydc0xJu1vqvVqG2z/DdumY0mgg1rPbPln+vW1H1f8nQBQ19lpxU5r1bquNj7AuGAJYgmNCZQ2fJ20Lv5uAERDHAURpcz/nzvA+7RMYgWTcIySjIxldxpShA60AKBmrqD5lhfoOwOIhYMl+Gc+DswAItw8gAsN6I8uAMbev2J0v6bbJGDKojtH+8H3he7Nyhvfn8O/hWI7R99F3C/cdCwih8g3+t/S/BMR8I8sblLX2WUP3uG06b7slhtfxWobszvMOXv4qPxIInXdZde51YUPaBlafaRPrL7Cm7mn3vlAFNdICEGoSwZJtQLFCx+rq5Y/WsioyaLMnXWYzJ1xkFa397qr2wMgDdAQeZQEQyB/njwk9gN7XkJiwsbXnWO/EZgeFO87tkxeJuXX/ngWeQkDI4HleQcC29a6y1SdeYnUdo+5zvXHbnGfwxs7zFp+g/zUPsbyWbaiQcy/DQAIgs/JE++LeN2zdGZdYbceg+6EravAWHLdCn+tcv4yqZQBBnuQJnGep7bSKll678Krb7LZ7d9nQqpOdwQoEgwMihMHLhQknrQuEQAo3VV1WyPdrio/bHTufsZs//5i14MWWlUdtOcZb5owtQyrU8H7kvAVGX460f1lVTgUCBcMOTp9sN9/1pF2w9TarxEMurVDI8F5ExvYABDAIilACxkES5dyAU95ulS0pW7XxbLvvsb2WHj/eiuv4TmUR5x0+UxRAkQUjz/iB5m373wFC671OOrfieklL2obnTrP9b3/DNp93hdUnhgMgOMYpHwivZZzHCRCkMAcpqE1YVWvKtt10jz305H6bPv4sZ/AVGFaaB4SDIADCGTQEIScB0ZIYtwefOGT3PfScRbvGbDmGKKgkVAiIcg/EsuD4eUBkYVDeEWMbS/74ybmz7P7HDtpVN9xnleRMyyragUEgBFe+E3Bw7mMFSaAcEO18BlCUR6y6NWnrT73Q9rz4to2s2mSl9XwGQCzhHMcUt9mxGFlamEP8HwmEvISMW9Lca0Nzp9i+tz60zef/Y0Asr4lbJX/S9lvusy/uPmjT6/9xIJrjY/bQrhds5xefzwEhQ4dAVJBP4FWU1C4EYikw6OqXsZfqykbT6wDi8RwQyzHuEqDQMdkQ8YlAcB6Ol+GrmnscEHtfOWyjqzdbaV0OiBCG/0M9hAw5Hwh/vh4rbU3byLpT7cA7/xgQyjuWVXc4D3HNbTvt4d0H8BBn/gNAkE9wTDNh4uEnX7T7BUT36BFALKkgXwAGp3kJpryHh+HYMrwAWlbWZjPHn20P7nrRrr7pfqtoIPfJA8LlDg4KYFgAhINC+/EmSwUEHqKqxXuIfa++Z2OzJ+Eh+D6lrXacksr/24AIt5cQB4fmTrZ9b38VILb+94GoZx8eoirSa9fcGgLxKT1EvgIYVIKu4HVLYtR5iPseVsgYtQIMIiCU/B3nNB+IpUoonXyoOBaAjgMGxfxlSB7iAULQ1TfhIRr5LZU+ZIR5xNE8xDwgOI8HwnuI/a8JiBNdyBAQ8hBLSjlPCcnkPwsIZev/LCB8Usf7SRQLMHJBDefWku1lADE8d5Ltf+sr5BCfFgiycyeuMIDwlYg+I2HVeUBM4SHkxlU5fHogtD0EIgEQ+SEj5yGWykhczccCxBJgkJbyvqWcQ/KVhnfxivseiDYH6ReeOBgAofYN9gGOAyIvZDgvkQeDB0LHBR6irDUbMva/9r6Nr5GH8EDIQ4Re4v9IILxBZGTWnZE9EDJ8GW5vZO5EgHgfIC4HiKFPBwTb5wOBEfEQRwKh9oS/A4hQIRCdY4SMF1zIaF8AhDdaAATnX8J5l1LCSgLxCCCI79PrzgyAuNcBsfzTAME2v65jAg/xfy8QuPRa4vGiQMhDAMTazVQZ79mm87ZYXRwgZLxq3vt3AOFaJOeFjIP/FCBaAyB2fvE5gBjJhgyXQ5A8qiFsCefyULAEBmkZ51gIhIw4te50QsYBgLgHIPicowDhvY/XMWyTBEb+uSoB4vhTLnAh4/8nQHQBRA9AbAKIw1kgXAOSgHDC2LxWiRrKwXAUIOQhdpBUfvEpqox/BhB4hYefPAQQewBiOAvEcpcnYHxCzHGcK9QnASFjTa07DSD2UxrfDRCqSI4ORAjCQiCWEHqW5AGhpFJAlFBlHFfa8n8TECEM+UB0A8QJHohzAaJjMDAY7/3vANEWAnHIxetPD4T6GOa/LsSwLZ0j9tCTB7NAKGSoTUFAKCyEQBwrcfxxnwhEi02uPY2ycy9A3AUQgPV/CxArGjAYQDij/k0gdFy+tE3He2PJ5RdgQB8CMgEQas/vtvLWHhtdh4d4613bfC45RAcegj93RTXHV+FRqnmPA0Pv13mAgPMsrU3bUj5L1UaYQ6yo9SFjx233eyDUDqErHRhUQjq5dXkgoGCfpGNchxPG9UqguBXVKGSo7JSHIGSwvoIMvgBj6X3LeM+xHHscgB0HkNIStFTA6ZxqySwj5qvKoOSUm/dA7HNAVDTxOWpkIiwoJ3FAqGHKgZEXMpwEBaWkYKho47hWqxAQp15EyPgyQJxoJbVUKyXNrrpQlXFs8fzSU0b3fRzRAIg2J2/0yFH1rwKiACCc6vnDjwLEcvYtd+uCQJ1UXvIqK+QZQhiQmqELVG4KBhkZQAoxYnlrt40SMg7gITafs8Ua1HTN1SmjFXJcUXUaw0is854igFDZuqwug9LB99L5O60QIGqyHuKgzQCEDKMGpkKMV4ihirTO0sHBPifBwOetAAb3mvxgBVd3MR4n0knI2HWIpNKXnUVl7JNkcLzAsYCzhM+WlqJleIflaAX5RQFALAOIZa4NImJLuXoVMpyHuPluB8QKDL0c4y8LtAQvIDlPwT5JyeSxhCrBcGxFxANR3pIF4sDrX7Hx2c1WVgd8pQCBsVV6aum9hUAIoVCTNufhe+WAOBKCfM0HQgbPA8IbOwAiWK4AiBVcsU6sF2L8Qo5XL5zkjYUhAKNQIHDFF7FezPZKgBibO8EOvnXYTiRkNMYH2MfVyZVWxDmKOZeX1vUejAds/rP1nTAk51mB8YpqOqwOIK659R7XUjmz/kwHVxEGkvuXwnUPXb78tkJUVM25qjuspDrmKosv4iHuf/g5i7FezNVaiLEKAWEFHmQpxy3ls5eh5byvIFChoOLYAkJGAVd2QXkEKJptau0pdv9jz9nVN99lVS18F+UkHLNcx2F4tWa68JInhYnjgOE4B0Mr3gS4KlqsCu+64bSgyli9ySoagKqsBSjkjQQD7wl0DIY9VstAMvSnDRdZIBbLIXSly+Duig+B4IotBIZCt/T7ZUxndAxWXBtDcSvFI5QAhlRWn3QtdXWRJH/SZnvhS+/ZKedvseZEH7EwZmUNXWTN5Bj1lKZOeg9iezHLIrYVsSzmnDp3MTAUVUethiR1xy33clXvt1Xrzwg+N8Fnxjkvy2C9uJbj9Z5A7hxs07KEZSnfubw+jlcYsUcA4oFHnrdEcsLKiPfFFe1WXBVz71tREwsEKDoXgBRLeJgSHUtIKJGq2gGp2WbXn2YPPfG87QCI2pYE+zkX5ytChRxXyLIAD1DA9lDKM5ZVAlRVhHUEFAWVLVbXnrITz7zEDr522KbXnmjVTXwfQFE/h3svsC1Hx+GdjilpIXxo6XUsRg6BcMoLLYtB8i8r6rnaJYUDwYBCGEL53kiteyCcW9dr3HoRRhcMZRi1qjlhY6s321kXbbct2++0K3bcZVuuvtO2XXe3bb/hLrv7gV324b//kFi917bf/Hm7bPstdtnVt9mWa+6wy6/5HLozkF5/1i5jecn2O+xSdNn2z9ol226zS9Fl6Iodd9jzL7xjbx7+lt370NO2lddbr+V9Oz7r11lq/fJrbuf8edrO50msa9/lrF965c12w20P2Jfe+3d77e1/s+tv2WlXbOPzr7yV76f3sL79druUdclt28Z7patut61ueRuv0VW32MVbrrf7Htxtb777ddt78E3bdq323WpXXM1303k5Vr/h0qtudbokXxx38dVo28128ZU32cVX3WRXXn+n7XzkWfvyN75vdz3whF3J+S5l/yUcdxGfd+GVt9gZF11jI6tOwvPFgaDVQ1GsZa7zazEdQ/6hDjLpM6wDBMmfpLwAIwuIfBjyVQQQTgBR7JYeiBKAqGjssURm1O7c+Zjtf+Ww7XvpsO05+LY9u+8te+7A2/b8obftINtff+dD9r9jTx94zZ7a/6o9te91e+bAl+yZ/YG0fuBN9Ab732R/Trv3vm67n3/dnt73hj2z9w174bWv2ktvfGDPce6n9nE+tHuvX3q9nrfOPmnvq/Yk0rrbzvG7n3uV7/iWvfzmh5zva/Ys3+NpPucpfRafo897iqU+W3rqudfsafTMc6zv8etPs67lU3tecdp36Ev2Ar/34Etv2+49L9izvG/PXn4X59F5d3Os9OQevg+fv4ulk9affw29ak/sedkef/ZFe+K5l/lv3uC7fYWl3vcyx73stj+uY/i8Zw6+ZXfcv9u6B2dJNPEMxXgKgDjOeYnFYXDKA+KY4mgABImbgFBIcFXBojDMVy7eKzR0WWVTj02vO9H2Yeyn+NI3fPYLdh1X2jU33od3uIflPc5LXMnVuw3ir0JXXncH0vJz6POBtK5teJhrP7eortRyBx6FK1dXmK62LVzB+XJXP15mvrQv8BCB3HHuiueq5cq9FK9wCVfcpWgLr7V9iz5DYpt06RUs0RZ06dabnS674lbbwnsv3XoTXoJzXH6DnX/Jdrvg0h0cfyP7OF4eh/dcwvEXXX6jXSht8bpgyw05aTvn0f7zLrvOzuUc0nmX5HSulpftsPO3XOeO+cIT+23vy+/ZjDr6lIcAhJegIM84io5V93moIgFR1w8MfRhdZaKAyOUHR5MDgkSvmESyiNiu5LC8scvWnnyOPXPoDdtx6702tupEG57a5NQ/vt76x9bb0MRGG1+52QYmeD1+vNPAhLQebQikda++seOtbxTxXifWM6PrLDU8Z8lAqZG1lmZb7/DaBZqz3iH254urp2dglfX0r7SuzLR19U1bd/8MS0nr7BtY7Zbd7F+orvSUV++UdfZOOsWTk+QcvE5NWyI1Ze2JUZePdPSM83oiq7bEiJO61tupaNoCqbqJsD1Ua3zY6WivWyjXG6P9Vt+WRinUS46SJLzcjFd+z2Y3nAMQEUBQWeqhWIKXOJqOK5aApohlCEThIkDke4OFQPj9Yf4gIBJW2thpqzefZU+/8JZdd8eDNjl3mg1MbrT+iRNYbrKh6RNtdOXJALKZbRutb3yDUyZYLqbM2EavUa/0KFBwvjT7UsCRHFln3Rg6ObQWY6+z5MDao6t/LSCsse4+QbHGegbnrJtlV/9qNIurBQRg6AIGp8xK60zP5JQBGrblK8G2OPvi6ZVZJTKrLAYc7T0TTrHUpEVJUt064GhftGfS2rqBBEW6xtFYTp0IqCIJLceAQRAMoxFrjgXqGHWjutoSwEL53hwdwEvebntfet9mN57jEtalJc0YXBIQrUdVzpOgIuUQdQMAARS1fcBA2FgAhNbDEjQ/2SzCQxSqZKzrBAoB0WWzJ51rT7/0ru347IM2TILTN3kC2oQEwSbAkHdg2zjbpLFgOa5tC8S+DEqPnmC9I8Cg1xybBIruEWAY2+CWXUDRM8zrwfULdDyGD8UxqBsouvsFglcX611A0tknENDArFt29gkIr06MHCohSNiXQHHWO1A8zTrq6OV1r1+29wiIKYumZgBgBsNPWiQUMETYp/VWgGjtQp3jWUWcAAW1JibcwJ3mDq+m2Jg1tI9Qcg9ZfWTAmtoHrCU6aI2RPkLcbXiIL9vcpvMcEMtKKUsdDIJicRikRYDoo6zDQ5BHFIZtCxi/yImSErleyazUHtDlYFC7gLxDEeVbGUCs2nyOPUXmv+OzD9ngzEnWj1fIAEHflF9mgCMDJOmJzejEPG12g1G9NgXabKlxBAhJCRi0rWt0AxAABZ6jk2VC68N4jKGcktKgtB5PgAIwulFX3xxG9RIgPXiWbjyIhwP1AUgGMDKAESgRGD0OIB3yACgKDO1AEu1d7ZWedWpLrsTgMxZh2Z5aZW0S6y1A0tw95dQCEJJ/PWnNXYGAoMXBACxOHBcXFDk1CoroKGAMWxMwNMeGrCGSdrnNgRfftbUbzrQVpc22vLjRlqGlaElJk9NxxV7HBlJYOVYq0rqAcGUnhm+glGygamjstdKmtNVEh93o3vr4qNXFWI8OOdXwBWpwTzXEsJq2Pqtp77fa9j6r5Qs1dQzYprO32B4Sm2tuf9AGACItAAgRodLkE+lpDAsoqemT5gtokkdos/UAkhOQdEt4j65xYBAQSEB0DeMRQhACORCQIMhpHQbH+JLzFvIabAvFdgdLBijSAmE1IKy2DhQDiBhwtLMUCG1OGFsQpNdYhGWkd9ZaU6vRqiPUDCTNgiJPTVK3NOXU6KAAhIQ0FWjSWqQ4+wBCXkJqxD4NhJIG7FHXmiRhvcleoqo58aRzrLY+ZjUNHVZdH7eqhrjrXKtgKZWxTSOu1B9S0aTmAjy82mZqOsg9YgICD4DcUPmWPmuF5hPP225nbbnFztl6m517Bbr8Zqez0VmX35TV2VtusnMuu9HOuUSZ7g12+85dduitrzsPMbH2TBcq+ibxDoIBONLyDhKve6c/QdqPUrxHSvKeJKFG6gGGbsJFF0lmF+Gjk7DROcSVT4hYTJ1AkBUQyAM4KXTkeYWsdwg8xDwgCAVRQoEkGHISHLOBVlsbnkLD5fUftiZn5kkeIisgCL1FVl1AISAwvgwvz7DQOzR3jOcBgbhgm7hQ5SG2brvV3n3/m/b5ux+28y640s6RLtpm51y83c52utrO4vWZF11tZ6DTLtjGcrudfsHVdvqF2239qZdYfftQCAShAFVE+jHeifa5h/faE/vftV0HD9uTB9+13QeppdGTedp18B178gAlJnqG4/a88J4deP0De+fD/7Qdt5FDzJzsYr6AEBhhuPDSurYtIrxAOlAv3iBfKTyClCRsJPEMUjf5Q9cQVzeufzF1Eg5yCoy/AAgHQbBdywRAKDn0+YFygxlgyKmtdzqrdkGSyqkN40cwer5aMXgECCJdObUCgEJCqBY8gzyB8wJxDO+W4fo4xkdA0BAqhgfHkzeQR9Q2Jylnb7KvfeP79vqXvmJ7979uzzz/sj39/Cu2+zkUtL24tg2n12zX3tfssT2v2CPPvmSP7HnZPnv/k1Rvx+eA0FjF4sak1ZPhjsydYSs3XWCrT7wQXWCrNp3D61Dnem0+z1adcJ6tRqs2nmdzmy+07TfdZ6++8y278Y4v2hBgqSLox8g5UYKyXDSJnCeqEAyfwRNkMH6odChA6MUz9CqZBIZuqoxOqo1FRTWRGMTIqNNVFUocJSoO91oQKJHEKwRK8DqsGjqoImICQdWBA2CBACBfbQDgk0qAcZoiqURAME9AEAkVhAZJEDRg/HzVA8ARCoFoG7D61l7bctUt9sZbX7Orr7nNVs5utvGZDTa95iSbQhOB1HU+vuZkp4m5U/Dip9rY3Mk2Mqsc73irbE7nAUH5qBtg1FWt/oPSppSVNqespBFQiD3FjVICEXOcuty+skaOBabqlrRtPOVS2/fyV+yG2x8GCADAuK6yyOpEp34M3o/Bj64NTn0Y30ttEF4ZYEgDQxoY0sPrKDfJBTD6YjAkhgBBCoBIuCoiJw+EIBAQXoLBe4cACGDIAqF2hnw5INgeKKwuFhUQtHfmCQja8kWOEEFNhIXQ6HVZkctJQODk1qk2cPGNeIgm8jg1jR8goZ87/lRbUVJvS4vqrKCsyZY5tfjOMKdmvyz3WoKOY9txbDuGquNfsmMZAEFQCIicqCQoKwtqoyxjqAN44l6UmlIhVYZ6DivIQebwKs8eOGzX3faQjRIyBvEIaoPwngFRJTgtCkGofBA8DIIglAfBw9CLZ0iqhFwUiDwQAnUGQHQ6IIAhBCIPCucd8oEIoQAI14aABENb0qs9X874k3iFPFFFSO2EiCiGFwihBIEUrkc6CBHzgBjNQbBQeIf6tkE8RL/LIdQSeuDFd2wWIAqBYGlRvS0rCSoMSlAnNVS5cRTNdgxVxmeoQI5hv/QZ97pFQITdy+QRQTe2lwfCC6OTjUorGiRAYem2yatUd1oFFcq6zRfZc4feA4gHbXQlZecEV7rChlPY5gAYi4Lg1ZcHRD4I84EQDN47hEB0AcE8CYBQGF7ewRteIcLLQaFl3jZJieR8D+FhcEDMAwBjOgiAJPAOLjw4YWCSxFBt5AjzRXmZkMbxDOPWGh+zFiBoctXDCCHhaKLqc5XfIEkgMFDtKWSo7DxI2Tm34QwrLG+l3MQzaKj+wpZJdCzbnQSIG5vp19UZBhDBWAg1PKGw4SkHhrqfJQBBKxq8CqV6tUdofEGnlQPEWvKIPYfetx23fsFGVhKXxtWyiHEnyAeAQklmZlw5hFoqF5FyhkBqlcyXyxkCpQBCrZNha6MDAjgWSkmklBAQGD/hcgQZ3S/zQfCJ5KyDQVWFb2zyDU0xkkU1MElHhAeMHwIRwpAPQlZAkN/gJOn2wRZgaAEGgdDEld+I0RucyA8WSl5BIlTUESrqCRWuCVtl51U328GXDrt2iMJyjF8cNki1sd7u5PounNQDqk4vwcF6mbrI/WuA0OgnQaExEfn9GGqJRGqRFChqoAKMnHwD1YpgEEo5OcfazRc7IK7FQwgIDwMGnvRApAEiDRAZcosjpdbIUBusFw+RAoQUXmGhkniJHoDoUtXgpDxigdTYJCBURTgYvNTGkFA7Q14DlV47peUdZoEgV256GLyiJI1OGF8SDDmPEOgIEAIIkBqdvIAgUDNQNAFEI17BCRgaMfpCCQYHBDB4CYiM789o7fFAvOwbpgrL1C/B1V+sTi5AKIqy9Dq2RAqhQABxTAgE64GHyAERjn3IKvAckg8tocg5AKJAw9SAory51+ZOvNieIWTsuJ2y0wGBh5gEiDwPkR7bHIAhQPI0JnkgekcpLwXESK68zJeaqrtVVgZGd0AskNuX37YQKuMBOAKGTwtEAEOUMlJARARBGCoAYKFCIARCswAIQQj1KYAIYWgIYSB3EBANDoheq3NA3OSB2HimFTkPoXxBhgeARYEIlB08Izjawxzik+XGVAaavy9MSKk0mjO2BiCeBgi1VA6vImSot1JewnVWqYwEilHCxqiWvF5EaQkQepHzBgEAoeQdkkNqdcTwYVuCPEGgBK8VHuQVwvwglAeCcBHIhQmXLwRyIWI+BE6hZwiAcCEiAKGVXML3TXgg2gWCcgRCgvIEKfQOIQwuVCDfT0GocOFixMmFjHwIFsIQAKFys1FzbpBDaDTaZdtutgMvU2VsON1KqByWu34MPAVGngcAyo6eCvSZQFr/B4DwIEi6qcYDcdGRQCiPyAIhGI4OhIMBCYYQiJSapUMQAhjC/oejASEYZPwQhO5ADopFgMhCcRQgjggVeUA4GPKAcMrPFwIY8sNEax4QDoYAiE+C4UggBq0p4pPKWjyEgDiYBaIVIHz+oJHZfwuIUBqp/XcBMX97AEQtqhEQaQ/EC4ftmtu+4EKGgHCJpYBwFQRVhoPCAxECkK8sDICQFRCEOhoQWel1nkIYQiAEwafxEFkIAoWJY1YCAAkE3xIZwIB85xQwdAECauqaD8LRYJgHRABBCMInAaHxpZdu8yFjbv0ZANEGEKoqlEjGgCAMFTkds4g+NRBHKlemqvdTeURZU5oc4kJyiHdtB0C4KiMPCF9WUn66sJEHBMbP1zwYBMEgEABAqCwMeUB8okIglDeEEOQphEEg5MOQb/ysV5AwfqgcEEAQABEmkyEMzQEQyhVUTYTKhyEfiHlgBCDkgzEPiFYBkbHq5i675MobCRl5QJBQLgGG40o6AEBQzNcxi+m/B0QOBrVVqNLQ3E1lzSmAON+ePfQOQDyQBUIhw7c8zgci6xXyQDjCOwBDakADXyQ/0KUngMFd/WhRr5CnMGx0hUBgfO8Z/HqcBNKBkMzLFZzxVU6GWvjay4WMPCCyVYUDYtID0R0AIRAAwInyUiXmPBAAIB+IbDLZngMjBKJOQER8DlEfyVhVU6ddfOUNduCld2zt+jNzQBR7II7TEh0rYfijQ/Epc4j5ovx0MHgg1NytCb3KmpM2d9K59uwLbwPE/QBBeQkQORhC5QERwJAFAgikhR7CQzEfhlAud8g3fJ58ZZHzBg4GAFBPpuvNBIQ4IHQ4zTjFeiQBoEanT5ZaIgXDfCCCpaAADiWSAkLeIDviKVAWCMGQD0TwemH4yAdCA2QERF1r2gHhPcQ7tm7jWVYMEMs0LM61PcQcGA6OBUAcAcan9xD5jVdql/AwFLpmbc3uFgeIHoA4GyDesmtv3+mA0JjII4FQcnlkuFgUiDwPIRgcEIO+pHQJ5OCcxbVcBAjX9oDiAOEUhIccDAEQKULFPBj+TiBQi6AIIMhWGUFimU0kO8asFa8gyUM0y0NEZfz5ieRCGEIIsgKGxYAIPcS6jWdYcVkrQARVBlf9EspNaX7pGUqJpl/qHo1PAYRgUONV2B4RAqEm7U5CRsJ080pZU7etPfls2/OiB2JUQIzOB2IgkPKH/BAhhRDkA6FhcC5vCDyDgwF1IgcD6kBhmZkv1zKJ4nlyLZUhDIAgGEIg8mH4+4CYCoDwVYVAaE+wT2Unck3TUh4QUg6IwPgytgAIX4fb8iDIVw6IXg/EFdcDxFu2duNpVqQOLTdKSm0RVBsufHi5xipVH6oqwsap4LW7UedIABYqD4iwBTMAQh1frp/DAaFR1wLiS3bdIkA4GABBUhd2vkeY5xXyFFYULpEMYRgSDGs9DENzFtPSGXtxCLQv1j9rUWDQiCcBkIPBh4uFMPw9QLRI+UAAQRS1x6Vxa+9ALCOxPCCiHojmfA/hgPBaLEQ4AUEoD0S/1bb0uhFRAmL/S1+ytRtOscIydWw12JLSJgzdDAhqqMrJA6H7MPzNPLnb/wIPkd8aqXkliwIV56tBy5SVOPW42+yK67uspEGDbONW2dxtx596ju156U08xH0AoRJTQ+hVcvqyM/QUAkKtkGE7gzN+nnzzdNAgBRTdbgAMuYLrtPIeQkDEWUZRjLDRARAKDfICLkQAQUffakBYbW2ZVdaq4W4CoHvG5Q1Z76CqAhjma9oZ2wsjZ+W3hVVGVINcCBFKHqVWcoU2wkMbHkFSp1UEINrUeQUALRg/lGDwXmLUQ0Hy6GBwQAiQIFwEMNQCQL7qWwesIQCiqtF7CAGx7oRTySEarKCswZaX+67uZRjbyd2M7OXvVEflfrmE/f9a5PoyUlbcmAEADI3Ra9v4InyB5vYRqB6B5kHiXz8aIPZJ/U7N0T629bGeZr2X2Nlvp55/mT338lt2zW332NDKjdY3hXEnyAOoNJKUnsmJjW4IXA9AdGP07hGMHahnFABQN9LQOCk+ss5iIxh8hCt9eCUwrLRk/ypLYvBuNTsPbLD2/o3WNrCeJVDgATQ8Pol6+mZIKDHuwGqLsK8lsxYgKD+7ySG68RJJqguACIfFtfbOH/IWSVFBJMkDejBqN1d3j6QKgjI0AUxRwk/bGovGp51naO7GsMlBa+zBeN1DVs3rKiqMasCpBZb6BN4gPmRNkobO8982R6k+osDUzpL/u5n/WkPimvAYkoCQ8WswfA3hwamlz6oDab2mOW01TT128eU32H4S+s2nnG81jR1WVd/BssuqURXeu4qQXk2eJ6ndorY1ZRVczH6f7q1N2JKyIKksatQgWw7gA9TP8Lmde+zRJ1+1XU+9Zk8++7o98ezL6JU8veq37XnF3Wr22DOH0EF78a2v2OGvf5eQcZ8NA0TP0GrrHfdApAQEMCTxEBoC17MAiC5eCwIHxNh662SpKZATbjQUhhxYZSlgSGP0dHqN9fYSRjIbSRZPAIbjLTIANAIFGHoxbm96xoGhMQ6xzJy19a7FwHNc/YSO3jXW3huMheQ9Ec7ZSoLZircIFQGYSM9Ka+vWCCc8g5JGV0kQTjoJM3GgiJGLdBBqACLSTdWQ5MpN9VlVT79V9AxZJRBVd49bTeeY1SaGrS7BFZ8g/qOGOIAQRgRFSzslaRueo02DXdgXeojAMzggAgBCGKqaKTeBobq5F6N3OyDe/+B75BFv22O799uDjz5nDz+x376466Cb9+KLuw/Zo0+9aI8+7fXY0y8F9nvZvb79nicIy8cLCHICPENhfdLK+RC56etv/6Lddf+zdje654Fn7a4vPBXoabvrAekZt373g8+gp9Buu/uh3e5ezS995Vt2zS132+D0ekuPzVnv2Dqg8ED4MZHqsJoPRBfqxBsktBQI5B4do4QJQoXGOyTJA1IYLk1CmMGQmd45S6dIOHs3WlevB6J1kCu+H8/QO2l9XMmDUmrSMskpSxIiujFwJ4onMaSEd0gQRhLAEAMGjYeMOBgEBoAkAah7DSAQdjrxNJ2+aVrtDm5cJNva8A6J2LTFSRijnXjS7rQ1plJW19Nrdd0Za+jCwEDQjFfQJGu1nUPAMYhYx2PUu4YpQkk7eQWeuQUAGlF+7iAYQgjmw6AGKdSUssp6QgZAvPfV79pTe16yu3c+YXfc/ajdee8TaJfded+TdufOJ+3z9z9ln38gEOvaFu7T8EcNSv4X16aAdxAQxSyr2/qJw6vJ7te6EUmpQYwxNBtI63m3xg3zepjtw1y5o7N2ziVX24FXD9uOW+4hZ1hLeRncZkcuoe5s36XtezBDIBwMABDHGzgBRocLE77MTHN1pzNrvJxnQGm+V5pz9HKO3g2AMGftg9OEi3Hr7x62Ca7A1fzpa7lq16BVXKnTaJKrdQz3PRwftSEMMtg5av3E/RTbujC0Ess2YGlNzlpLEq/TvRZvgEdJkHskCBUa/8hxGiXdSP7QSEURjU0QPoYBo9cS8S5LdMWts7PLeuJJSxFOe6P9lmzvBx6MDRTyEtV4ixoBgZdQW0QL3sADQf4ABBoa58LFQiACEJyaMoQLAUEO0dDlgHjxtS/buRdts570pHXwezuSE4h1Low4ITDe65Xo1W2M5E78H+2Ew5jyo64xq+Lz8BABEMiNc6j1d2NpjoeyQH4uBY3l70Qkkk7BeP5azZ/QbmUNHbaB+PX8i2/jYe63kekTqDI8EGkM7ge5+MoiTBjdiGmkofQhCB0jVA7SqDzDnGUwvtRLDtCDdO9Eoh9vgldI8LqbUNCTmQGYERtLDtnxiX47E13SPWBXpoZse/+IXTM0ZtsGx+zK/jHb2jtuFwPMmW29dlIkZevbMjbTPmCDGKaH6iDWpZtsVltzas55iGgniWeCRBRvEOvUaOlpaySM1LGsAQg1OMUxel97j01EE7Ym0WEbE112ckevncr2EwkDc5r4nc+IxvAWHRi6Y9hJ91U0xQYBgtyMUNGkO7IEAutSDe+tDoGQ8bMwKFQIBtYbUw6IiwBiLznEmg1nWEGpbtChynA36qjKaHLLUOFrDaI5rrDRjllR7+7yKiaPdDmEphPSXFN6sIk8hmZ10QwupTWa+KMTQBJegiUUQBRpH1AUatINauG5zWfbcy+8Y9fdChAzapHMwZAPhCoHhYPOQN47UDUgARFC0QMQaYyeypAv9K+3jsH11sbxEZWbGjMJCCmIn8YLnBzP2GUkc3f1TdszY2vslcm19sbkrL05NWNvrUSrtFxl78yssTfZvn942h7Do9zeM2IXAMXaSL8N4767FBqoRJpShAWqjQ4Mn8A7dMpDJFRVrASIVSSKq6yKXELuP9GesrlYCtgG7N7xSXtifJXt4WJ4bmSjPTG62W7JzNo6ksZ0y5B1RIBA+QEJZCNJehPJuQbJNgJAPdtrAaJGnkEwBEBULQKEPES1bqoih6gkObx46w2278V3bG6jRkz5IXT+vs4W1qk0SlqdllJm5l5H3Pry0ogVV3HB4xT+ZbnaGTRhiGajAwrX8FQrKCgtdTNvaHy8QlFdd6CwYarLN0zpVj7KztlNZ9uzh962HQAxPLMJCPK9gwdCJab3DMAgYeAEBnYiBMUJQU4jsw4IwdDTR15BJdEGSM2AEhkmHxicsoHUiK3sGbUtZPSP4BZfJLx9jc/7Pp/7E97/s6Ep++nQqP10ZMR+MjpsPx0dsZ+NTNiPRyY5Zsa+PjFrr0zM2U6S1fMTozaFIXrwFO2EkObeMYAgNyCkxEkaEwoPGiqPl2gEinqAqAWIRrzRUISkLpGxpyZW2tszq+0bE6vtewDxvdFN9sHUKbarf7Wd2jJoww0D1t2k8EC4AIiGGDBQoTXhrTTgpQZoqgGiKoQBSKuoLAREVctCIPASDoi0yyHkIUIgVgBEbghd0P4g42s9eL20RA1Vfn051UVxDd4f+//L8voMQPRZQYOWfjidhyKYKggoNJ7SS2Mr2Y7C5ms/Kts3Xa8GiKcBYjtADAJEij9Fd2k7ERZcqJB3CIBwUDgv4dsY3EhpKpNQPf1rqRSoOgCiAyBaeV8rsHSQLwz2jthGErTLUxP2FPHw27z3J3zGR0DxMZ7jj4SGP2VG7Y99w/Zx/5D9bmDAftc/aL/n9W/7R+2XQ5P2o4k19iHV0F7C2zY8zWx0gLg/CBCjhIxhgNDt+6PWQZXQ0Um8VTN0YtyaAET5QyMhJtGWso2t3XZPcsQ+mJmzH0xO2i+Gx/msKfvt4Jz9aHKT7c9M2tlNfTZa12/djcoVxqyO8FEfy1hjNAkQSSoKvABAVBI2KgHBq88qAaISGBYCoXAhzQfiXYA4CyBkaI2uDhqhFtEStVSq9bJEUxIR+rFnSSNAFNT3A4IEFMCxPBhjGbZKutv+HQg5GHJQqLfTA1HanHQ39Dx16B27GiD6+ZN7uJp1y77Ug7Fc3gAA82FQC6QanNagWbQarUIrLUm+kCR57MoocdzgwkWU8jOdHre1XYO2nURoN17k68Dw0eCM/WFgxv5MlfFnvMafMNAfAeL3A2P268FR+wX65cCo/aZvzH4zMGG/GJq2H46vsW+s3GQHV262azJTNhcfsF6Sv3ZAaE5yJROKNKttrFPSfA4kgCSEzailU7fiD9h4U49tw/W/yPf90eQq++Uo0PX32V96B+1PfZP2MyqtQ6yfzZ89DBCdTUOECEpRcom6DqqSaA9A9Lhey2o8hwcCCEJ9AhBKKhUyKuoTbgKSfS8eBoizAUJXv5qtNXBWTdNqpl6g0qhpOqGl5Zozq9t5hxLOCxADARAeCg+En01Gg23dpGKLwJADQt3fCSttStrqzefZ0y+864Dom6IkpDLpGSbpExAA4FsccyCojUF9Ehoqr6lwugUDBu8aoEzsnwEGAbHBugEiDhAx3ZuZnrEJXPn5ZMe7B9bZh8Ob7KcDq+236SH7fXrY/pAGAiSj/3IEo49O27dHpuzf0LeHp+z7XLk/BJ4fkrR+Z/J4e3/lCfbM5Aa7DAhWdmSsK97nPIMamjS7rSb10AQf7QDQ1jUECP2EjX6LECKi7Uk7GaM8RgX0zYkN9gvC0W9G0vbHwZT9NZPGQw0DxEo72Jex0/l/+vl/Y82AECOjpxStifcSNroBotsaAKImMuqAqDgCiCNDhocBr0KVUUF+d9GWG20vQKw5wQPh7uYOgFg4MiorwNBzP1yjZGPaPRcNIDLkDv1OBVLgKQrqgx5ODvbiNRQtJ/FYrifEAEkBywItNYSOL6bb+5564bBtu/UB09wQamb21YRKTN3Gv4G8gXyAsJEADPVJ+F5LcgeA6ACION6hEyg0i0smRchJrbcYQMT6TrB43xqbxH1fgGt/ECi+xbl+PrTRfk+I+HNmEAgG7CdTo/atlZP22vg4sXvE7kz22/XJtF3dm7Ir0xlCw4jdgcEfSY7bM3zGHoB4cMPpdhZX8mAPpWfnDAafpUxcbU1ds+QLa6y5c7XpTuxmvEVDkkSwJ2MdHSkboUq5FY9ymPL4VyS8f8pM22+H+uzj4R77U3+XfTyYsf+cnrInRvpsc2uPdXE11+NNKjpG3I02unO7MYqXaAcMAcE25RCu1ASErBYCgSqd2I4RVQleuOVmPMR7AHGum41fo6g/U9Zm/0p+8JnSGOrwKukABK8l5Z14h14rxSmUkt+UNKrszAIx4KEIQwcA5I+llJZJgkEPBMkC4QfMlBHLdM/n03ypq295wI2y1j2X3eqLwHCdwwEMKM429UM47xAA0QEQMTUuAUQiAKIvtQYg1gEDUCBN4LEWd30dmf2hoVX2Y5LVXxEy/tg7Y3+h9v4Ij/DvMyvtwMgYRu+zi/ijT4xmbDaetomupI30JG2yq9c2UCKe09plW6gOriA0XDAyY7PkJakeJY4z1paYtfb4KgdCYxdgkDw2U2XoIXL1qUE8SK9lOrptE1A8TVj4D37Px1RDf6W+/90QuYoDots+HuizHwqI4X7bFOmxRGuv1RKWBERDu/owSCypMurb0w6I6ugQYcO3PYQtk9nWSQBYCESFgGDpgbiJsvM9m914LmEAIMoAorzd/rU8Zv8KEP8KDJKHIm6fKdasuuSFtRkHQykwOCD8LHTeQ7hl6CFcL6d6O4FBCoEAAMGwXCAg13ZB6BAQMwDx7EseiPTExgAItTgeT4jAKwx5GDrwDg4IwbAYEMCghpO+1Kz19q61jj68CflEiuTsJJWW6TF7d3KN/XyE3IHj/tiL0quoJObsdYx7R9eAnRPptTWtAzbSMWHdmqqHnKIFYya4uvsx5BSVwerWTlsFHKNdGUuTRMYJE+qpVP+Ebq9Tx5WfyGPSmnhdR/XRBECdnUmbicZsK4C9OzxjPx9YY3/qXU2YwEMMk8AOES76UvZHktgfT8zYM4BxIolnojVldQBRGQKBN6gHiDqAqNdQOIBQhXEEDCgEwQmv4IBQO4QDojMA4rCt3nA2QEQcEJoi+TPlUUCQQjACb4GHWFalVKAPGARE4CH8LHR9VggMktb9rHQCQle/FHqJJBIMuXAhGFR+lrfgITaHQNxvmgdKQIRd1r689DDMA6KfysKFixwQcU0KhqHVTJ3qnSNUzFkPcXqAUvB8DPckucC/zczaR8PTXIVT9oe+GRLHWfvG6Gq7v3vAzoskbZY/dgjDdnWttSY8TWVmtVX2TQPFqMVx/anEkPWSFPZQNnb0DFhbcsjaSEajVBKx+Dj5wrhFyCE0KZgqi8b4FGWm+jKGbSDWZadH2+yh/pT9gNzk9+kp+3NqiopmihA2bL8ZJqHM9KMRSt2VtjfTZye1dAFEkkSSUjI2bI1tfhaYunYMr7JTHqJ9kFIzB8QRMABCqEpgEBCVLmR0upnrnqfKWL3hTIBotWPLEJ5CYeP/KcNT5EGhEHJMWYfpGajFDR6IEqmpX03X8hAhFMDg1nNA+Lu0tAQAQZAv3b0VtEdUAMQqeQgSm6tv2QkQ5A2uevBQSAmgyPcQ8eAWu/hAHhAklCEQ6V5CBomlxjr04gHGe4Zte9+4vTI1az+YWkk2TzXRP26/GRqz/5ycslcmJmxrvNPWkqgNUxGkulZaR9ectSbnrA6gGtOzeIFZSxAG4p2rMD75Ah6gMTlpDZSvTckxl0gqiVTvZhvgtCdGLBLX5Bwcw/EJjLm2vdtuTfbYezMkr1Qvf+odtY+pfH6WGbPvD4/ar8bGgJQqB0/2s+FVdqB3wAERb+khoZQnIH8ggawngaxux9CUrnURKgdgqMar5cOQSyQXAiH14il6vYe4HA/x0mFCxlnkECSUpS1UEq0YPwIEAiKnz5BX6MnIGupQQjlc0tzvVMx64CGoKhwEwToHaqohBwJQuCfeBlA4AcMK8gjnHYKWSwGhKkMeYtvN91l6TGMZNMppDoVAAAFa6CHmAZHnIXpTeAZyiM70nPWnV9vKzgG7E4/w5em19rNxyky8xR8xwi/JGT6cHLEvDmXspHiHDRMWuig/27sxevdaYj4w4G2a8RQdeIwYamN7c/ec1festtqeGatPkjS67m28AiA0CQgS2CgwtBN2WjqmLRKbtMGWfruIRPD5wRH7r5XkDINq4xi1/wKAL3el7IOREfsZcP6e8vaPhLifjax2QJzY0mkdLd0kk/IEeIhWP3lYFR6i0k0tCBAumVzQmbXAO3gQ8gQQ5fXkEHiIvS/hITaeARDNVBdNANFCctkCBEouveQxjtGc2xQC6q5QZVFKLlLCZ3ggXENUCERQcmqbg0FGVwOUSky9FhDyGFLgHQIglAWvVsiQh7gZD+GAwKALgeD1pwaC/CHZS1IKEEPJlbahc9AeGlpp355c68LFn3uG7E9chT8fmbTDVBWfTRO2Ej3WSWhp6ZslVKy1VgEBWE14hybifFvPHK8VRtaSIK6xOoBo6PaTgkU0VSBAqP2hITWOt9CoJ8AChPYouUhkyNaTK32esPFVQsGvx6cJVcP2E4B8L5W2pyKt9trwgP1oasZ+iyf7ODNlPx1bY/sBYlNL3GJAUUuiW815mlpG8QpDVgkQFW1pgAAUYPPKAyHQPAgaKTVDNaUAAg+x9QaAeAcgTgcIjZRqsiVl8hLNPsFU1RF4jOMqolzgPQDQ68VvEhTFeCGA4OoHBsnPZisgNHoqAEIk1Wrp1+UVHAxIoUIwqHm7CsJnT9So63cB4j7LjKtlMgQiGOkEEH4s5Kf1ECSSANGTXmMj3ZN2GiHj6ZFV9oOxWXKHCfsrCeaf8BC/wDjvkkxe39Vn4ySUEaqRuoH1hIj1DoAoRo+kpq01hWGTGD41Qy4xY82sa2qfKLlBnGRSLZJRYGihLK0lBKhXM6IEMzppCa7qkZakXY7L30+u8KPRNfbbgWkMPmVfHx2z3R1Ru7W2wvaN9Nv3J6ftN/0T9jHH/Rgg9qUH7ITWDosCRS3hoaZ10BqbR622dcgqAKIcD1HD/+dDhQciC8MCEObBwBVe0ZgEiIRdsPV6e/6ltwHiNFte0WRLyxpNs/LrUQ3HKsEUDCV+XU8MLsHDl+JddIOVV8Y3TLnGJ8JGkaCYN9M9QAiA4JkT7kEkNRpyr4G1Xu4xBCyLiWHVLb0AcZ49c+ht98TdtMZBqAs7C4SH4u8BIsUVnEQ9VBFjxPXzeodt/xjlJsZXszQnJpEjZAyvtPcGV9qOWJ9NaIQTOUc9ZWobMCUJG2mSwhTeJQksWnYTerpZ9rjEcsj6yO4zqDsxaLHkoDWnh62a8zdqAG18xnVxqwt7XSRuOzHu1/j8Xw+txuCr7fvTa+xgX7/d3FhrW6qL7fmpEfvuxCRhZIIqY9r+i0R3X2bQNkZi1t4aANEyYI1NI4AxbOWctwyvoQvKdWdnQfgErxDAUOmkJwgk7LzLr8M7v2krN5xqKyoabXk5QKjXk9ChRqpjihVGNGtMG/aMu+GPuqBLGlOuQpSyQBSTTEoeCMEwHwg9nMRBcQQQeAhBUZPAdZHZ4yH2EMeuIanUDToZtVAGQIRe4u/yEMT9ZGoVYWPKxjuH7KL0oL0wNkOiNmV/yQwBRB9uedh+MThp7/dP2o62pE1TKcTckLhZjD5jk7FRmyOzXxtP2ZoY3zGSsplID2Vnj81giNVcoasjeBaWvfEM+UbGatIYo3/Y5xWcI0YO0deRtgt6u23fxLB9f3zSfk/y+3FmjtAxYzvbonZJRaldVF9uz5Fofpf9H/dN2J+pan4yOuuA2BDpyAJR2zxgTY14IQdE36JAzIMBzYMhD4gKXL+AOHfLtfbMC2/YzPpT7NiiaiCoBQbfBX5MYYOT5qT0QHRYCUAICsn1R2FH11LpOrJc2EhCS681cDX1z5xso2tOt7G5M2x87ek2zro0MeelaYulKWntaTaNVm88201YfvDV923bDZ+3NC41PUbI4EpSH4Wap9UyKSA0dL4DGPw9FQIirx1igAogO5PsSuvUPNO944SMAbskOWAvCghyhr/09ttfe9Ikb/320+Fxe3tw2i6jrBvtnrYoVUVH9xob7Zyy8wDlVrL+naP9JJ2IBPA+qpJ7RsZtJ+d5gFzkPjzMTSR/m1Mj1t2dsdoUmT75RHOCErWd8hXvp3aEB/sG7esTVBNjE/Zz3vO94fX2RUrL85rabEN1g53V0GbPAsj3OO8f+kfsL1RBPyXE7U2P4iHi1q6QESGHIKFsaRi3pqZRqyJ8FJNolrQBYiPlJomdb3QCAoFAjC+XsE05V7NUBghlDbxuyKCkldXG7fxLrrGXXn/frtx+m42v3GijqzbY2OwJNrIazWxy98mMrjrRxmc12Rh2XHuGTW0426Y3novOs5E1Z1gDOZOfdIxcoUD3ZxJTNGXwDXc9bnc/ss/ue+yA7Xw8p/t5ff9j+9E+pwce329fCPTwkwft4Cvv2Xtf+w+7+obPES5WWy9XR88QhuWq78TggiEHhAdhPhB4CgcEEGVWA8MqSs4Z6yKeD+HKL8FQL02stJ+PTtpfU332l2Sv/a6/z/4L476G11D7Q5/mbUiSxCZmbZYr++ahGTu4aqV9ZWbMvjUxat8CqK9OrqRSYRul61cnV9t708fb3pUn2KUkkoN4k2byiDqNk+wgxOB11rR22dVUFm8Oz7ic4dcY/IcY+u3h421ros9WNcVtoi5uJ+O+nwb8741N28dD5DdUID8enbY9QLM+0mltLXoALUbWmIgGEl+8RA1lZhFAFFJ+CojaAAjNCJcFIg+GHBBpYCD/YL2cz774suvsy1/9jh049I499Di2e+RZu/+JPbZTenSvtxnb73/igD2gR0ntesG+8NTLdv/ul2znky/bzfc9bZmZkwSEEkgB0en6IzQaeuuN99l1n3vUbrr7Cbvlnift5nt2Od1yt8S2ux+3m+96zC1vAZ5bPv+o3Xb3Y7Zrz8t2+IPv2vYb77Je6u8k6ia2CwjN8SSPEN5c82mA6O5dQ8mp2/CmKTtH7GLCxMsY85cYxJJ99tdkmuRtwL4/Om6HgOT0WI91JcdIGtdYKr7KNreNcVWvtg8pU3+KG1ev50fE9V9Quv5saMJ+NjhuPx0kQRxba29PbbZrEpM2SaKn1sq67lFr6+i1/raEO+/DJIjfHV9rvxuato94z7eHV9tucpsTIhkbwHgDjWnbhEGfHl5n/05J/NuRQfs9FccPxifsqX5CVqTLIi09lJgkcJEBa2ik0mjqtxoAKY6SxxE2QiDmhYy8EBFKEMhDCAo9fai0JmoXEzLe/8p3bNfuQ3bb5x6x625/wK670+v6Ox62G9l2EzZydrx3t92y8ym79f5n7Kb7nrLr7n7SLr1hpxsRDxC+xFQHlXKGcsofJRgVrZRDrbgufrC2SRVIXbGVbK/SLWRqXdM6nqWB5GjDSefb84fesmtvudf6x/X4Ag+EOqviMnQAgWD4NEAkk+usK7XOzS+dwv2e3z9oL3FV/3pkyqynzwwv8euBIfsuLnwvBj+5q8eiJJ4t6VWW6Zi2M5rH7Kmkrth1zogfs+9PPWP2ZzzAX3sGOAdKDtsfMjP24fAGuzE2ZSubxizWPgkQgxaNxm060m47utP21vg6chUSSUranw1M2pcof6+LDdpA0wDl5Ij1YOCN6LmxE+zbeIhfjwzYb0b77HuTI/bEQMrmIt0W0V1WhIZSVM//2NhCgtnWbSVRYnl7yqobAQRIPh0QKSuVKDlLqiN24aXX2AvkbyeQ2FeSE+hxUwVVbbZcqoy65F83ZFe2ARxhsFw9qRqMExuxChLqCtbL29RS6YBQW0QAhR5vyDI70ZgrM9X+QK6BwgnR/agpjgtKT7m4dZvOdY89uoYqo3dE3dmEi4EZjK7WRwyN8XUn1acFItWzwbqTGy2a0TSCY3b2ADnENBm+PAQJpZFH/HqIrH58iupjys7oSVm8d8giGoYfm7aTWibsnp5Z8o419s7EhH19ZMx+hPE/0pgJPI7eD2n2R0LS10iAr4tPkmxOWCw2Y/U9vdbbFrFzYzHbTT7wXbzIRxnCBVXNt4Yn7DGS2ZMb45bCeAmSw776fjutrt/29c3Zf4xO4SEGUB8J6JA93ddtG5q7LM6FU08OUaGmatQADDVtcSuLJoAkRWUxYNWfEohSbKGbpTRvdXFVKznENtv/wpfcdACFZboxR7PHUF2UtdpxAKGbsos19yggllLWFrMsopIpau5zKmTdJ5UhEK5l0rc/+IYoPwbCTzYW7gvl9zsBj1QuIDZrkO1h266yc4SScRhD4h3kIRIYOtFP2Pg7gOh1QGyydv7kDoA4A29wEA/xi6HxLBC/Gh4hZEzbyyR5F+M1UlzZmlG2m5Ax0zZtZ8Yn7EKMfnEmYdcm4/ZUtM++np6yn1OZ/HFg2P7aN+CamT/Ao23vHLPxVqoUPERDQh1fEbsrlbavUmb+glzoN3iGn1BSvjqQseuAZa6m0YbrOmyITH11VcK2VHbZGykqi5EJcog+8puU/XR02F7o7bGzMVw/YTmKERtaU8CQAo4uqwaIcsJSGa8rmoHh0wJBMqm2hLKGhBVXt9j5l26zfS+8CRBnWoEbJqfpBtXr2W7HVnW4fqcizlcCDCUt/R4EIBAIKwItACKnQoyv5mo9IkHrR+5XW0UOHDVa6Z6OtZsvsL0vvgcQ91JlKGTgJTBwF+oMgBAARwcirDJ8QpnsWU9OsNHaKO86+sfttP4he35yxn7CFWo9XN0CYmjYfkSl8A5l4DVd/TbUkbEOqot4p/KIWevrHLfO7m5rS7XYcGeLXU0cfxlv9YPxWVw6pSGJ3x/6hu1r46tte9ewTbQMWXfrmLXhGc5JJOwgeYaan3+fIQcBxP9cOWH7B7ptR2u9ndXcauc0cVxjh11WE7N7KL8/JCR9NDxmf+zP2B/SSfsN5/8yUN3C556GYWe4MrsIty2Ej3oql+rWTqsEjHIgKcdY6tKWt81PKhcmlmG4KGmkwtCswgBxwWVXOw+hWegK8A4aK+kmFNNzPaspKzm+CBsVA4OU7xlyQGQs95jGBSqsy2nRfWqrWAjEJoB46X1300fviNoeFDKQHkriYFgcCHdDLklnDBhiCi2UnZ3kAd1UC4nk8e4Oqzhu/SSqjN0uw5+yv/YOUnoqhxhwCeLXqPlvJ+OfoSro0g22nRpGv84aU6usmOOWDyQIJXE7K5KyvSR+351eb78izPxpcNj+gvv/cGyVXdM5aDNcof3Nw5aOdti15Cjvj6y03wHbH0lWf0VS+r3JQXtzNEWi2G2PDAzasxnEd9nfM2jvJKgqUmP2+8ER+zNA/EWjpihVf9hHMtw7YQ/xu67G8820D1uUP7+eEFLTkrRqVIHKgMXlasAgj1sOEK7kDFQGFFIpUHggtK62oNYcEBvPcqOodZe3hsnpUdJLlAbo7jwAWAhE6CV8yOjTIFvftZ27y3uhcuMiJNfUHTZe5YUO3Qa4dtOF9vxLX3ZN13oWlvMOGtuAkcMphOcBIe/QR5hgu2CIcqykJFJ3VXVRZcR758ghWOePPiGesYczo/ZdSsw/UnH8OZ2hyuizX2KAbw2M230kf+vbukgoNTh2jTXhYWp6j7dycoby3gGLkxec3pEGiOPtO5Pr7FdUJn/hCrb0oH2DcvSazn5byR832jhILtFpn0sN2ddJjH9HlfOn5Lj9YXDCfkFu8JNJDL9qyv5zZtZ+DlQ/par4GSX2R0o6M4QLIPvTEB5skLBGSPotoenHY6vtazOb7MmJzXYqyWt3/SCl56DVKpHkM5WYl+I5Slt8q6GaABaTKkHNQy4YSqgyBERxTcQu2LLdDrz4lq3beLYD4lg8hB4nvaQy4Z6bLoN7IIL8gc9YKA8EBndD8ReFQcoBMQ8GFzKUQxCbkIZzaUb8514EiJt2eiAIAwuB0NwNiwEhENoFBFeRHl2UoKTTJGBRKb3SenDF68nE70+N2LdHZ9zo6b9Qzv2OK/Ejav7vjozbo319dmKsy/rjQxbrnLWWzg3W2LXe2jp1D+aYDUXTdmq8x/bhvb4zOWe/JmT8ZXAQow0RMmZsG3nJFH+6gFhd32Gf56r/GrnJrwkXf0kpER21P6X7UC/rfSSjJKZAo/6UP+Ch/sz3/gvl6ceEjD+MDtqfySP+ksmQq1CC4sX+k7L14OhGO799ylI1lJ11w1bTgBoHXL5Q2oKx0WIghMoBQT7ggOgGiLY8IPAQJa0OCD1jXA+r11AFHy6kHBDq1FLe4CUPQZXhDf63lAMiVD4QqjbU/T276TyAeM+2kUPoyXnyEJ0Y2U8sjndAuaTSg6AbdKMs2wHByz+1xoFAteCeS5GeJnSM28r2Pruxa8zeGlpjPxueIXEbtt8P9OKi++2nAPESCebWrm6bjqVIKkkOgSIaB8woZWhkkoQxY6fF4vbC4Fr70ch6+5gKyADLKGe/PDVhl6ZSNkRy19c8ZNNUEDcAwCuTlK0Y8pdDc/bRAOK7fkTV9FE/FQf6aABRWn8E/B/x/X+HR/kNYe13fJePByk9CWk/Hxu1X+CN/n1qjT2LZzo9Omy9NQMWqRmz+rpxq26g9MMg5c1KznWPLcZXiAgUQuBB8LmDbrvUNA0lDQoZbXb+lmtsnyYMOQEPQZWhofYaQOsKAOApFhDyEIGXECAOEgdCKAdELhx8OpFHsMyFDN/rWU5NrfsynqMW3nbjPQ6IHuUODgauUBR6Aw+DzxdibNccDg4E4msbJWZbejXxXo8vmrYIFUFL7xSVw4SNUC+f3zZsT7LvO5SBvxoZtd8P9+LK+zDChP0bFcDD/QN2XkJD3NLWj1dIUX6mqRoybWM2SuJ2Znu7vTyw1n4ydAJhZxXhgqt8oN8Oz4zahVQDaYDoJIfoI2ScNzBmO6dn7eD0Wnt7dJ29P7TRDg9ttndZvj281t4CytfwVm+PrLIvky99je/6Q0KHhvj/jqpI4yR+Njpm354atw8oj1+iHL2L0LQ2RmJZl7FI7ag1AEQVQJRjkMqmLsAgHwMAnzOQQCpfCCAI5ZoE+O+l4npN2BKx8y+/xva+/JbNYYPlFZrvod09+L4YL6JQoIEwWnog8nKIPLmQsbjRjyZ5Cz9eIhc2QiB6PRAvvmtXAUSSq7g7AMI9gwJlgWC7yxt4LSAcFMCQfUwRiaDUnp6xCLV/K2Bo9vn+jlHbxBe/nRzhfa7an+DyfzfSb38YHrTfsf5fk9N2eGzaHk4N2+VtGduISxxv7bPBWL/1dvTZaHvcLmhvtVdHZu0/MfBHlJF/zAzYnwTE9Chla9IyZP+xllGLdKRsgirmtHS/bUn22bVUMDdQll7bNWHX9IyjYdvek7GLe3vxSj12U7TLHmzrtsP9E/YTvIbLJfpYB4J3hgbs0UjUbmjtsDM4bxowWzBUfYPaHQbwCH0uHFQ2kVziBRYHQvN4yDPkA6FKMO6B2IqHeOVtdztlgR7TSP6woronB4RGRf1zgPAQ5EtjJnI9ox4KjakUEHscEHd7IHChehiJeyAJBu/g6ncQAIPChDyDQHBQsFSY0JPspGiSJeEigndoTc24benulbYyypXcPmhPc0V+e2IliSFZPZ7it8Oj9tHIGFfklH04NGnP4e5v6eqzszt6bF0sYVPRGAlni90Ui3B1T9v3R1faL3nP7/Eu8jBfnhyzy7t7bRCAopFxq0xkrCWRsgQQ9ba0U3nECCVdrCct2dqDOi0ZiVmc8rSnqcUmqmrt7Op629M/Yt/Hc/xeuQS5h0rig5SdV5TX2tqSWsvURq0ew7uyUqUmpWcp5yqlLK1opOxsJHQsBCIIFcUNahvyIVrh2kMRArHD9AjtEIhlFboBR8f/rwCBm/ubQChZDLwBMLRLDohVAQwrLZrKSfNGtqWAASA0b4Nmf+nsmbXBzilbHxuyG3pG7M2JNfYj4vJv8Qq/xyX/kez+D+QVPx8dIXyMEf8n7ImJcfvC+Jg9oPs0RkftDRLQ/xietJ9o7COVwG+HMm7o/FcIN1d2pm2YhEtA1FBCNsT7rJV8pD2atPZYrzW3Z9wTbOqjmole80ynrCmStGhzAkO32Kb6ZnscT/VNwoJyjN/h3f6L6uIAnubcqlYbqWizdgxaikFK2/AKVETlbVHW260EMMpJZsupOhYCURYA4VuP84Dgv1fIKFKVQchwHgIbrKjEO1QlAGj+mMm/BUTRPCAwbnbJB2lducInAeFnzPfjJgTE7KZzAOKdLBBdRwMCtRM2skCQRGrCDvfgU00ChjQzXBuZfQhEJLnG2pJUKV3TNhofsVOjGbu/d9wOT6yzH6mRaYiykPLuT5Shuup/Njpg/zE1at+cnrRvTc3Y9yZWEd9X2k/J9j8ivv+KzF9A/JqQ80sAendyxq7o7AOItLVHiO0xTQjm787W9Em6U7uWHKY6NmpVeKnKthE3FK65ecA6yNIztR22sb7NHqEM/cY4lUk/eQTlqkZW7UsN2qnVMeut6rJGjTshaS2J9FtFWyeKAEbEAVHWOAwQhBAHA4lk0AClkOFDhUAIpOpOHqA27srOMIdYs+ksK6ySd9Dgl0wOhoVAsL4YFB4IARBoucQH+dcBIA6KnPxtfixrgMH1fajrXEmlgMjPIfKBIGS4nEGhwk/l44EAEgHhPMSMFzBoVtmIAwI5IGZNE3m09cxYklg+RY5wQaTXHqTUe3tkjf1gZKX9HGPrpt6PKUV/P5C231J9/HZwxP7UN055iJJj9nFaJeK4/XpAd4IP24/xIN+bmLJDAHNJ1wAhI22RtkFratc9mNKgv1WfyqC2fdSq26kK2kgEW1m2jFlT04h1cFX3Ud5tqovZYyPTeIhZ+1X/jP2G7/aDsXW2p3fENlcnrLs6Rd4waEUtw24MY1VLp1W3thM62lzIKAWIsiwQAQyAUOw8g7/hOh8IFxIAzQFB2bn3pS/ZmhPOYltw866rHLyHcEuqCLeOBERJy4CDIGyjyALhWiCdN/hkZVsqUTGxKawyNHpKd3+vcWMq5SF8laGQsViVEe1bAwwoswYgeA0U/nGHyhU0i4uSSN1DodvyBYSfxKOFvEJPzY13jlsfRlrFH3dWZMDu7B63Q0Mz9jVKxP+aXGW/Ihz8tm/Q/pAesj8lh+2vXVQSiRH7a/cYpeEUJeRK++HYSsrAVfbBzKy9PDFrd/dP2kl4nRRJZbOeY6Un5saGnadwwivUtY8hwomAiExYZesEy1FrIvYncdGbieePj6zGQ6yzn1Gm/mxorX1zaoM91jdqG3H7CS6mWo4txquUcvVWkxPUUt5WNenueXmCQUQoCUOFg2I+EFkpZABEIUAUEY7Ou/Rq2/uiB6KkNuFhkkdYRDK8pn+Qp3BN16w7j4HcIFv/ZF8MrHkiMLaMv4wPW0rZsgwP4Ga9x/g6NgRCCY1rh6DC0MPYND/Eqo1nuTGVaqnUeEo9QF3Pyl4IRAwYBEU0D4g2gGhTu4OMr8k6yB+aewXEBECQS2hArOaP7J4GiEnriY1ZumXQBqH+eBK0S2N99jni9tO469cmZuyrJJzfAZDvT87ZD8g1/gOjfxt9dXrO3kEvjK+2XYNT9vnUiF1GLrCZBG+Ykq8DD6FQURPXTC8j7sbc+ui4NQBCA6VrA1DUsF7BtlJJ+1sHLEHYnGvstjsB4sVVG+396Q32Hjq0coPdNjhuUy1d1lwfJ7Tyn5E/OCAoPesIwdUa2+AamnDxrGdDBTBoCkg3J8dCIBQysE9hVRS12rmXbrPn1bm1+Rzep3KTEMM51QZRxGcVBjZ264KA7bpdU0u9VheG2iX+RSEi30PojaW4kpxIgEi09NRfv97POokP25Q3lHNFlZN513B1rTv5Atv7yvsOiDCHWMxDCAgHRQCE2h8iacICQLjpAQGghXAhGJoEhUJHUjO9jVusSyOkJy3RMWEdGCSGgTJtwzaDEY/v7LfTu1OUiSm7NdNn95NTfBE9NDjEer/dnUnbrZ3ddm2827a0d9k5VA2bMeJKsv4Rqose4nobnqcuNmjV8WGrocytFQxtfA+8QXNkzN1xVUPoKIuNW1GHwGBb65B11KdsgHi+qb3bzqf62NrYalc0tNqFVCgbmlutu76VErPdiqIJW0aiqoai6jo+q3bYLcswVGm2n0IgeBjk+gVENlQE8kDIS3S4lsrzL9tu+19+2zadcQmhjfwEe1VoagE8W5XmnQgV1fgHrzLdaa5t5EWlEUKZB8InjwJDBDXhkmc2XWzHn3GVbTj7att4Djr7KqcNedp49pXoCjvh7K22CZ18/lV2/R0P2MvvfJ2QcRchY9blEG4YHAbPlZ3A4EAIYEirIYpQEADhoAiAaJGXCNYFRBtARDtzM8WGz7qMoa74mHUnBixJnT8Y77JptLaj2zbGum1DrMuOj3XaXCRuq+pjNlEXteGGuPU1dVtPS8o6+ANjGF+zzTZh6DpUqyWeoB4YGqk6mskXmltJNCPKJfwfW4qqAKSebS244TauzERjzJJ1zZapqrNMRY2lquoJFc1W29xuxXx+ASAub6dqwD1X1w9aTe2QVdUNAIRaIxX3kYAIvEOxM77kx51khecuxotr7q/i6lZyiKvt9cMf2i2ff8hOPf9q23TWVbYZ+20+d4dtPu/aQNd5nX+dbeL1Cedei313OM2estWaSObdrXwKFQKiDNfXt/JU++xDz9sXn/+SPX7gXXvy0Pu268Bh92jnJ/K065D2vWO70dNoz4uH7Y0vf9Pe/cb37Kob7rTeYQAgB+jE0JqF3j9QPQgXLkx4GNrVEKVWySBk6J4Jdw+FQgSKSHoMgdRN6AAIPYikVbPEhnI35vrb8po7R9GQtQBHJN5PudhvUUrFDq6AOMlcR/O4tbcS9/EqNXiC8jhJXIKrFNhqKWlrO6atLjqN4acoKSdZ4gEiI6wPsyTB5KrSLXiaIU633lWxr1L3V3BFymNWEnqqIlIP6ua1V0F70pa244kjhAbg0XjISiqOKv57jXEoJeQWk2QWA2m2VTIAQve9lFA1uDm/qiV1eQsI8guAWF7eYOdtucq+8s3/sFff/tAOvPIVwsf79uzB9+yZg+/bkwe/jJ2kr2T19Isf2FOHPrAn9n/ZHt/7nn3u4UM2MneegAjyBoDQjLZ6Qv34+vNsZvNFtuqki221dKKWF/I6p5UnXeC2+UdBn2tzJ52PZ7jTXnjrA9t2k8ZUakqglabR0/IQHgiU7xmyMOAhsrmDVwiEnmmVlYDomnA337Y4EEIwpqwtAVCAoX3NJJBNncNOmiPSPYqAq1mTg0a40lswYiNXuab1qY4PWhXH1XSOkDeQH8g7KF9Q6enuvxxBfhJRzQNVr5DCei1w6IYbjaCu4Xw1lKDVGpYGFBXqj8Cw5STaAqSS10WEVsGgfoQyNUA5GDJWhVfWGIdigChsTeC2jw6EUwBEiQPCh4yCikbKzm326rsf2LW33mMnnHaJrcV+60661I4/ZYutOXmLzbH0uhxtdVp7yhVuuebkrTa5/kI3d5avMlw5qYSRBBPXVQ75FWTaTvqRLL34Ie0ZtpM/uNHDGatkWanBHh39dsIZF9reVw/bNkJGz4B6LCcDD7EKINTeoDIz5x3+FhAtQJAvQaGJxvWUGvfIAeCV2jRDXBwg4ryHUKKn5msq4Vq8RbUEJNWEmVryjiZyDlUMepi6e2AquUIdHqJOS00XCDi17R6AWt2aTzipbsd4UY1FxM3zWtvdnNMktTUCohUPw3oVuZV6fXVnthv1JLl1PALrZayrNdJ7Bg9EhRJKwkQRSeeKSMIKyWsULsKE0oUMQCgO5GHwQJSQQ5QARGFlC0Bst4OvH7ZTztlikS7/lL8G5UD8zmp+b6gawqKDnvzHr4caJ0IMA4SSSgeFkko1SKmikFRdaDxlWEmg+i4rcOp0co97xmWtqCF75mqY3XyWPf+yOrfusqRGWqenEGUioSCmdgaFBbU5AEbYbxFJCQZNFnokEMofvFSCChC2AUVzCAVLKdI5DQyEDDyFHqZeDxA1AoE/pgKVc2wZx1VQneiP0COU690fprJyiD9PJaZmhdN8DeE8kWT/0TQgAD4qd8LAgoKLIwtE85CT+iTc8LdGoGjQcsAqA1U1AQvbqoGguq7PapAqDIULDYcrwZsUEi6Wt/JfNhEO+M/DpNLlD4LBhYl8AUQV4r8vqgKILSSVr75rG0+/CGDxQpTkuhNL4amI8KTqQlIUcKWnXgdVh9+mpXo7FwDhRmADhB9Y6+EQDB6EfAGEFDxApRzKZzcFQBAyNPOtZkxNpKetg6UanNQa6XMFeYU8IEhmwhARwhAC0eQEDJzDwQEQTT2T1qRHFwXKTeqhScY1rzQwEAIqu0aBAZEfCIhyjqskxNTIgwBFY2yYJFIhhSUgNDogMDJeoCaaBIYkMKSsDJUChKQ7reQtdZe2bsmrwdhSdaOE8RukQaBAbKtsHMYL4HlIHOtq+6zWSRUGnpVQXYYnKAKIgmaqj5YOykCMzX+e7x3c3XFAIAkGt6wCEoAordGYSt9Suf+1w7bh9IsJXWqhJDwJBiCVoYvV/hEKIEIosjBoTAT78voyPAxZZT0Fou7N1/I8L1EQeAkHxOazbc9LbzsP4YAAhs7AQ2hsgxqf2gghuTAhqRUyBEJhIQTCewcPRCDBkMTwANHYQ2gIVK+EEE+gEFEDDDWEAOUEgqLKacwqQyl8AEQdHsIBAQjN7XrKvs8RVLIpRFQDQSVAlKMyqoJSPEYp4bKcq0+TgWn+SN2UW6OR0oDgYGikzGtCDSSZQFAhGJokvpOAqMmHIe3GRpY04oEb+T8bE7a8KU7ZLyDIDwSDqyaQg4D8IoDBKQCijGPKqJwuuOI62//6e7YeIDTM3nmGZjU8qZVyIE++1XK+QigcEDnDLwaEv/Vf24CBsiqUhwLpvkCAUEulA+LFdwDi7iwQoYeIOSA04MUDMR8G3H0WiJxyISOAQ0A4GOYDUdeDkbuJg3gDhQpNLF4XzxcAoFokGNS+4ICICggvPbDE9VXgIaqiGJjwIFUqZwIQgRDODqdlRSv7SCCr+BOlSv7oCqCoAIhywCh3zdAIILRUziAQfFWhRNK3ORQHQOgB+4UNmhEOQwNDCaFCOcNCGEIPUSggyCHKsE85MF145Q0A8b4df9qleDAMr+bp5gGAYB1P5bUYFLrrWx4lAGIeBPlyQGiZ21bQwLY8KMIZZPTcLT2ETTPZqi9jHhDAEMdLxFAUuRFQnxIIJZJZIFg/AgbChVRHKKiRKEnrCAn15Al69EBTVpp1Xh6BJDKQ77zSxF+EDxLJOqRZ4KqAohIoNL2Pn2IYqYJQvkCIqCJU6EalilaMiir4IyUNcCnjjy5rHrRSQkiJxHoJRpEB1BJZrlZIQdCkEdBIS6oJtTwW8z+6OcQFAlJFkQMiB4NUiHTzdRFVRnmTRlh12oXbbrR9DohLSPo9EMV8fhHfowhIvbQ+gILOLUkgSBped3QglFMol/C5hdtGrPNTCeVBEQKhp/IRMnz3tzxELmSEQHQQKkIgHAiBWgMgWnoWwKBb8UMgBMPCUAEImhWuoQsAOqcAYQYQpjH0NFc8742ScLaTeEYpUaOUmqgZ42ueaXkED4MqDkKNsm9UBRS+JQ8wKEtrKDnrVHq2ABFXeh1/sKAQEGURjBshv9AYSDyF5lfwM7HIXcsg/PFUHYWElUL92c2anCPFFct/ycWzooX/lWWhgJBHqKFMxcClrsHpSBj8XfZeWSDI//QQfgFxwVU32POvvWdrT70ELyYg9R1CEPIlKPK7v4OhdEcCIcOHUlO2L0V9ORrCEAIRaB4QeIgTzrE9L+AhbsBDDPqkMu4kIHIeIguEgyEEgsTRQeFzCA9EWFkgXjeRGIZy3oHqQUA0JKaoGGaAYQZjz2B4jg+g0BNrvPT0GqDA0P7hZ5SdvK5HgkElmevWFhBqiQSGmjZCSxaIIavjz6zB0JpMtEwNTIKCklsjpf2kGwIi6F0EBP3Rhexbwb4igJBXWEFoLUArWoCB1x4IlY+4/xoqC7UvBBDI8E6CAEA0W496lt2cHYCje2bUKeaBuNGef1VAXMz380CUAETxETAEQCzqIdR0rUoCQ2dBcMpg6HD8g+ar9DPPLVQIxAq+sGLi3Mbzbe+h923bdfdat/otMGSMCkGKonaudg16WegdWntCID5B3Rg5eFZFU5ek0tM/s6KB6kLTGOSrXqEjjsHz1TFG7iAph/A1eo1CBV7DLZGbfJwrrJKyMlRFq0SOsEDl6tfhz1xMpfy5pWTu+VLHlW6AcgNkJdbdDVFccGFnoZqkQ6/gQMB7aNaeAl147NfcUArneuhNkT4DICtau+0ihQyAWH/KJa49pESVBcYXEMXkNF4KXz6Ezcsh+L4+h0gLiOC+DAeCWi1RFoYQiPxpCUMBBF/MTTEEtWptm9t4LkC8BxD3LAKEh0Fd2383DFIARAhDKE1AvhCGTwZiAQyEBw+ElyYEq1Kn0N+AocJ18OEp8iDI12JAaASTnxY6DwTJwcBF6cY4+FCR9Qy64PiPBUIodxzncq2eaiD8JwHhxkPkbtJRmMjB4OaacsqFDjdrbRg6WHek8mXlynT/oQfisG27/h7r6Z+1eACD5LwDuYADIoTBhYqjAbFgewgEHkFewS2PAoMkILw3yJcHwct7hBCEEAb/eILFgZBHEAghDH8PEG4uabxCCIEfS5IvLi6MfQQQChELgeBYdW2X6ju1eSBcUvkPewiVnXiGnDfIweDHTIZAyPg+l/BTEiL3o/hifFnVypozcW7jOQ6Iq6+/2w3BD4GQd9CoacEghTB477AYEIvAEgDhHksQKDT8osrzBvlewTVNA8PfDUQeBE5cTWVOnxYIDSoiZ8gDwI16koL1xYEIQ0YOCOUO6i0tI7SFQCip3PvK4X8IiBI1TGXnpsxTCIOXPEcAgIDQEiDc1ACEDQHhZqEDiLUklXsPUWUICN202zsFEFMWBYYQCD2lRiB8kndw+8N9gOBhQEHO0Bg8r6JhHgQLQ0MeEIAg+TAR9Fc4GPKAcDAsAGIeDIsBgfH5QxfTJwMRAuCVW8fYqh6qFgLhw/MyYBEQal0sowwuoyRWn1J5S5ddcOX19vwr7/43geA76rc0BEAUkkSG0uRjmpEuJ1wdP8SNwKGyKAzkhoQ7GDrJkBOmp8OtP/F823PgLXKIz7ueTj34SzDMB4JK4m8AEcpBoEQyyBsEQjaBnAdBHhSLeobFPcJ8GIayQKhsC2HIB2F+qPBA5Bv9k+TzB0JGAISMv5iyQFQRKlj3Y1ZDIPjv8eilVDHlVBIOiDYMSZVx3tbrXLfBupMvch1suto/LRBKJtXvoR7YfymQByCR1JiIIvIIjZX0Egw+CVJioxa0wjxp5jI9h6sEabaSGmrqjadcgId4Gw/xeevKTLsnwkWTE0jzQ/4DQOQlk4sDkdM8z/BPBiKrvFCxmPEX098HBP/xQiBqSeSR+h/KKH0dEC5k/POA0BgNgCA3ID9wM9Hxgd6lBSURX9zlCBi8ULeMSeq7qIvzJTusqDZmJSxLamJW1dBpG046z00pdOW1dzog4ql/EhAOhsBLHA2IhWHifwqIvFCxWCWxmFxCqf9TYTYLxOJQFFbzf+cBocngCgIglNi7cAEQChmaq0ohwwFxxT8OhMZp/IsSxhAGfWH9aI1XcA9O79P8DbOW0ITkqKN/xmJSH1d/3yT7J60zM2Wd6UlLsv3sC6+yAy8ftit23OG2J9j+qYEI84R8ZUHwMKiyWNRDfAIM0j8LiGwS+XfCoPwh5x08EEeDQo87mgcEgOi2iHDsq4zogRhwQKjsFBDnA8Recoj/LhBemjDEfTm+JDDox2qmuC037LRr73jUbrxrF3ocPeJ0w11ftOudHub1Q3YTy1vQreizdz9ij+7eb19675t4iDuAYdwNoRMQ7fOAyFUZ+UCEoUEQhPJ5Q1BiBsmkAwIYHBBAsCgMQRKZSyYXSSIDeQhyQPiEchAYFgDhYPDyMBwFCpWDecoHIh+GsKpYFAhAEBCaMDYEQp68qIHPC2BY6CGOBEJGXwiEXodQ5AHhWlLJIZEbde2bp1NWxh+QnNhk135+l93x8D67+/FDdu+uF+1eljt3vWD3PXHQ7nl8v9392F6794m9vH7edj7xnN3/+B57kOXzB9+wt7/8bYC4nZAxbtGeEUAYA4QJ7xmSaq5ehYdY6bzEQiCcJwgM742P4RNjgbQuryAQpAmM7QfECgg9JVdSL2YIgIcg9AJqhRyxKgyfr0ogqGwbtgqnIauIDBGfkeL0J6iMxM53ZnmvITj8nA29DoB5yjZIAUI9RicMuyboPLkGKJbhbMGaSnoZMCyrJpmsxkbkehrXUAIIJS1DVtoyDBR8ZzWjNyfs/Cuvtb2vvmvHn3KRqzJ0w09p0zCfP8L7hj0QABI2XxfyG6QV/I4CgJcKWffD8AMgNHyugsxVz7TQc7i7xza4B7Rnn9w/oqfpzVmXZpjTpKSjqy05ovkoV1r/+Bo3Nd6+F9+yK665lTAyZu3dwwAxmgXCewffKOX6KdjmRj+pf0IhoUsg5CDQyCcpB4SHJAfFQiDkIQQEpWUQJrKK+pKzqn3Q3JNrnNS7KSAAI4QCIBwU8gzK5heRg4CrSxCEMHhvgNGyQITewcsD4WEIjR9OEe2VB0OgZYKiCg8BEGoPKhIQQQ9qKWAIXPW6ljXHAyDewUNc6KaOLOXYUiAoaRrhfcNOWU/hoNBdW4KiHwkGvAq/aR4QruFJX5wf5MdBiGgSS36IpMrCDZtzCSZJZV3UiqXadqtqSth6Pdn34JvkELcBhJ4rPRQAMQ4MkwEQXiEMDoKucZbSRN5ScIzlaTyARUDkYPHhAhg6hp3qBAPGrsXQOQkIvIW8QqTf9JBUPedacHhPQc4g7xBIY0rDvGG+dC9KCIEHoIylpHsq9GTco8nfqOs9QaH+x3kwAEBtgtAQxzOQsFcnWPKakLGskn16FJLKf/IC3Y5XKmFMVRq6L6a0KR+IC9w4Dd0BpjvB5B2K8BRS1lMEocM9RUeQAYK77xOwgyF0anzKAaG8IlS2eRq5wTABEKo09IhnVRpFNVGA6LTjN5/rqowrdtzucoi2Lk0RKCD0zKsJwsQkUuhQYqkubnkHDYFDWi5c79YjCsaAIwdGQ0Ig+PDgAAhgaNC4SFQPEHUA4RQLloQFyT1GGSD0GGWndkljHwBEUDgwyB3a8AT8qUeIWJub2gdDN6r7mdfBzTVePXnrOWmS8aL6TgeDq9TcE5FVrXkV1HTgCTqAoYNKowMI2FYJFBUAo7GT2Eh3e0nyTi5kuRyHz84CoRwi9BDyYOr1VC/nfCD0bC09Vqmsgfc7AbvuGnNAOBA8EOF6mFM4IADEZcTOY2gMBK4u+GGam6BI5Sc/prKp201cqqfLXnXdnVQZVBg9ChkjADECEP6xRa09Ch9erRhcapHhMbruqWhKjFBaDltjHCNL+cYOluF6vQwe051WA6gf47NEGgbnxkVi2ND4emyyhsnXtGaycrPw4nIrNdDFDXjRXWgS+VQTSfYC+cEomtCD18BQ1tiTXer2Oc0wn51lnv9nvvy2IkAoDLSC/20FJfs8VevWPAkwgKIQD6Hh9mXYRYNs3EAbDOeSXPIH3TVX2tRBUnmt7Xv1cC6HcJ5EQCg8hEB47yAgyhrwMICQvR2gnv/AtUMEIBxd8iA5j+G6vB0UeA3A0A8srkkARNI1XT936B27giqji5LU5xAklilBMQoUAoIk0wnPIUC6hrPLls4ha04MOjXFB62xYwBpfWiewu0NgODVb3q6nVuPst6uJ931mUYf1wJBThmrxeC1GF6qCVQFAFKl1KoJRDWTiyZS08QeXtnXLMsbu/lDu9y0wlqWB+tqpDtScUJqPLsMpYtInrWwun2eVlS22YqKCNKy3YoJIWVclOo8zE5m6sKUxmGo1RIIG6OuHWLfq+/b+lMuBXy8AIYu5up3I7fII7L5g4AgXAgYeYVKVINqUV3dwCcB4XtAvRaEkTC/cNQjEqJK3ObshrPdxKXX3/6Aja48wc133TexxjIknJmJOUuPr7Xe0TVO6TG/DNf961lLjazOKjkszSI/K25ySNMlr/Yz7A+sZD2U5tRe5R7F4B7HoLkxkZ8WcXUw8ZmkG4e83I3ImWnTxOr+doEpi6OO9KR19E5YjJK5o3fS4khLSducyImiQNzuRGiUCG0R9zTgEcAettbOEaeWQK14vZz0WneXDbo7zFoS/dYcl/qsqQPFMkjLfnd8O6E1lppxipJ/qStAPcctfKe2NJ42OWyXkbftfeXLALEFcKlC8ADKEdT2UOLCRC6ZVLmpwTzKfTSORc/dqEKV9YtOOhZCEPZ+al3bBQVSjuGAkOfoxj32QD9XDSFmaHKT7drzuj2x51W76c6H7Lrbd9q1t99rO9C1t99n1372PrvprgftujvuZ137dtp1n2U9XLptHOfk9197+/224zZ/zI7bdtr2W+61q2+5x66++W67/s777QY32/sDdi37vDj+Vo5F1972AEu9fsCuueV+u+bmneg+r5uke5123HyP7bjpHrsRkK/n/dfceLd75se2G+6yq28MdXfeek6aYO2qG+7Oauu1n7PLd3zOrW/nc67m/Nq2Zfsddvk1d9rWaz5HjvU5u/K6zyMt70Sfxat+luNut60Ydis52Fa93nGHXcFxV91wL+e6367/7MN83n12Ja+33nCPbeGzL+c7bLn+Trv/if32+J43bHrdeRgZL1CP4YFCQPiHtAoEP3RO7Q2FGtJH+NMz2zX8UWEwaJhaCMP8rvAcEKngga5+gIwLJbXKfnV/IXEMtZL1b7n6Tnto10F7cu9rtmvvK/bE3pecdu172fa/fti+/aNf2Svvft2eOfSm7d7/mj25zx/35L5XF+g1273vdfQG66/bUwfeQK+7fY/teckt3/nwu/bBd35kL731gT21n2P3vmpP6T17F4pzPC+9brue5zOfQyx3o6dYf+q5V+z5A2/aN779Y/vaN35oezjHE3xGvnY99zLiez7/Cud7NSudJ9Su5/huz7xkjz79oh187Sv2lW/+2N7+6vfcvkefeskee/plp8efeTn4Dno/68/ze9Cu51700jqfs4v/8Ml9b9ozB9+xl9/+pn3rh7+zA69/zXYfeMseZ/tj+1nuf9N2oQeffMEuvupzeLl1bvh/aQMeQVA4IHwloSFzgmEFoWZZCyE/gv1ayX1aushHqCTJhf4bQHjptZsDESjcXciolNpZDySVO4ySM3RQacR6lT8M4rYn7KRzL7WX3v7ALth6rfWNqXt8FPc7jPvVE/lR94Bb6rXXCPtH3TLeO2YdqVH2U8qyLzk0bbfgbR575qCdfM5lbp+qGiWyUT2QFXcexYW36wn/Tnqv8hbt89uj5C3RLj0fY9Amp9fbrt0H7JHHnrOxyXXW3jlobbhzJ9bD11rOE+dp4zwRhYA47h/J3Z945mVA8KLdfOfD5FOU2iTBEfKfVvIfKXcOrfd7dfVxvn7CD8d0seS3xEnOB6Y22Plbb7b9b3zN3WnfM7LG2glt7YTATsKpuhTaCSG6B7WKqqKyaYzkc4SqhvISL6E+ClUdao1cQbW0IoJN2yiFo9ivDTBayQOb41ZbGf80SeXR5UrVQGqW1T2J7nEJyiuUaTeQdFKiljR2UdplbGztabbv9Q/s5Auupqog0WGfVKKbU5Sg8p6wzUN1u7rc1c1eTNLmJujUowDq9byoGNVEihByjz20e59NrTvdSgQmKtH3QKV4sVIXzvzwdp/l67vxWdT9Uim5TznLcpLiGDnAw7v22/2P7iFWj1oRCV5RVYSkLlRrsGyz4irtk6KIsrEC8WdqKp9Swqhmop+cO9O+8MSLdsUN97nPL6iIcpzUbsvLIk4Fev4VrwsrJV9dFLFeRGKpDsNKrthyqpcWqq9Tzt9uB770DZveeA4l95CrijRZbFj2qvKoICSoeighOSytH2I98BTyDoQKAaFmak1iVsV/28j/Fanssq6qpI21jti62Mw/BkS+nLcI2it8q1vCNbaoElFjlsq54dlTbe8bH9rm87ZZHT9KtbduA/Q1uRpnutwgEC812/r15drH+VS/u2n4amOUlSn+7Dvs/sefs8l1Z1qh5ruqJtHFU7m5l9yS71LN56OCKj1QJG7LVN/LiLwu0kxt1PrFlHjtlL0PPXnAdgKErsxl5a1WUNmKkcj4q7Te7NYLqzCiKgEMJwMXAMOyct2S32HLK9WGkHCThk4AxH2PHbKt19/n2iGWlLXZ0jJgqIhxfJRj/Otl5V5L9fhEPecCFbC9mPO4aQK4OJriI3biudtsP0BMkrjXUmr7KYh8Y5ifaCRoe1DeUEeIwDsIBtc4FYSLEAjdG1KBneqruy1S0WVpksn1ybW2ZeyUfx4QLuEkZPgm2bBZ1l/xMnoJpdrgqpOh/N/ygFCDjMCRwTtteR4MyzFoCISDQoZ158SYXD2ag+Hy6wTE8zZ9/NmUv3gpQQD1uaWA8FC4lj+0jKt4uVoDBQVX9YoKyr/KGOFl3B7ZfcgeePQ5F1KWlXMFy/gqBbUUDK5M5CrnSl5Rpan/1IDEedWAxLmWB7AJjIm1Z9m9jx4E2p2uoUjPrlgiAABiaXnMrS8pi7KOgECAeGiifHaH83bu7i4M3tQ55oDY9yYe4oTzrJaSu8Q1jPlxFr6TTR1akk8mSyRg8A96z7VE+onO1XLajXfsshr+2zZg0nSPJ6WD6QD+GQrDhiBwnoIPzLXZExbIYgXEobe/ZZv5cXXEVAdD0G6vfn8PhOa18t292XmuUIEgwaCuaRfPUtWaotK4l5BxyCYBQt334WOidGzYe6htbkyBA67TlvFdJAcv5yuUqweIGEA8uvtF+8IjzwPHiC2VaycsLMMbLKvgqq32DUdaLgcEGV0QaD7pZUCxVOsBEDLyxFo8xOMAQVWgDN4ZPlA+DEvQcehYLfE4S+RxqhQy1TTuO8zU0bf53O22741/s5kTLnAeopir3F35DVz1GNz3XKqvQ9VETmqaDnMIAaH7RAqUR7RgL6oL3VtajqpZb6/ryAOCP1RGcL2fUrj9U8oD4a/MXD+/9xKCo6I1YyNrTreDb307AGLYGUXG8wYDAiQIsgp6+qTl/EkFCgmcW8+P0h3O2ykjBcTE8WfxHfw9C6EcCOFrBxriuywFBknbdMOLXHwRxo12jdtjAuKLeIjOYQdEAV5gGUu3DogCWN5FAGQFEEvREjzNUs4jHcuVru903xMKGfdwlXexHwjwDjL+cYSI4/ASx+lZFrxPy2P0mvUleMXlQUeWejdl8Eau3s3nXuOAmD7hfNfU7p7bjfHVrlDIcZK707vFK7wzS6Dkkso+QMhYAflHAYnlitZeEkrs1kL+5Vo8e3XnljqygkoiBCLP0J9WDgje6/r8Ayiyff9qp+CL6NmQB770Ldt0zlW4vSF3xTog5AFkdBmfXCAHhdapaqr5DPZJPkfocndfb7/lfnv4qRfwEAEQbM+HYjkASGHY8UB46XXoJZRLtCVG7TFKtwcBIgYQcu3e/QOFvIE6mvJBQEsDLcE7OGMGBtdjlSeOP9N2PnHAtt5wN8bgM0katX8JXsBD4QEIdazeL7j4zQX1lIe4emdgDNoAECecc43tf/NbJJUXWE10yHVA6t5NLw/G/Fv0ckD4cOF7NFdI2MJVG6iI3E7tEbrVUN4k94glGfYfAELSOdwI7QXS4JtyDDgMEPve/KYHIgYQiu0YWFd+AUZfXk19DAA5KDwgHgivFUChkUTql1BjkwNivYBQqJkPRBYEJ73ungeEACrgO8hLRADi0SwQIy75U57hcgPlCFW8p9L3Pi4FDgdCoOMcEKGx2z0Q684AiP3kEHdxhep9hAgXEkIPwVIABTDoHEv5Lss0pFEDnR0QuHyM3NA5bSec7YGY2iAg1J1N/pAFYhDjLw6EE9vDLu5QSjD9Q1MITWoGV6ulG3X9TwRicWFAgFDP3NCaM20vP2oTIaNWIQPD+iuf46rTGD5NeAihyHmJ5bpq8oHAOOqsygFxJp8TGBgQ8kOFl9YXB8IlqwDRmhizR558ESCeB4hRSsKYyy9URSyvIOeo5P2UaFI+EFrOB0KPNmqh8jnDtR5eCRAVALHc5SKEH/Z7IBRCAijwQDqHvpP+s0IM4wbDSBizMQTijW97INpH3Owv8gyhjg6EYPDjHsJtPt+Q5/A9nK4HVZ1m5CX/ZCDmN2SFCkdj5QOhbuvQMxRU8Z6qzFGA8LmFg6GG73kEEAdtCiCUq7gQAAgaqZzLTQSd90IeCg+D5K7IAIgWMvkvPvkSOcRe5yFWcAWHQBQEQCwPgPBewsOg0KFEMAwHSzD4EoCYPv4M+wIhQ83flQBRQGK6vILSkurFHeMEGIKCsCS4BHERtnDlY54ExKazd+Ah/h0gLgKIUQ9EkC9kcwaM7EPHfAmIcH3+eMoFInT8DwAxHwp/ft0274HY96Uwqfw0QPirejEg1LW9/Zb7FgCh9gyfLHoglJt4GI4EAqMGQKgkFRCP7AaIRwTEqAOiCCDU6CQgViwAwucRPsF0QOBRfNXggZgBiAfxEB4IAdWaBWJpWSvHAQaQOIgEk6onNaSpJxPjZofkuSqDpPKca8m/vmPTWSCoLj4lEFKu8vBA6PhcTuHl+jL+uUAIhDwYUDFfvACXrwEdg6uVVH7HTjxvmxvzoPitfcur+MwqQHJhIx+IMMlkP9t0rBqfHBB4iKtv3smfftBmNpzD5ykE8McLjHkhwwPl5YFwoUXi81U+qmpRj+JDhIx7H36OfGLYNTqtUDJZDhAAsDwIGYJiOa81eGWFcgslgnL3wKEcQSFD1ck0SeUDj+23q2+8x6qb+ezyVltWJhiQYGB5HNWIcglVKfrvC2VkjFZKTqCJR8oIGbqbqiUxbSefDRCvk1Suv8ANBtZw/EKO1fjKXNgQGKG80efJgaDcIdT8vEKz6f6P5hA6p+rpEIjh1WfZwS9910489yqr7xjkStYVzZ8lIABhIRBLWS7FK2i5PABCFYluc9O0f9fc8qA9+PgLNnX82XweVy6GFQghEDlvEIYfD4lgUGOVu12OK1zjOdq6J3DxB+0egGjrGiNckFQKCHkIAFTZGwJRoFFMeA0NXlF+oVLTAcHSXfEqO+dOdw/O33bDPVZB2amm6+Uyvhqh5EVYqjxVtaF2B3fXXIOuZhl4CA/hZ8Yvq+8H0JV2KkAcfO2brjezpk3d2TLwIECQYLqkUsoHIWyEWqj5QGQFLMoj/seTSj1kRc/U0Ejlkdmz7blX/g33d5Ub5eQbpuTWOdYB0XtUILyXkIfgeK4oTee3/eYHuaL32eia0/msPCCCNolPAkJG1l1SmpxD4SFCUvng4wft3oeetzbCR5FGLCmH0NW7AIich/DLpaoSFC5w/WqnOI6rf2z2FAfXFdd+3srrAA9YBJhrpnZAtAOEkkugw+v5dgeNV5AEhPoiAKKuz1rjM3bymTts7wsf2vTa86yubZj9HA84Dgg3TE7vWwjE0ZQHQiiA0EDh/3Eg/DM11OjRZz0jm2z77Y/bGBl4ZZtCiRp6ME4ARA6GEAjfDiEY1GKpElXtELpfQZ06J519tV2w9TbrGT2e7y0YPBChFgNCr/WZAsvfNofBy2LuuRhbr/6cXcL5GglHxVzxatZWUrmCz9NnZtsigMA3V7PO/qXo2DK1P1BJAJI8QHJ4nV2y7bO4+iustIaQomZrvIFv14g6GCTlH7rnwt1EAxCFEsbNB6I+MmZTs+faTZ990gYnTrbaVkAgvKitorh5ARCEkUUN/imk/OV/HgjOJyDkKSpaB62jb51raVPPpmtODkpPtTVIiwGhcOGB0HkUNjR0r8vcxGHxUcKR5urmXFyJfwuIpXymg0JGxqButhY8QQnrbfExxPlIMosFCgYsAIowVxAUPpkME0qEQfXAVF3pvsHJJ5bqlGpNjFpTFEORUyhcCAjXl0H4CMPFUryM/n8Na1PbwwokIJQblAmM+j4352VLbMoSqTnWec02DZBdATACyC31/qwW5BALXy8qlaAAET4j438OCJYBEHpEtHP7qgRcVSAYMA7bZPQcDPlAaB9LVyUEzeIY1s2zhOFcayJLHy4+BRB8rtsWAoFxZfwiDFssMLTOslAQBEB4L6HPYhtapiTSNWH7Ris9MFVXupLLpXgAGXwZUmKqfpJClgXyDILBASNw5B0IF3wnVzHoCg88hPIBB4QSS+cl+q2ifoDQw1VMCC2vy1gpQMhDOI+i98wDIoAiq7zXiyacCiNq1xAQ1LP/n3gI1gWE4rBL6gIgFNO9sbzxc8rfFhrUVwphx5V6F2UgD0QIxacDwnkmoChExYHcbfgYWBIsyx0MXhoBrZbLAvKAEELlCy6pdIllCIS8hs8VliPBsELrDgbKy9CLKJ9Q/kJJ7oa2OZfvXb9aHnWHlq80NLaBagOVCw4tkXoxPQi59x0JxWI6OhBFzRn7fwEPCgOe9hLIhgAAAABJRU5ErkJggg==;" vertex="1" parent="1">
          <mxGeometry x="1231.88" y="-1088.87" width="79.5" height="79.5" as="geometry" />
        </mxCell>
        <mxCell id="jUa_gXz1qckVO_bWwLGS-154" style="edgeStyle=orthogonalEdgeStyle;rounded=0;orthogonalLoop=1;jettySize=auto;html=1;fontSize=18;" edge="1" parent="1" source="jUa_gXz1qckVO_bWwLGS-153" target="jUa_gXz1qckVO_bWwLGS-132">
          <mxGeometry relative="1" as="geometry" />
        </mxCell>
        <mxCell id="jUa_gXz1qckVO_bWwLGS-153" value="" style="shape=image;verticalLabelPosition=bottom;labelBackgroundColor=#ffffff;verticalAlign=top;aspect=fixed;imageAspect=0;image=https://www.diegocalvo.es/wp-content/uploads/2018/07/spark_streaming_logo.png;" vertex="1" parent="1">
          <mxGeometry x="2001.01" y="-898.8699999999999" width="110.98" height="70" as="geometry" />
        </mxCell>
        <mxCell id="jUa_gXz1qckVO_bWwLGS-157" value="" style="shape=image;verticalLabelPosition=bottom;labelBackgroundColor=#ffffff;verticalAlign=top;aspect=fixed;imageAspect=0;image=data:image/png,iVBORw0KGgoAAAANSUhEUgAAATMAAACkCAMAAADMkjkjAAABBVBMVEX8/Pz19fX6+vr39/f5+fn29vb7+/v4+Pj09PTz8/Py8vL+/v7x8fH9/f3w8PAmPGoeNmbabjOco7QUMGPYZBsAKF9Xf405S3S9ws4NLGHgiTa1JjffgyaBm6dsjZlFVnteaomRma3j5enS1tzikkpTW39GT3f56uKvABxfiZKzFixlcpD35thjhpTlxsjuwbDy0rhJdob13dPWlJoAIlytv8PF0dOUrbO0tsIuQW1yfZhSYYLb3+TIzNVYhY7qsJTtyLvz4uN9iKDdfAjy0LS4xsvuwZ12kqDhjT3YYRKInqvps5zgg1FwlJzfgU3XXACvAA/kl3Pao6jQfofjs7jTiosAEVX8BjJ/AAAXEElEQVR4nM3dD3vbtp0HcP4TKYoixYpRJHXtZFFnp4mvubTntpItdZvbW9duueXutr3/l3IgAJIg8MM/knaCp49rKbJMffzFDwBJUc58Pp81LW7atGlu0yZt89sWtS1gmse1kG/OoCY8Xcj9PnZbmE2MmC1vX077Gt32hbcYjc8cNwc2g8hcGzLezFosTRJLNTM00GxiaDarzUxjpjMbl6z87bfUDo1PthYNNHNHNQO7Jhv7EcmcNPvxR03QBLUBQVN3TiOzoTEbQJbi5iTZ69dJ9Y0ybOqoWQTNqqCxZj26ptEAYEyGhNLqq9OYEcIRktYnaLLOaW42VsxUCSNuXTMsKWV7nqDxZkO6Zp9iJhWjPmLO8D0ytpHMTEdOKzPdCCDNmQkZ6ZL4K+2OdT1rzSSV7SmDNtTMBciMuqaGDM3D0EyM0OCUJaTFyIy0JmeVKX50L7TxOqcDlLNRu6aObPru3btXTM6S778j7fVr+k2WEDP8gPJ8PvPPokCDg6YZBXSdcyQzw5iJXSv595+++OnnhBSy6kvy3Y+vcXv/nvz/x+8Tpy13v3zzzddhamw2MGgSs9G7plXMkNnnn3/xDqvQnJ2/x+2/Xr8m33w/xUT0y5cvX/6eNzMMmma6YT7bcESy2D5mUjNt/admYj2btfWMTtHwP2Mz4Vlsg2bfOXuYQaOmdTUTixkaH+uc0RpPAlXPNejD6lmaLGcqNOPOyQQECNqgnPWPmUhWdUVqVueMTGDbtVPargXwV2szXdAMC5rGTD0705hZxAwHistZWi+f6pylbcRUObMN2oCCNpJZz5gBOaMT2oTMaRMncer72HoGLApG6JxQQVObPUHX1JOJOUvqlpExIE3a0aHtm8CiYNTOqR4ERLNBXdPcjC6JujlL2lbtP0uYkbObM8ciaeOYxeOa9eqadJBsc+awYsjsu++YW0LOLCqasdnkaXLm9zXjwFoNYmbcKrP6p7tlrfcoYD1w9jYb0jVT/1XT3iGzP7c3pxBU1rZfXr78umxvhhK00Qqaqm+OMwQYxix599MXTfscoTXtpz9DZl9/07SXqLW3vp6lsNkTFDRLs+HljDerpKD2BWj2y0tJ+30s652SoEFmtp1TNBttCFAMAMm3f/m3piGp9tZfYLOvm1ZJtbd+mVmaQWjQIKAsaKOamY4AqdP+SDUG/Oy0PwWZtfur5tUYkNHj2ah5RiOnOmjPZjZgBKiPx5Epf49x02lvdp/3KQoaMAiYmEEx0+ZMETOnPiBXrSvtzNJ67VQfKjBC+whm6mHTtpylQ8wSukanXDyaPmhPa2Y61dCXM75nmph9+wfUgOLWrNFT6FCUTedUm6kKGm8GxWxUs9TM7D9+ffHi71Izp90ROWpBszIbZXpmWM7YF4rGgC9gsxefffZiNDPTgfOZzGzLWXPUl+7JkOWsl5kjMbPP2dTCzHp6pjfjyZg92Kl0jW5kJg6dAweBfjmzLmf6vunwaE6a1KdmDDNLqn0bH98stjWz75ppGk0ieqQk6VPPmkNTj4/7OOltBhS0gTkbNj2TmuF4fP/+B3J8hJr9bGyW/oYWmR41K9fXV5mtGTTZUBY0cYI2uG9am1WnZLxuzbxXr1755jlDGx7Xp0KWN9dXc/nyyXwQgAbO5zEz6pskZ9RMJNGa4Uaqos4MXj0p+6bZwPnMZrhiYzPH6R4zsTEjQy82G6VvPve4aW2WOoNzxpjNE+nA+fx9034MkJgJ5azNmc5M9oBOznqbfQpjgEHO6D6zyixJha75iml/rczYOyYiXWU2o9+bd07DCdqwejYZzSyc4B/xkFmIfzbqsP0NOcnaiz+yWAfcjsjsQr4tkyFmn/C4mQY/vP+yau/fk/9/+T7rmMnJumb7G9Kur6/JN+slYPb89ewpzKIfvqRWQ812VbuuGv56ozP7BHIW9TJzwil+mgD1TY88X6dv/vevL5pGoNr2d9ZsszxWbXl9fUW/uzyd2UeuZ/WMDI8BYvuWaX+oyN4xdwAH2KsxwJWPASP1zY8xp+1MBZxm3KQnmskanmvI/pFZOynmGmOPAR9rTmtnJp/T4h1KFvOzMeYa/czUhzdNzNKRzJzazHqNHgFmn/C4WTe6DhjFbMB6c+j+M+Vxp1H7ZrveJGazt2/f/snYLK0msB55p88TmD37etN0wYnMfmzN3n5489V/GpsF6+12HSdtPZv3308LlLN+Y8CA406eiVmFlkzLOKG7H5O3X/3ujYXZLs/XU2qW3d/fW+fMcAgYLWdjHKujpb8+1d3ebFGbpQ769Vyp/JRzZtM3odM16jMt0v5mzfsGJGbm5Wzo8c1nOI7OHM5N+5vV9iMMAZ/8uQf1u1vpIfABOUudJzxfwyBnT3rgCTjJpTaT5+zXzz77VWHWvAWqt5mvNLOZn41lpglacxZa8vYNaPbt/6AmN2ufxYRMswyw3LU9gplB5xSD1uDJciZp/cxMu+bgvmk6cFqbsafT2ppFjJkwAjzTEGB5rrsPBQ02U56ywSjYmXmVGXPY/RmHTUXORntPhdzMSV69bdr/onr2f+1NYOmZJPRACWqXm8Vi3d48uL3fU9F/2DTrm4MHAa6gJf/46k3TfodacwNaeibJtqhbvkAtb2+WCUxmYwaVM6O+OcoeNOP37vwDSwEN7qZYCmz9zfoPAWOYmRS0kDP78FXdKr03za0PoNld01YV1Kq9KTOTkI37vrpnff9m6rXHx1Hk3vzTbW4Cp1Wx70Us16iendvbHkw2tJyNajbS+4SZgVM2bpbncybei+dn7WkItu95VZezcXM2/A2cwHuryREBYta8/alp+5ubI/22Xjeg/6J2jc49nwnZ2O9HH2clYI4Gm7Vo+2tiVp/jTc7Tjth9QdZm6q5pOgRYm40XNAc0I4dWUmrmOMy1zzo5E55NagbGbEA5g/rms17HpV471Wf7O/Wbe4hZfV00IWfmZJ/WdVxsRwHwsiTUrF450oUkihoxo158ztRkg8uZvZlpQbO+/Jlo5rR9s96FSJPV5AyqZ+pi9ozXpXqKgqYPWpszuruaXh+oNqvLXCdnFgPAsMsF9TAbfPUb/UVDhZzx42YzdipyNkbMbK5NqLykr3HQpJ1Tez1HJme4r55v73G7ur6+It/dOomjzJmCbKyYaa/nOObFCXW9M3n74asP/0yaQpacb675xuTMX9/dLWJzMx3ZaNcNfc7r06bun1Bjc3ZqzpUlJ8uuH+p6Vn0pUVOJGV3U17RrWlyfduh1kFVmIhpeHTVmaVvPrut6ltZzNAe4pm8PsuHXQR6noJlf1l2saY5TvwW2OVSQNONme8wc/EGlmZasV9eErx3dZ1prHDTVRcrr6zk6TjOnbRcI1mRPd133p//8ANMruzdmVV1j1wEyMN3He/SKmZ1Zj8458ocukLx11gEKMQuysT+nwvSK2+MFTf3hHvhLs19D0fhnte2ZY3y2x8DP3bH4DBn9p8gYmPUjG+czZD7K5zvp0JLHG42ZhuxJYtaaKTtn388RG4iWHDbHUmEmJteMbFjMoJwNDJpNSdOpCZNXO7In/BgxLmfGZvpPxTJB6/uZdcAzqchG7poGZmMFzT5q5mLGZOafvCYdAeRmFtMN04o2EtpIZHDMDD6tjpoZT2ths0FodmzgEwwks+2aJmbaimZc0iRopmrwDwtio8RMPmqamVkNAxo0iZqBm+wH+5H1HwFqsxErWr+kadgUP2RBZjFoyj/kdZiZUe+0SBrsFqrAtGSSacaQataY9ZluyIYBLZpazapZkOl75ghmIwXtCdGAZ7YlG2IG7Xm0GToVJQ1CG0NNK2ZQzPqQAWY9g/bsaNCTmpENNMsMzewmtibdc5ga+ISqmI1HBpo9QdBgNIUaOQUhtRIbrWcam4FBGw/NTs3JyNWmYDQjskhG1i9mTNdkzMxHAZlZj6RJ2JLNv1ar1b/2iTEYH7JRihkcM9DMpqINThrIlmy2i8WiWApm0qcwJtNOZzUx65r1GzrlZhZoPBtopvhp/jcZpaxvzDIne7qgWaF13LpmntJLS2bXM0cwM0CTlzR+moZPYEm1cl5rpnmsbcpGiRkyM0czCZoCzcvw9d0umtBUzcZMEzKjnjmKGUKbVC/fnw7rnSxaWN5tt9vVgy5oVmaC2EAy7USDN2ODNt3gVGTWaFK1sKzeU5hfOVoIYzNRTEVm0DNNYlaZSTrn1Qql4lRKzazRGjPtYGBmBoA9NRlkxs5rb6tXuEZmJkEzQWPMAg2biZmBmDWZfm5Wm8EVTWsmR+M3HTJTqmnNwIwpQ9YhGxQz3owJWmtm3ztBNt5MwaY2C4aS6eu/ioyYgUFjzHqg8WYRaCZDU5rBYCOkrK/ZXGfWHw0yk7jJzGRcYiUzJdPGTKhmtRkUNNbMvqQBap7EDHCDzSzE+pDpBgC52Vxn1htNZcbJCWZyLhMyeTHrUc0aMwCtYzYGmt6sYqv+Y8xk9V4pNjBlmpgZm42A5pULvRlpaW2mf6hdyIxSpolZYyaicWZqNB+V+DD0gmp7yRtuIkGNyVlYvWUndUJZiPRmXohPig/1ZM2moc0k580LZPjbLhn9phaJZ5CZMAwYm7mTKI3Pl+NyuTmUqReSdxDGAlqdsyTxysPmuDxezpMk7GUWJsEZPcXmcJ4loVIsSLMD3TTHC8j7HCddM5fErHtdbfxNTEHc8nKeqs3moJkUbeKc9w95sS0KtD6934TrIs+LfNZsPWf2cN7fLsij84d9mUBZU5uFyXn5sCiq9XBx/XgIQylZkJ4fH9AD0S8rTvcXD21Xni+iLll29YDabTZtyaLH6q7dgaC56K97WWb8uCmixYKZBC3I9ouiuQpSvr1d42/idvM7ZtVlpdpHF6f9PLU0S7P9qXmKvCjuz6mEzMkeO7/s/lT9/xR1eqZbrhFksWPNvNsK946YTTeHw+VQHmPAjOudohmI5p133ctG0VuMmd8167bi4SzKqMySw67o/sLTxgH7ZXrhH4m/noJuMauuQbTIObPqoSti5i6j42Q5O4J9kxli42a/hstBcWjBed3+IVm8uPsKsNlJpEUy67OQNIVZejnxl/bKF5sUqP3hAd60U9gZMt2sYzYDzLzl8egfyzmQs267wmZn/m63YzbJ6pQVxWK3W2ybrsCZ+YxZvsWPLWgI8oeMHwlkZlEUnikZ6nSndfVMOGnnUCALyl37yN0ur38dMZtKzGai2WTpH93ldCnkbHpc77qN/ALuzvXe6wQtfSRbUtzsz2WWlef9egubVS/iRF7C7bJ+LP3hvRNEOjPS+wL/ikJcHcsyKy+POEH57USYlaW35Nnz3bKsft0Bld3GjO07bN+cAWbTCxo1DwexnrnLbd5pbarZVtyH7K/zD+RxxWPmRDhMTrYnd83EeRIx252DpFoMoRVS9kiAizMd+mo6xizqzMDS45b0xmNUDbiek25w7oqNw5EFFyK03Weo4/poBhmWjzk1mwpmC2w2g8zm7mVzuWxiIWfuslsuJS3vmtGY5fvAr1cEUUJ6oOsLiwLyB71KGgXPIT9fPDrdSZZTm3HT1WBK+tvpktbBS45Q0CaTBL9s9BxhVM/+/ZDkzGHJ4imTM9gsi7Nz1pINNMOlABUkulUYLSRmeM0CmjHTqaarzbvzeZkZuX9RHNt/CGYPGK0MWLFJdCbbexv67YIpyNVmM9CMDJAZZHZXdBtB4u5c3XvMjCPakJhcAmYdRc0CYf0JmEUp6UHbjQPYAGY4l/mVVxOjp01wjyuODks28Y74iVfngFljAmYxYzaTm3VabRZv9lzDg8CJv/foM9M0b49fwq4hq9BIB1hEwqK9MWM/scHHKeF1JGbBDOd6e+lcrxD3kPwxZckm6T1d3LKrctEshs0CxkycUTRzjZjfM0HnZ/VflA5fPju1dcgL3nvsSirMWTP2SqOtWatGUpI/GuXMy0j5fLhi247o+FEDhlqyI3+L0FWZxaxZDJqJZMD8rF4LULP6mWJgPeDQDWPNXI8za9SijDGr3chAiF5xYGAWHlakSokjPHrNEUM2CUkiNwFglrJkjVnZms0jSzOCNuPNIDRww0SzicSsus+5YLPd1MSMDgFwKyOGzJ/gqro6+AqzWGI2Z8wAMnAdAJsBaAEtL5HGjLAhs5w380NstlgbmaXHAhqYyOhUdv5KM2J27phFeNPWKUumNoPIbMxENJqzI5SzcMKjRdmNkDM/xDr5tas1qx5MZrTrJdQydoesH9Gcdf6cEenFGrN5H7PMwCxm61kwFc2cCY8Gmjk4OvktmZFGvmjmR83y27usMDB4DczuPuwUb1rnz4nmRkVr1r4QzmzOmM3MzTJgDIDQwlsybgbs/jRJzhAaZJbgOQFaCLB30vQVy7RzL1qxknp2Drr3C78KjZvX/PCEtte/a8xiwYyOm/P+ZlDOOLR4GpD6cpq4DJrCbCeOARmNqpFZlOEe111cAmCohWTqeBMyZIxZLJqRVzrvbVahEbNzPJeiTX06iz8GeCXVNXO5Q1KVmTAG0Kq+5ZIjMfNDug5od5bBYmiIJEuUVb1EwRs4qc06r4L82U7naWsW9DHLmv20s7kCLSBL5nXpt2h1PXN5tNrMa+e5HtnHlT+43b0gUjMikR8T7MWI8ScXT8jAme9mfk3WmDnd7jLHa9784DZkM8KYl+BUQ2rG5EyBFpCVfX6btUnzFq1Z91zlOmf4Bk5Z9kB2Phwd3gY2i2LyYtaXpDOz8JzSZ8VQc/Zk0+6nQbPn3wXMqgMmZPHlNYfmJhvyWyzNsnmbs45Zd8YxJ7uP0YsIvag6lBiECTFL60LCm12XCT6u6aXOhuyvz3f8DkqZGf2HRX5aThx8MDUKvDDJNlfLsCPmun5Jdujmu0vqkX17YSiaoRc0IeFdXAJKRntr8ejCNPJ924xZF41V8y/1/uPdcnM5XDbHPd2j3Jg1aj5N/Olhual24u3XdEd4cQlBGsAsiu7ptHa9vJTzybw8bJYP62JFzNjJWHiEN61jhl8OSXt+swnQYFYdFaLpl5QzvVk8V6IFS7pHt/pgl7z5mBe0QGG3nzVrPwOG/uSK75kKswkaaIv6SfL2/8Ux5M8rQL1zC20aa0ZeDg1anj8cN4j2ngS02EtiZpgzRff0lu0RRLYl3RfAmnVavjp6wu5JwKzu4UG2Axad3A6MpqRBm9aa1a8nOq6YPyYN/30GVzPjnKmSdlmLLyLnzZCan+2EfcGo41yYFYNP7Wozhx8SUYtmjyuBYtXdt0J/Y7hZAJu2djgyhLY5cUdCi30m6ZnmOVPVtHi5XjF/0bzYbh+OwGtwj7cF98DdcRIA8yuPmokT48owvFyxT1Md+7vvLsZJQ4ul2fIkbprPk6HuWe7z+jhjdRrF7WEiS5ny+OaqKLan1kwxekb+ZXmVF3er1R0amW73xyyCyNzAcy/L+1P1wNXdanG7PAQhOCtVmqH+6R1QPV/hj8rabvP7Y+mBZGh6Efib6mQS/BvRpi2PmQ+QzebxJEMPRLNrVO8el6ULr851Zke8t4AxkyctjidoZh6X53OZTfzAi9wpf+5Q3V0iLwyirDyXJRIMoYwZmCG10HMPx2oTNyX6hXz5d5lTC3w0J5nhTXOrY1P1GqD7YqpXh3+oWkZPXGm31JjhFz1lz1rj0LjVp4sLvXByAgRXzRlkyx4zM9R8cipp4ANgnQOYeAXgdk8xi3mx5iWCe2ZNzWiby9G6ZvFUaFI1finax0zx5DxZ9yxGKGRt04oZmHXVlEkT0VRqKjetmRUYLzaQzMTMHM0ya3I3b1Mdbb2TmKmfcRDZk5hp0Kb2apBcdMYD0IEfI7RPBERdLWafMjOzLpq6qEEd1Iitkmv1IvxGdEpW/YOeCxazIhvTzAptiBovaNVMxEZIWZb9PwP6JGQjkdnNAAAAAElFTkSuQmCC;" vertex="1" parent="1">
          <mxGeometry x="2420" y="-1122.55" width="207.54" height="110.87" as="geometry" />
        </mxCell>
      </root>
    </mxGraphModel>
  </diagram>
</mxfile>
